<svg xmlns="http://www.w3.org/2000/svg" viewBox="0 0 103 92.5"><path d="M55.7 15.1l1.6 2.5c.7.9 1.1 1.6 1.2 1.8.5.8.9 1.6 1.2 2.4.4 1.1.5 2.1.5 3.2 1.9.2 2.7.4 2.7.6s-.9.4-2.7.6h-.1v.4c0 .1-.1.4-.2.8l-.3.7c-.3.8-.7 1.6-1.1 2.3 1 .5 2 1.1 2.8 1.7.7.4 1.3.8 1.6 1.3.3.3.4.5.4.6-.1.2-1-.1-2.6-.8-1.2-.5-2.2-.9-3.1-1.3-.3.5-.8 1.1-1.2 1.6-1.1 1.4-2.2 2.4-3.5 3.4-.7.5-1.3.9-2 1.3.1.2.2.5.2.9.2.6.4 1.7.7 3.2.3 1.6.7 2.8 1.1 3.9.2.5.5 1.3 1 2.1.4.8 1 1.5 1.4 2 .4.6.8.9.9 1.1l.4.5 2.8 2.2c.1.1 1 .6 2.6 1.8l2.8 1.7c.9.5 2 1.1 3.1 1.9.3.2.9.6 1.5 1.1l2.3 1.8c.1.1.3.3.7.6.4.5.9.9 1.3 1.5.8.9 1.4 2 2 3.3.9 2.1 1.4 4.3 1.6 6.7v2.9c.9-1.9 1.5-3.5 2-4.8.5-2 .8-4 .7-5.9-.2-2-.8-4.3-1.8-6.8-.7-1.6-1.9-4-3.7-7.3-2.1-3.6-3.5-6.3-4.3-8.3-.7-1.6-1.2-3.2-1.5-4.7-.4-1.7-.7-3.4-.5-4.9.1-2 .5-3.7 1.3-5 .9-1.6 2.2-2.8 3.9-3.7.4-.2.8-.4 1.1-.5l1.2-.4c.9-.2 1.6-.4 2.5-.4 1.5-.1 3 .1 4.5.6 3 .9 5 2.4 6.5 4.5.7 1.1 1.2 2.1 1.3 3.3.1.9 0 2-.2 3.1l-.2.6c-.2.3-.3.5-.3.6-.2.4-.5.7-.9 1.1-.5.6-1.2 1.1-1.9 1.3-.5.2-1.2.4-1.8.4-.5.1-1 0-1.3-.1s-.5-.2-.7-.4c-.1-.1-.2-.2-.1-.3 0 0 .1-.1.3-.1h.7c.8-.2 1.5-.5 2.1-.9.4-.2.8-.6 1.1-1.2.1-.2.2-.4.3-.7l.2-.8c.2-1.5-.2-2.7-1.2-4-1.1-1.4-2.7-2.2-4.8-2.6-.8-.7-1.8-.8-2.8-.7-.7.1-1.1.2-1.4.3l-1.6.7c-.9.5-1.6 1.3-2.1 2.1-.4.8-.8 1.9-.8 3.2 0 2.3.7 4.9 1.9 7.8.8 1.7 2.1 4.3 4 7.9l2.1 4c.9 2 1.4 3.4 1.6 4 1 3.1 1.5 5.7 1.5 8 .1 2.4-.3 4.7-1.3 7.2-.7 1.7-1.5 3.4-2.7 5.2-.8 1.1-1.6 2.2-2.5 3.4-.5.6-.9 1.2-1.3 1.5-.3.7-.9 1.9-1.8 3.5-.8 1.4-1.4 2.2-2 2.7.1-.1.2-.1.3-.2l12.5.3c8.8.3 17.6.6 17.6 1.1 0 .4-8.8.9-17.6 1.2-4.8.2-10.7.3-17.6.5 2.7-3.7 4.5-6.3 5.3-7.9.7-1.4 1.2-2.9 1.4-4.6.3-1.8.4-3.7.1-5.5-.2-2.1-.8-4.1-1.5-5.9-.5-1.1-1.1-1.9-1.6-2.6-.3-.5-.7-.9-1-1.2-.2-.2-.4-.3-.7-.6l-2-1.6c-.8-.5-1.2-.8-1.4-1.1L60.6 58c-1.3-.8-2.2-1.5-2.8-1.9l-3-2.7-.4-.6c-.3-.3-.7-.7-1-1.3-.4-.6-.9-1.4-1.4-2.5-.4-.9-.8-1.8-.9-2.5-.3-1.2-.7-2.4-.9-3.8-.2-1.4-.4-2.5-.5-3.6-.1-.8-.2-1.5-.2-1.9.2-.3.4-.5.4-.5.4-.5 1.1-1.2 2-2 .8-.7 1.6-1.8 2.4-3.2.2-.3.5-.7.8-1.2H55c-1.5-.5-2.6-.9-3.4-1.2-1.4-.4-2.3-.6-2.8-.7-1-.2-1.6-.4-2-.5-.4-.1-.7-.2-.7-.3 0-.1.2-.2.7-.2.7-.1 1.3-.1 2.1-.1.9.1 1.9.2 3.1.5 1.1.2 2.3.6 3.6 1.2.1 0 .2.1.3.1.4-.7.8-1.5 1-2.1.1-.3.2-.5.3-.8h-3.3l-6.7.2c-1.9.1-2.7 0-2.7-.1 0-.2.9-.6 2.6-1.1 2-.4 4.2-.6 6.8-.6 1.2 0 2.4 0 3.5.1 0-.7-.1-1.5-.3-2.2-.2-.6-.4-1.3-.8-2.1-.4-.9-1-2.4-1.9-4.5-.1-.2-.2-.4-.2-.6-.3-.3-.7-.9-1-2-.5-1.9-1-3.7-1.3-5.4-.2-1.4-.4-2.6-.4-3.8-.3.7-.7 1.6-1.2 2.6l-2.1 4.2c-.3.6-.5 1.1-.7 1.3-.1.1-.1.2-.2.3 0 .2 0 .3-.1.5-.1.1-.4.1-.9 0-.7-.2-1.2-.3-1.5-.4l-1.1-.2-.2-.1h-1c-1-.1-1.9-.1-2.8-.1-2.6.2-4.5.4-5.5.4h-.3c-1.4 0-2.2-.1-2.2-.4-.1-.2.1-.5.4-.7l.3-.3c0-.1-.1-.2-.1-.2l-2.1-4c-.4-1.1-.9-2-1.2-2.8-.1 1.2-.2 2.4-.5 3.8-.2 1.7-.7 3.5-1.3 5.4-.3.9-.7 1.6-.9 1.9-.1.2-.2.5-.3.9-.9 2-1.4 3.4-1.9 4.3-.3.8-.5 1.5-.8 2.1-.2.9-.3 2-.2 2.9h3.4c2.7 0 4.9.2 6.7.6 1.9.4 2.7.7 2.7.9 0 .1-.2.2-.8.2H33c-1.6-.2-3.8-.2-6.6-.2h-3.1v.1c.3.7.7 1.6 1.2 2.5.1.1.1.1.1.2 1.1-.4 2.3-.7 3.6-1.1 1.2-.2 2.3-.4 3.1-.4.9-.1 1.5 0 2.1 0 .5.1.8.1.8.2s-.2.2-.8.3c-.7.2-1.3.3-2 .5-.4.1-1.4.3-2.8.7l-3.3 1.2c.1.2.2.3.3.5.8 1.2 1.6 2.4 2.7 3.5.2.3 1 1.1 2.1 2.2l.1.1-.2 3.6c-.1.4-.1.9-.1 1.6 0 .3-.1.9-.1 1.7 0 .7 0 1.4-.1 1.9l-.7 4.2c-.2 1.1-.7 2.6-1.2 4.7-.7 2.4-1.9 6-3.4 10.4-1.2 3.6-2 7-2.4 10.3-.3 3.4-.2 6.2.3 8.5.3 1.6 1.8 4.1 4.3 7.6-1.8-.1-3.5-.1-5.1-.2-8.7-.2-21.8-.5-21.8-1.1s13.1-.9 21.9-1.2h1.4c-.3-.3-.7-.7-1-1.2-.8-.9-1.3-2.1-1.8-3.3-1-2.5-1.3-5.7-1.1-9.3.2-3.7 1-7.4 2.3-11 1.6-4.8 2.8-8.3 3.6-10.3.8-2.2 1.2-3.7 1.4-4.5.3-.9.5-1.7.7-2.1l.4-2c.1-.3.3-1.4.8-3.3l.5-2.5c.1-.7.2-1.4.4-1.7-.8-.3-1.6-.8-2.5-1.5-1.3-.9-2.5-2.1-3.5-3.4-.2-.3-.5-.7-.8-1.1-1 .3-2.1.8-3.5 1.5-1.6.7-2.6 1.1-2.7.8-.1-.1.1-.3.4-.6s.9-.7 1.6-1.3c1-.6 2.1-1.3 3.3-1.9-.5-.9-1-1.9-1.4-2.8l-.2-.7c-.1-.2-.1-.3-.1-.5h-.3c-1.9-.1-2.7-.3-2.7-.5s.9-.4 2.7-.6h.1V25c0-1.1.2-2.1.5-3.2.3-.8.8-1.6 1.2-2.4.1-.2.5-.8 1.2-1.8l1.8-2.5c.2-.2.3-.4.4-.6v-1.3c-.1-1.4 0-3.3.4-5.7.4-2.2.9-4 1.4-5.4.5-1.5 1-2.2 1.4-2.1.3-.2 1 .3 2 1.3 1.1 1.2 2 2.6 2.8 4.2.8 1.8 1.3 3.5 1.3 4.8 1.5-.6 3.2-.9 5.1-1.1 1.2-.1 2.3 0 3.5.3l1.2.3 1.5.8.3.3v-.4c0-1.5.5-3.2 1.4-5.2.8-1.7 1.8-3.1 2.7-4.2s1.5-1.5 2-1.3c.4 0 .9.6 1.4 2.1.5 1.4 1 3.2 1.4 5.4.4 2.3.5 4.2.4 5.7-.1.4-.1.8-.1 1.3.3.4.3.6.6.8zm3 64.6c.7-.1 1.2-.1 2 0 .7.2 1.3.4 1.9.8.4.3.9.7 1.2 1.3.4.7.9 1.6 1.1 2.6.2 1.5.3 2.9 0 4.5 0 0-.2 1.2-.5 3.3h-1c-3.9 0-7.4-.1-10.4-.2.2-2.8.4-4.6.5-5.3.2-1.7.8-3.1 1.4-4.2.7-.9 1.3-1.7 2.1-2.2.5-.2 1.1-.4 1.7-.6zm-.3 3.1c-.4.2-.9.6-1.3 1.2-.7.7-1.2 1.8-1.8 3.3-.2.5-.4 1.1-.7 1.8h7.8v-.3c-.1-1.4-.3-2.6-.7-3.6-.2-.6-.5-1.3-.9-1.7-.3-.5-.7-.7-1.1-.8h-.8c.1-.1-.2 0-.5.1zm-28.6 6.3c4.3-.1 9-.2 14-.2h2.7c-.1-.3-.2-.6-.2-.8 0 0-.1-.3-.2-.9-.2-.4-.3-.7-.3-.8-.7-1.7-1.6-2.9-2.7-3.9-1.5-1.3-3.3-1.8-5.3-1.7-2 0-3.7.6-5.3 2-1.2 1.1-2.1 2.3-2.5 3.9-.1.5-.2 1.2-.3 1.8.1 0 .1.3.1.6zm-1.2-5.7c.5-1.2 1.2-2 2-2.7.9-.8 2-1.6 3.2-2.1 1.3-.5 2.6-.8 3.9-.9 1.4-.1 2.8.2 4.2.7 1.2.4 2.3 1.2 3.3 2 1.4 1.5 2.4 3.2 2.8 5.3.1.3.2.7.2 1.2l.1 1.1c0 .3.1 1.8.5 4.2H44c-5.3 0-10.4-.1-15.8-.2-.2-3.2-.2-5.1-.2-5.9.1-.6.2-1.2.2-1.4.1-.3.2-.6.2-.7l.2-.6z"/></svg>