<svg id="lizard" xmlns="http://www.w3.org/2000/svg" viewBox="0 0 340.1 340.2"><style>.st0{fill:#447391}.st1{fill:#fcfcfd}.st2{fill:#77afbf}</style><title>lizard</title><path class="st0" d="M337 169.3c.1 92.6-74.8 167.7-167.4 167.8C83.4 337.3 1 269.5 2.1 167 3.1 72.4 79.5 2.3 169.6 2.1 262 2.1 337 77.1 337 169.3zM182.8 324.6c26.5-.3 63.1-14.5 93.3-43.8s45.8-65.4 46.8-107.4c2-86.9-68.1-157.5-154-157.7C83.4 15.5 14 84.5 14 170.1c0 84.9 68.8 154.2 168.8 154.5z"/><path class="st1" d="M14 170.1C14 84.5 83.4 15.5 168.8 15.7c86 .2 156 70.8 154 157.7-.9 42-16.7 78.1-46.8 107.4s-66.7 43.5-93.2 43.8C82.8 324.3 14 255 14 170.1zm229.1 116.1c1.9.1 3.1-1.2 4.4-2.1 47.4-35 68.6-81.9 57.8-139.9S258.1 48.6 200.7 34.5C123.1 15.3 46.2 66.8 32.2 145.6c-14.1 78.3 42.4 153.5 121.4 161.9 7.4.8 14.7.7 22 .8 2.6 0 3.8-1 4.3-3.6 4.9-24.3 5.6-48.9 5.3-73.6-.1-3.9-2.1-6.8-4.8-9.5-7.4-7.5-16.7-12.8-23.9-20.4-12.8-13.4-27-25.3-42.5-35.4-5.3-3.5-5.1-7.7.2-11.4 6.4-4.4 13.3-3.7 20.2-1.7 4 1.2 7.5 3.5 11 5.8 8.9 5.9 18.9 8 29.4 7.6 8.2-.4 16.5-7.1 19-14.9 1.4-4.4.3-7.9-3.5-10.5-5.3-3.7-11.4-5.5-17.6-6.8-17.8-3.7-35 .3-52.2 4.6-3.9.9-7.7 2.1-11.6 2.9-8.2 1.8-13.7-1.8-15.8-9.7-1-3.7-.2-5.8 3.7-7.2 11.1-3.9 22.2-8.1 33.3-12.1 7.8-2.6 15.2-6 22.3-10 4.4-2.7 9.9-3.2 14.8-1.3 12 4.1 23.9 8.2 35.9 12.2 2.2.7 4.3 1.8 6.6 1.4.7-2.1-1-2.1-1.9-2.4-13.1-5.1-26.4-9.9-39.4-15.6-5.2-2.3-10.5-2.6-15.5.1-17.5 9.4-36.5 15.1-55 22.1-3.5 1.4-7.3 2.2-10.4 6.3-.9-4.8 0-7.9 4-9.4 22.4-8.5 43.9-19.1 65.5-29.5 6.5-3.1 13.4-3.5 19.7.2 15.3 8.9 31.5 15.9 47.3 23.6 3.7 1.8 7.2 4.1 10.4 6.8 4 3.3 6.5 8.1 6.9 13.3 1 14.1 4.8 27.8 7.8 41.6 4.5 20.8 5.7 41.2.8 62.3-3.9 17-5.8 34.4-6.9 51.9l-.4.6.5-.4z"/><path class="st0" d="M243 286c1.2-17.5 3-35 6.9-51.9 4.8-21.1 3.7-41.6-.8-62.3-3-13.8-6.8-27.4-7.8-41.6-.3-5.2-2.8-10-6.9-13.3-3.1-2.7-6.6-5-10.4-6.8-15.9-7.7-32.1-14.7-47.3-23.6-6.3-3.7-13.2-3.3-19.7-.2-21.6 10.3-43.1 21-65.5 29.5-4 1.5-4.8 4.5-4 9.4 3-4.1 6.9-5 10.4-6.3 18.5-6.9 37.5-12.6 55-22.1 5.1-2.7 10.4-2.3 15.5-.1 12.9 5.7 26.2 10.5 39.4 15.6.9.3 2.6.2 1.9 2.4-2.4.4-4.5-.7-6.6-1.4-12-4-24-8.1-35.9-12.2-4.8-1.9-10.3-1.4-14.8 1.3-7.1 4-14.6 7.4-22.3 10-11.1 4.1-22.1 8.3-33.3 12.1-3.9 1.4-4.7 3.5-3.7 7.2 2.1 7.9 7.6 11.4 15.8 9.7 3.9-.8 7.7-1.9 11.6-2.9 17.1-4.3 34.3-8.3 52.2-4.6 6.2 1.3 12.3 3.1 17.6 6.8 3.9 2.7 4.9 6.1 3.5 10.5-2.6 7.9-10.9 14.6-19 14.9-10.5.4-20.4-1.7-29.4-7.6-3.4-2.3-7-4.6-11-5.8-7-2-13.9-2.7-20.2 1.7-5.3 3.7-5.4 7.9-.2 11.4 15.4 10.1 29.7 22 42.5 35.4 7.2 7.6 16.5 12.9 23.9 20.4 2.7 2.6 4.7 5.5 4.8 9.5.3 24.7-.4 49.3-5.3 73.6-.5 2.6-1.7 3.6-4.3 3.6-7.4-.1-14.7 0-22-.8-78.9-8.4-135.4-83.7-121.4-161.9 14.1-78.7 91-130.3 168.6-111.1 57.3 14.1 93.6 51.9 104.4 109.8 10.8 57.9-10.4 104.8-57.8 139.8-1.2.9-2.4 2.2-4.3 2.1l-.1-.2zM105.9 150c-10-1-17.2-5.7-20-15.9-.3-.9-1-1.8-1.8-2.3-8.4-5.7-5.1-19.4 4-22.7 14-5.1 27.3-11.5 40.8-17.7 6.8-3.1 13.6-6.3 20.3-9.7 12.5-6.5 24.6-6.6 36.8 1.2 12.9 8.2 27.4 13.4 41.1 20.3 7 3.6 13.6 7.6 18.1 14.5 2.1 3 3.4 6.5 3.7 10.2.4 13.6 4.4 26.5 6.9 39.7 2.1 10.9 4.1 21.8 5.1 32.9.7 8.6-.1 17.3-2.3 25.7-3 11.8-3.8 24-5.6 37 7.2-4.2 11.3-10.1 15.7-15.6 14-17.1 23.1-37.7 26.1-59.6 5.2-37.7-4.2-71.6-29-100.8-20.5-24.1-46.7-38.4-77.8-42.7-35.6-5.1-68 3.9-96.3 26.4-24 19.1-39 43.8-44.9 73.9-7.4 37.8 1.1 72 24.6 102.2 19.8 25.4 46.1 40.7 78 46.1 6.2 1 12.6 1.1 18.8 2 4.6.6 6.3-1.5 6.7-5.6.7-6.4 1.7-12.8 2-19.3.6-11.1.5-22.3 1.2-33.4.3-5.5-1.5-9.8-5.9-12.9-22.1-15.7-38.8-37.8-62.4-51.9-8.7-5.1-9.1-10.1-4.5-19.4.3-.7.6-1.5.8-2.3l1.2-.6-.3-.3c-.4.2-.7.4-1.1.6zm25.9-6c11.6 1.6 19.2 11.6 30.6 13.6 4.8.7 9.6.8 14.4.5 3.6-.2 9.2-5.9 9.8-9.2.4-2.1-1.2-2.5-2.4-3.2-6-3.3-12.7-5.1-19.5-5.5-11.1-.8-22.3.5-32.9 3.8z"/><path class="st0" d="M243 286.2l-.5.4.4-.6.1.2z"/><path class="st2" d="M106.1 150.3c-.2.8-.5 1.5-.8 2.3-4.7 9.2-4.2 14.2 4.5 19.4 23.6 14 40.2 36.2 62.4 51.9 4.4 3.1 6.2 7.3 5.9 12.9-.7 11.1-.6 22.3-1.2 33.4-.4 6.4-1.3 12.9-2 19.3-.5 4.1-2.1 6.3-6.7 5.6-6.3-.8-12.6-1-18.8-2-31.9-5.3-58.2-20.6-78-46.1-23.5-30.2-32-64.4-24.6-102.2 5.9-30.1 21-54.8 44.9-73.9C120 48.4 152.4 39.5 188 44.5c31 4.3 57.3 18.6 77.8 42.7 24.8 29.2 34.2 63.1 29 100.8-3 21.9-12.1 42.5-26.1 59.6-4.4 5.4-8.6 11.4-15.8 15.5 1.8-12.9 2.6-25.1 5.6-37 2.2-8.4 3-17.1 2.3-25.7-1-11-3-22-5.1-32.9-2.5-13.2-6.4-26.1-6.9-39.7-.3-3.7-1.6-7.2-3.7-10.2-4.4-6.9-11.1-11-18.1-14.5-13.7-6.8-28.2-12.1-41.1-20.3-12.2-7.8-24.2-7.7-36.8-1.2-6.7 3.4-13.5 6.6-20.3 9.7-13.5 6.2-26.8 12.7-40.7 17.8-9.1 3.3-12.4 17-4 22.7.8.6 1.5 1.4 1.8 2.3 2.8 10.2 10 14.9 20 15.9l.2.3z"/><path class="st2" d="M131.9 143.9c10.6-3.3 21.7-4.6 33-3.8 6.8.4 13.5 2.2 19.5 5.5 1.2.7 2.8 1.1 2.4 3.2-.6 3.3-6.2 9-9.8 9.2-4.8.4-9.6.2-14.4-.5-11.5-2-19.2-11.9-30.7-13.6zm-25.9 6c.3-.2.7-.4 1.1-.6.1 0 .2.2.3.3l-1.2.6-.2-.3z"/></svg>