<svg xmlns="http://www.w3.org/2000/svg" viewBox="0 0 84.9 44"><path d="M84.9 7c0-3.9-3.1-7-7-7H16.1C7.2 0 0 7.2 0 16.1V25c0 4.9 2.6 8.6 6.2 11.3C16.9 44 37 44 37.1 44c.3 0 .6-.1.9-.3 4.2-3.3 7.9-5 10.5-6 1.3-.5 2.4-.7 3.1-.9.4-.1.6-.1.8-.1h.2c.5 0 1-.4 1.2-.8.6-1.4 1-2.7 1-3.9 0-2-1-3.6-2.3-4.5-2.5-1.7-5.6-1.8-7.1-1.8h-.8c-.2 0-.4.1-.5.1-5.4 2.6-8.7 3.3-10.4 3.3-1.2 0-1.7-.3-1.9-.4l-.6-3.9h43.5c3.9 0 7-3.1 7-7 0-1.5-.5-3-1.4-4.3 2.6-.9 4.6-3.5 4.6-6.5zm-5.6 3.8H49.1c-.8 0-1.4.6-1.4 1.5 0 .8.6 1.4 1.4 1.4h27c1.5.6 2.7 2.3 2.6 4.1 0 2.3-1.8 4.1-4.1 4.1H29.4c-.4 0-.8.2-1.1.5s-.4.8-.3 1.2l1 5.9.1.3c.1.4 1.4 2.3 4.6 2.2 2.4 0 5.9-.8 11.4-3.5h.4c1.2 0 4 .2 5.4 1.2.7.5 1.1 1 1.1 2.1 0 .5-.1 1.2-.4 2-2.2.4-7.9 1.8-14.9 7.2-.8 0-2.6-.1-5-.3-4.9-.4-12.4-1.5-18.4-4-3-1.2-5.7-2.8-7.5-4.8-1.8-2-2.9-4.2-2.9-7.1v-8.9c0-7.3 5.9-13.1 13.2-13.2h61.8c2.2.2 4.1 2 4.1 4.3 0 1.7-1.1 3.2-2.7 3.8z"/></svg>