<svg xmlns="http://www.w3.org/2000/svg" viewBox="0 0 63.2 88.7"><path d="M63.1 60.2V21.1c0-3.9-3.1-7-7-7-1.4 0-2.7.4-3.8 1.2v-4.4c0-3.9-3.1-7-7-7-1.5 0-2.9.5-4.1 1.3-.9-3-3.6-5.2-6.8-5.2-3.9 0-7 3.1-7 7v1.2C26.3 7.5 25 7 23.6 7c-3.9 0-7 3.1-7 7v22c-.9-1.3-2.5-2.3-4.4-2.3-1.2 0-2.5.3-3.9 1-.5.3-.8.7-.9 1.3v.2c-.2 1.2-1.2 7.1-7 14.4-.2.3-.3.6-.3 1 0 .1.7 9.1 3.7 18.2 1.5 4.6 3.5 9.2 6.4 12.7 2.9 3.6 6.8 6.1 11.6 6.1h25.1c8.9 0 16.1-7.2 16.1-16.1l.1-12.3zM16.6 48.3v9l-1.2-.3c-.1-.1-.5-.5-.5-2 .1-1.3.4-3.5 1.7-6.7zM47 85.8H21.9c-3.8 0-6.8-1.9-9.4-5C8.7 76 6.2 68.6 4.8 62.5c-.7-3.1-1.2-5.9-1.4-7.9-.2-1.2-.3-2.1-.3-2.7 5.3-6.9 6.7-12.7 7.1-14.8.8-.3 1.5-.4 2-.4 1.1 0 1.6.4 2.1 1.1 1 1.4 1.3 4.2 1.2 5.4v.4c-2.6 5.5-3.5 9-3.5 11.4-.1 3.2 1.8 4.5 2.2 4.6l3.4 1c.2.1 1.2.1 1.2.1s.5 0 1.4.1c2.7.4 8.3 1.8 10.3 6.3.2.5.8.8 1.3.8.2 0 .4 0 .6-.1.7-.3 1-1.2.7-1.9-1.9-4-5.5-6-8.6-7.1-2.2-.7-4.2-1-5.1-1V14c0-2.3 1.8-4.1 4.1-4.1 1.7 0 3.2 1.1 3.8 2.6v31.9c0 .8.6 1.5 1.4 1.5s1.5-.6 1.5-1.4V7c0-2.3 1.8-4.1 4.1-4.1s4.1 1.8 4.1 4.1v39.6c0 .8.6 1.4 1.4 1.4.8 0 1.5-.7 1.5-1.4V9.3c.6-1.5 2.1-2.6 3.8-2.6 2.3 0 4.1 1.8 4.1 4.1v37.4c0 .8.6 1.4 1.4 1.4s1.5-.7 1.5-1.4V19.6c.6-1.5 2.1-2.6 3.8-2.6 2.3 0 4.1 1.8 4.1 4.1v51.5c.2 7.3-5.7 13.1-13 13.2z"/></svg>