<svg id="paper" xmlns="http://www.w3.org/2000/svg" viewBox="0 0 340.2 340.2"><style>.st0{fill:#447391}.st1{fill:#fcfcfd}.st2{fill:#77afbf}</style><title>paper</title><path class="st0" d="M3.1 168.8C3.3 76.4 78.6 1.8 171.5 2.1c92.4.3 166.9 75.7 166.6 168.6-.3 92.1-75.6 166.8-168.3 166.4-93-.5-166.9-75.9-166.7-168.3zm167.6 155.8c81.8.3 152.4-65.3 154.1-151.1 1.8-89.6-70.9-157.9-154.6-157.7-84.9.1-153.1 68.9-154.3 151.9-1.4 86.7 69.2 157.5 154.8 156.9z"/><path class="st1" d="M170.7 324.6c-85.6.6-156.2-70.2-154.8-156.9 1.3-83 69.5-151.8 154.3-151.9 83.7-.1 156.3 68.1 154.6 157.7-1.7 85.8-72.4 151.4-154.1 151.1zm-46-144c5.5 8.3 11 16.6 16.4 25 2.3 3.3 4.1 6.9 5.3 10.7 1.4 4.8-1.2 10.4-5.9 13.1-4.9 2.8-6.3-1.5-8.7-4-1-1.1-2-2.2-3.1-3.3-11.2-11.2-22.3-22.4-33.5-33.7-5.5-5.5-9.4-11.8-10.3-19.5-3-26.8-23.6-40.8-41.3-57.6-1.1 2.4-1.9 4-2.5 5.7-10.3 25.2-12.8 51.2-8 77.8C46 267.7 116.8 318.3 190 307c95.3-14.7 147.9-118.1 101.8-202.9-27.6-50.8-72.2-74.9-130.1-73-25.9.8-49.5 9.5-70.9 24.1-2.4 1.6-3.2 2.7-.8 5.2 6.8 7.4 14.2 13.9 23.1 18.8 12.5 6.7 25.3 12.6 38.5 17.7 33 13 59.8 34.5 83.2 60.5 2.6 2.8 5.3 5.6 6 9.6.5 1.8-.1 3.8-1.6 5-1.6 1.3-2.8-.3-4-1.1-17.2-10.8-33.4-23.3-48.1-37.2-1.3-1.1-2.2-2.4-2.7-4-3 2.9-2.8 5.1.3 8.1 16.3 15.4 34.3 28.5 53.2 40.4 5.9 3.7 6.5 7.3 2.6 13.1-1.6 2.4-3 2.9-5.7 1.3-12.3-7.3-24.7-14.5-36.1-23.2-8.4-6.4-16.7-13-25-19.5-3.2 3.1-3.2 3.1.4 6.1 19.3 16 39.6 30.4 61.7 42.4 2.7 1.5 4.9 3.1 4 6.5-1 4.2-4.3 7.4-8.5 8.4-4.3 1.1-9 2.4-12.7-1.5-6-6.3-13.1-11.3-20.2-16.3-10.7-7.5-21.2-15.1-31.2-23.3-1.6-1.3-3.3-3.1-5-1.2-1.9 2.2.7 3.5 2.1 4.5 7.6 5.9 15.3 11.7 23.1 17.5 8.6 6.5 18 12 25.8 19.6 2.3 2.2 4.8 4.3 2.4 8s-4.8 7.4-10 6.9c-4.7-.5-9.2-1.7-13.4-3.8-9.9-4.8-19.1-11-27.3-18.3-11.8-10.3-25.7-17.8-40.2-24.8z"/><path class="st0" d="M124.8 180.6c14.5 7 28.3 14.5 40.3 24.9 8.2 7.3 17.4 13.4 27.3 18.3 4.2 2 8.7 3.3 13.4 3.8 5.2.5 7.6-3.2 10-6.9s-.1-5.8-2.4-8c-7.8-7.6-17.2-13.1-25.8-19.6-7.7-5.8-15.4-11.6-23.1-17.5-1.3-1-4-2.4-2.1-4.6 1.7-2 3.4-.1 5 1.2 10.1 8.2 20.6 15.8 31.2 23.3 7.1 5 14.2 10 20.2 16.3 3.7 3.9 8.3 2.6 12.7 1.5 4.2-1 7.5-4.2 8.5-8.4.9-3.5-1.3-5.1-4-6.5-22-12-42.4-26.4-61.7-42.4-3.6-3-3.6-2.9-.4-6.1 8.4 6.5 16.7 13.1 25 19.5 11.4 8.7 23.8 15.9 36.1 23.2 2.6 1.6 4.1 1.1 5.7-1.3 3.8-5.8 3.3-9.4-2.6-13.1-19-11.9-37-25-53.2-40.4-3.2-3-3.3-5.2-.3-8.1.5 1.6 1.4 2.9 2.7 4 14.8 14 30.9 26.4 48.1 37.2 1.2.7 2.3 2.3 4 1.1 1.5-1.2 2.1-3.2 1.6-5-.8-4-3.5-6.8-6-9.6-23.5-26-50.2-47.5-83.2-60.5-13.2-5-26.1-10.9-38.6-17.7-8.9-4.9-16.3-11.4-23.1-18.8-2.3-2.5-1.6-3.6.8-5.2 21.4-14.6 45-23.3 70.9-24.1 57.9-1.8 102.5 22.3 130.1 73 46.1 84.8-6.5 188.1-101.8 202.8-73.3 11.3-144-39.3-156.9-112.2-4.7-26.7-2.2-52.7 8-77.8.7-1.7 1.5-3.3 2.5-5.7C61.4 128.1 82 142.1 85 168.9c.9 7.7 4.8 14.1 10.3 19.5 11.2 11.2 22.3 22.4 33.5 33.7 1.1 1.1 2 2.2 3.1 3.3 2.4 2.5 3.8 6.8 8.7 4 4.6-2.6 7.3-8.2 5.9-13.1-1.3-3.8-3-7.4-5.3-10.7-5.5-8.4-11-16.7-16.4-25zm29.4 29.4l-.6-.4.3.6c.3 3.6 1.5 7.1 1.2 10.9-.8 10.8-12 19.8-21.4 17-4.4-1.3-6.3-5.2-9.2-8.1-11-11.1-22.1-22.2-33.2-33.2-7.7-7.7-13.3-16.6-15-27.6-1.5-9.6-4.7-18.3-11.5-25.5-3.4-3.6-6.9-7.3-10.4-10.8-1.4-1.3-2.5-4-4.5-3.4-2.2.6-2.1 3.6-2.7 5.6-4.5 16.6-5.6 33.9-3.3 50.9 4.6 34.5 21 62.4 48.6 83.4 26.4 20.1 56.3 28.2 89.4 24.8 27-2.8 51-13 70.7-31.5 34.1-31.9 47.5-71.4 39.2-117.5-5.5-30.7-21.1-55.9-45.8-74.9-29.2-22.6-62.4-31-98.9-25.1-14.3 2.3-28.1 7.3-40.6 14.5-3.1 1.8-2.8 3.2-.4 5.1.9.7 1.9 1.4 2.8 2 15.3 10.7 33 16.4 49.7 24.3 12.5 5.9 25.4 11.1 36.6 19.2 16.8 12.1 31.6 26.5 45.7 41.6 5.6 6 10.1 12.5 7.4 21.5-.1.8.1 1.6.6 2.3 4.2 6.4 2.9 12.7-.4 18.8-.9 1.5-1.2 3.3-.8 5.1 1.8 11.6-6.7 22.3-18.2 22.5-4 .1-5.8 1.6-7.8 4.6-4.6 7.2-10.9 10.4-19.9 8.8-11.8-2-22-7.4-31.7-13.8-5.3-3.7-10.5-7.8-15.9-11.7z"/><path class="st2" d="M154.2 210c5.3 3.9 10.5 8 16 11.7 9.7 6.5 19.9 11.8 31.7 13.8 9 1.6 15.3-1.6 19.9-8.8 2-3.1 3.8-4.6 7.8-4.6 11.6-.2 20.1-10.9 18.2-22.5-.4-1.7 0-3.5.8-5.1 3.3-6.1 4.6-12.5.4-18.8-.5-.7-.7-1.5-.6-2.3 2.7-9-1.8-15.5-7.4-21.5-14.1-15.1-28.9-29.5-45.7-41.6-11.2-8.1-24.2-13.2-36.6-19.2-16.6-7.9-34.4-13.6-49.7-24.3-1-.7-1.9-1.3-2.8-2-2.4-1.9-2.7-3.3.4-5.1 12.6-7.2 26.3-12.1 40.6-14.5 36.5-6 69.7 2.5 98.9 25.1 24.6 19 40.2 44.2 45.8 74.9 8.3 46.1-5.1 85.6-39.2 117.5-19.7 18.4-43.6 28.7-70.7 31.5-33.1 3.4-63-4.7-89.4-24.8-27.7-21-44-48.8-48.6-83.4-2.3-17-1.1-34.3 3.3-50.9.5-2 .5-4.9 2.7-5.6 2-.6 3.2 2 4.5 3.4 3.6 3.5 7 7.1 10.4 10.8 6.7 7.2 10 15.9 11.5 25.5 1.7 10.9 7.2 19.9 15 27.6 11.1 11.1 22.2 22.1 33.2 33.2 2.9 2.9 4.8 6.8 9.2 8.1 9.3 2.8 20.6-6.2 21.4-17 .3-3.7-.9-7.2-1.2-10.9l.2-.2z"/><path class="st2" d="M153.9 210.2l-.3-.6.6.4-.3.2z"/></svg>