<svg id="paper" xmlns="http://www.w3.org/2000/svg" viewBox="0 0 340.2 340.2"><style>.st0{fill:#447391}.st1{fill:#fcfcfd}.st2{fill:#77afbf}</style><title>paper</title><path class="st0" d="M36.7 68.8C92.6-4.9 197-20.1 271.3 35.7c74.2 55.9 88.8 160.9 33.3 234.3-56 74.1-160.9 89.1-234.7 33.5-74.2-56.1-89-161.1-33.2-234.7zm227.7-22.4C196.7-6 97.6 7.6 46.3 77.5-3 144.2 9.6 240.3 77.2 291.7c66.5 50.8 165.7 40.5 218.5-31.9 50.6-69.3 33.9-164.4-31.3-213.4z"/><path class="st1" d="M264.4 46.4c65.1 49 81.8 144.1 31 213.4-52.9 72.5-151.9 82.7-218.4 31.9C9.6 240.3-3.1 144.1 46.1 77.5 97.6 7.6 196.6-6 264.4 46.4zm-123.7 86.7c15.8 3.2 31.4 5.6 47.1 4.7 11-.8 22-.2 32.8 2 4.6.9 9 2.7 12.8 5.1 4.5 2.8 4.2 7.2 3.8 11.5s-3.6 4.5-6.8 5c-10.9 1.3-21.6.1-32.3 0-9.7-.2-19.3-.1-28.9-.1-1.7-.2-4.5-.7-4.3 2.3.3 2.5 2.6 2.1 4.7 2.1 12.9-.4 25.8-.2 38.9.3 8.6.3 17.3.7 25.9-.7 5.3-.8 8.3 3 11 6.5 2.7 3.3 3.5 7.9 1.7 11.9-1.3 3.2-4 3.2-7.1 2.8-24.8-3.8-49.8-4.7-74.8-3.6-4.7.1-4.7.1-4.1 4.6 10.5-.1 21.1-.4 31.7-.4 14.3 0 28.5 1.8 42.7 3.5 3.1.3 3.8 1.6 3.7 4.5-.3 6.9-3.1 9.5-10 8.9-22.3-2-44.5-2.4-66.8 0-4.3.5-5.9 2-5.2 6.2 1.4-.9 2.9-1.5 4.7-1.5 20.2-2.2 40.6-2.2 60.7-.6 1.4.2 3.4-.5 3.8 1.6.4 1.9-.3 3.8-1.8 4.8-2.9 2.8-6.8 3.5-10.6 4-34.5 6.5-68.8 7.4-102.8-2.2-13.5-4-27.4-7-41.4-9.3-9.9-1.6-19.8-.7-29.8 1-3.4.5-3.6 1.9-2.6 4.7 8.2 24.5 21.6 45.7 41.9 62.1 44.8 36.5 95 44.3 147.7 20.7 88.3-40 109-154.2 42.1-223.5-51.5-53.4-138.4-56-192.7-5.7-20 18.4-33.7 40.6-40.7 66.8-.7 1.7-.9 3.4-1.5 6 24.3-2.6 49.1-1.3 67.8-20.9 5.5-5.5 12.3-8.2 20-9.3 15.9-2.2 31.4-4.5 47.2-6.6 1.6-.1 3-.5 4.5-.7 3.4-.5 7.1-3.2 9.3 2.1 2 5.1.7 11.1-3.3 14-3.3 2.3-6.9 4.2-10.8 5.3-9.5 3.4-18.8 6.9-28.2 10.1z"/><path class="st0" d="M140.8 133.2c9.3-3.3 18.9-6.7 28.2-9.9 3.9-1.2 7.3-3.1 10.8-5.3 4.1-3 5.3-9 3.3-14-2.1-5.3-6-2.8-9.3-2.1-1.6.1-3 .6-4.5.7-15.9 2.2-31.4 4.5-47.2 6.6-7.7 1-14.6 3.6-20 9.3-18.5 19.6-43.5 18.2-67.8 21 .6-2.5 1-4.2 1.5-6 7.1-26.2 20.8-48.5 40.7-66.8 54.3-50.5 141.2-47.9 192.6 5.4 66.9 69.4 46.3 183.4-41.8 223-52.5 23.7-102.8 15.9-147.7-20.7-20-16.3-33.5-37.5-41.9-62.1-1-2.8-.8-4.1 2.6-4.7 10-1.7 19.8-2.5 29.8-1 14.1 2.3 28 5.3 41.4 9.4 34.1 9.6 68.4 8.6 102.8 2.2 3.7-.7 7.6-1.4 10.6-4 1.6-1 2.2-3.2 1.8-4.8-.5-2-2.4-1.3-3.8-1.6-20.2-1.8-40.6-1.7-60.7.6-1.7 0-3.2.6-4.7 1.5-.6-4.2.9-5.8 5.2-6.2 22.3-2.5 44.5-2 66.8 0 6.9.5 9.6-1.9 10-8.9.1-2.9-.7-4.2-3.7-4.5-14.2-1.8-28.4-3.5-42.7-3.5-10.5.1-21.1.4-31.7.4-.5-4.5-.6-4.4 4.1-4.6 25.1-1.1 49.9-.1 74.8 3.6 3 .5 5.7.7 7.1-2.8 1.8-3.8 1-8.4-1.7-11.9-2.8-3.5-5.8-7.5-11-6.5-8.7 1.4-17.3 1-25.9.7-12.9-.5-25.8-.8-38.9-.3-2.1 0-4.6.5-4.7-2.1-.2-2.9 2.7-2.4 4.4-2.3 9.7 0 19.3-.1 28.9.1 10.8.1 21.6 1.3 32.3 0 3.2-.4 6.4-.5 6.8-5 .4-4.4.7-8.7-3.8-11.5-4.1-2.5-8.4-4.1-12.8-5.1-10.8-2.1-21.9-2.8-32.8-2-16.3 1.3-31.7-1.2-47.4-4.3zm41.2-5.6c6.6.2 13.3.1 19.7.3 11.5.8 23 2.6 33.6 8.2 8.1 4.1 11.2 10.6 10.6 19.1-.2 3.6.2 5.9 3.4 8.4 9.1 7.1 9.4 20.8.8 28.9-1.5 1.1-2.2 2.9-2.5 4.6-1 6.8-3.9 12.6-11.1 15.1-.8.2-1.5.7-2 1.4-3.3 8.8-10.9 11.2-18.9 12.7-20.3 3.6-40.9 5.9-61.6 5.5-13.8-.4-27.2-4-40.8-6.9-18-3.8-35.6-10-54.3-10.7-1.1-.1-2.3 0-3.4-.1-3.1.1-4.2.9-2.8 4.3 5.5 13.4 13.5 25.7 23.5 36.1 25.5 26.7 57 40 93.9 39.8 31.1-.3 58.9-10.7 81.8-31.8 34.5-31.7 47.7-71.1 40-117.2-4.3-26.9-17.2-49.6-37.1-68.1-24.3-22.7-53-34.3-86.1-34.4-34.6 0-64.6 12.3-89.2 37-12.1 12.1-21.7 26.7-28.3 42.5-.8 1.9-2.7 4.3-1.3 6 1.1 1.8 3.7.2 5.6.1 4.9-.6 10-1.4 14.9-2.2 9.8-1.5 17.7-6.7 24.6-13.4 7.9-7.7 17.9-11.5 28.6-12.8 15.6-1.9 31-4.2 46.6-6.2 4.1-.5 7.9-2.5 12.3-.9 9.2 3.5 12.6 17.4 6.8 26.6-2 3.2-5.2 5.2-7.5 8l-.6.3.8-.2z"/><path class="st2" d="M181.9 127.3c2.4-2.8 5.6-4.7 7.5-8 5.9-9.1 2.3-23.1-6.8-26.6-4.2-1.7-8.2.4-12.3.9-15.6 2.1-31 4.3-46.6 6.2-10.9 1.4-20.8 5.3-28.6 12.8-7 6.8-14.9 11.6-24.6 13.4-5 .8-9.9 1.6-14.9 2.2-1.9.2-4.5 1.6-5.6-.1-1.2-2 .5-4.2 1.3-6 6.6-16 16.1-30.3 28.3-42.5 24.6-24.8 54.4-37.1 89.2-37 33.1 0 61.8 11.6 86.1 34.5 20 18.6 32.6 41.2 37.2 67.9 7.7 46.1-5.5 85.5-40 117.2-22.9 21.1-50.8 31.6-81.8 31.8-36.9.3-68.4-13-93.9-39.8-9.9-10.6-17.9-22.8-23.5-36.1-1.4-3.4-.2-4.3 2.8-4.3 1.1.1 2.2.1 3.4.1 18.6.6 36.3 7 54.3 10.7 13.5 2.8 27 6.5 40.8 6.9 20.6.4 41.2-1.9 61.6-5.5 8.2-1.4 15.6-3.7 18.9-12.7.4-.7 1.1-1.2 2-1.4 7.1-2.6 10-8.4 11.1-15.1.4-1.7 1.1-3.4 2.5-4.6 8.5-8.1 8.2-21.7-.8-28.9-3.2-2.4-3.6-4.7-3.4-8.4.7-8.5-2.3-15-10.6-19.1-10.6-5.6-22-7.5-33.6-8.2-6.6-.4-13.2-.3-19.8-.3h-.2z"/><path class="st2" d="M182 127.6l-.7-.1.6-.3.1.4z"/></svg>