<svg id="paper" xmlns="http://www.w3.org/2000/svg" viewBox="0 0 340.2 340.2"><style>.st0{fill:#447391}.st1{fill:#fcfcfd}.st2{fill:#77afbf}</style><title>paper</title><path class="st0" d="M304.4 68.8c55.8 73.6 41 178.6-33.2 234.7-73.8 55.6-178.7 40.6-234.7-33.5C-19 196.6-4.4 91.6 69.8 35.7c74.3-55.8 178.7-40.6 234.6 33.1zM76.7 46.4c-65.2 49-81.9 144.1-31.3 213.4 52.8 72.4 152 82.7 218.5 31.9 67.6-51.4 80.2-147.5 30.9-214.2C243.5 7.6 144.4-6 76.7 46.4z"/><path class="st1" d="M76.7 46.4C144.5-6 243.5 7.6 295 77.5c49.2 66.6 36.5 162.8-30.9 214.2-66.5 50.8-165.5 40.6-218.4-31.9-50.8-69.3-34.1-164.4 31-213.4zm123.7 86.7c-9.4-3.2-18.7-6.7-28.2-10.1-3.9-1.1-7.5-3-10.8-5.3-4-2.9-5.3-8.9-3.3-14 2.2-5.3 5.9-2.6 9.3-2.1 1.5.2 2.9.6 4.5.7 15.8 2.1 31.3 4.4 47.2 6.6 7.7 1.1 14.5 3.8 20 9.3 18.7 19.6 43.5 18.3 67.8 20.9-.6-2.6-.8-4.3-1.5-6-7-26.2-20.7-48.4-40.7-66.8C210.4 16 123.5 18.6 72 72c-66.9 69.3-46.2 183.5 42.1 223.5 52.7 23.6 102.9 15.8 147.7-20.7 20.3-16.4 33.7-37.6 41.9-62.1 1-2.8.8-4.2-2.6-4.7-10-1.7-19.9-2.6-29.8-1-14 2.3-27.9 5.3-41.4 9.3-34 9.6-68.3 8.7-102.8 2.2-3.8-.5-7.7-1.2-10.6-4-1.5-1-2.2-2.9-1.8-4.8.4-2.1 2.4-1.4 3.8-1.6 20.1-1.6 40.5-1.6 60.7.6 1.8 0 3.3.6 4.7 1.5.7-4.2-.9-5.7-5.2-6.2-22.3-2.4-44.5-2-66.8 0-6.9.6-9.7-2-10-8.9-.1-2.9.6-4.2 3.7-4.5 14.2-1.7 28.4-3.5 42.7-3.5 10.6 0 21.2.3 31.7.4.6-4.5.6-4.5-4.1-4.6-25-1.1-50-.2-74.8 3.6-3.1.4-5.8.4-7.1-2.8-1.8-4-1-8.6 1.7-11.9 2.7-3.5 5.7-7.3 11-6.5 8.6 1.4 17.3 1 25.9.7 13.1-.5 26-.7 38.9-.3 2.1 0 4.4.4 4.7-2.1.2-3-2.6-2.5-4.3-2.3-9.6 0-19.2-.1-28.9.1-10.7.1-21.4 1.3-32.3 0-3.2-.5-6.4-.7-6.8-5s-.7-8.7 3.8-11.5c3.8-2.4 8.2-4.2 12.8-5.1 10.8-2.2 21.8-2.8 32.8-2 15.7.9 31.3-1.5 47.1-4.7z"/><path class="st0" d="M200.3 133.2c-15.7 3.1-31.1 5.6-47.4 4.3-10.9-.8-22-.1-32.8 2-4.4 1-8.7 2.6-12.8 5.1-4.5 2.8-4.2 7.1-3.8 11.5.4 4.5 3.6 4.6 6.8 5 10.7 1.3 21.5.1 32.3 0 9.6-.2 19.2-.1 28.9-.1 1.7-.1 4.6-.6 4.4 2.3-.1 2.6-2.6 2.1-4.7 2.1-13.1-.5-26-.2-38.9.3-8.6.3-17.2.7-25.9-.7-5.2-1-8.2 3-11 6.5-2.7 3.5-3.5 8.1-1.7 11.9 1.4 3.5 4.1 3.3 7.1 2.8 24.9-3.7 49.7-4.7 74.8-3.6 4.7.2 4.6.1 4.1 4.6-10.6 0-21.2-.3-31.7-.4-14.3 0-28.5 1.7-42.7 3.5-3 .3-3.8 1.6-3.7 4.5.4 7 3.1 9.4 10 8.9 22.3-2 44.5-2.5 66.8 0 4.3.4 5.8 2 5.2 6.2-1.5-.9-3-1.5-4.7-1.5-20.1-2.3-40.5-2.4-60.7-.6-1.4.3-3.3-.4-3.8 1.6-.4 1.6.2 3.8 1.8 4.8 3 2.6 6.9 3.3 10.6 4 34.4 6.4 68.7 7.4 102.8-2.2 13.4-4.1 27.3-7.1 41.4-9.4 10-1.5 19.8-.7 29.8 1 3.4.6 3.6 1.9 2.6 4.7-8.4 24.6-21.9 45.8-41.9 62.1-44.9 36.6-95.2 44.4-147.7 20.7C25.7 255.5 5.1 141.5 72 72.1c51.4-53.3 138.3-55.9 192.6-5.4 19.9 18.3 33.6 40.6 40.7 66.8.5 1.8.9 3.5 1.5 6-24.3-2.8-49.3-1.4-67.8-21-5.4-5.7-12.3-8.3-20-9.3-15.8-2.1-31.3-4.4-47.2-6.6-1.5-.1-2.9-.6-4.5-.7-3.3-.7-7.2-3.2-9.3 2.1-2 5-.8 11 3.3 14 3.5 2.2 6.9 4.1 10.8 5.3 9.3 3.2 18.9 6.6 28.2 9.9zm-41.2-5.6l.8.2-.6-.3c-2.3-2.8-5.5-4.8-7.5-8-5.8-9.2-2.4-23.1 6.8-26.6 4.4-1.6 8.2.4 12.3.9 15.6 2 31 4.3 46.6 6.2 10.7 1.3 20.7 5.1 28.6 12.8 6.9 6.7 14.8 11.9 24.6 13.4 4.9.8 10 1.6 14.9 2.2 1.9.1 4.5 1.7 5.6-.1 1.4-1.7-.5-4.1-1.3-6-6.6-15.8-16.2-30.4-28.3-42.5-24.6-24.7-54.6-37-89.2-37-33.1.1-61.8 11.7-86.1 34.4-19.9 18.5-32.8 41.2-37.1 68.1-7.7 46.1 5.5 85.5 40 117.2 22.9 21.1 50.7 31.5 81.8 31.8 36.9.2 68.4-13.1 93.9-39.8 10-10.4 18-22.7 23.5-36.1 1.4-3.4.3-4.2-2.8-4.3-1.1.1-2.3 0-3.4.1-18.7.7-36.3 6.9-54.3 10.7-13.6 2.9-27 6.5-40.8 6.9-20.7.4-41.3-1.9-61.6-5.5-8-1.5-15.6-3.9-18.9-12.7-.5-.7-1.2-1.2-2-1.4-7.2-2.5-10.1-8.3-11.1-15.1-.3-1.7-1-3.5-2.5-4.6-8.6-8.1-8.3-21.8.8-28.9 3.2-2.5 3.6-4.8 3.4-8.4-.6-8.5 2.5-15 10.6-19.1 10.6-5.6 22.1-7.4 33.6-8.2 6.4-.2 13.1-.1 19.7-.3z"/><path class="st2" d="M159 127.3c-6.6 0-13.2-.1-19.8.3-11.6.7-23 2.6-33.6 8.2-8.3 4.1-11.3 10.6-10.6 19.1.2 3.7-.2 6-3.4 8.4-9 7.2-9.3 20.8-.8 28.9 1.4 1.2 2.1 2.9 2.5 4.6 1.1 6.7 4 12.5 11.1 15.1.9.2 1.6.7 2 1.4 3.3 9 10.7 11.3 18.9 12.7 20.4 3.6 41 5.9 61.6 5.5 13.8-.4 27.3-4.1 40.8-6.9 18-3.7 35.7-10.1 54.3-10.7 1.2 0 2.3 0 3.4-.1 3 0 4.2.9 2.8 4.3-5.6 13.3-13.6 25.5-23.5 36.1-25.5 26.8-57 40.1-93.9 39.8-31-.2-58.9-10.7-81.8-31.8-34.5-31.7-47.7-71.1-40-117.2 4.6-26.7 17.2-49.3 37.2-67.9 24.3-22.9 53-34.5 86.1-34.5 34.8-.1 64.6 12.2 89.2 37 12.2 12.2 21.7 26.5 28.3 42.5.8 1.8 2.5 4 1.3 6-1.1 1.7-3.7.3-5.6.1-5-.6-9.9-1.4-14.9-2.2-9.7-1.8-17.6-6.6-24.6-13.4-7.8-7.5-17.7-11.4-28.6-12.8-15.6-1.9-31-4.1-46.6-6.2-4.1-.5-8.1-2.6-12.3-.9-9.1 3.5-12.7 17.5-6.8 26.6 1.9 3.3 5.1 5.2 7.5 8h-.2z"/><path class="st2" d="M159.2 127.2l.6.3-.7.1.1-.4z"/></svg>