<svg xmlns="http://www.w3.org/2000/svg" viewBox="0 0 63 69.7"><path d="M62.8 15.7c0-3.9-3.1-7-7-7-1.4 0-2.8.5-3.9 1.2-.5-3.4-3.4-6.1-6.9-6.1-1.5 0-2.9.5-4.1 1.3-.8-2.9-3.5-5.1-6.7-5.1-3.3 0-6.1 2.3-6.8 5.5-.1.4 0 .3 0 .4v2.3c-1.2-.7-2.6-1.2-4-1.2-3.3 0-6.1 2.3-6.8 5.5v4.6c-.9-1.3-2.5-2.3-4.4-2.3-1.2 0-2.5.3-3.9 1-.6.2-.9.7-1 1.2v.2c-.2 1.2-1.2 7.1-7 14.4-.2.4-.3.7-.3 1.1 0 .1.7 9 3.7 18 1.5 4.5 3.5 9.1 6.4 12.6 2.9 3.5 6.8 6.1 11.6 6.1h.6c.9.2 1.9.3 2.9.3h21.6c8.9 0 16.1-7.2 16.1-16.1l-.1-37.9zM52 14.2c.6-1.6 2.1-2.7 3.8-2.7 2.3 0 4.1 1.8 4.1 4.1v9.5c0 .3 0 .5-.1.8-.4 1.9-2 3.3-4 3.3-1.2 0-2.2-.5-2.9-1.3-.3-.3-.6-.7-.8-1.2 0-.1-.1-.2-.1-.2 0-.1-.1-.1-.1-.2-.1-.4-.2-.8-.2-1.3v-9.5c0-.3 0-.5.1-.8 0-.2.1-.3.1-.5 0 .1.1.1.1 0zm-7-7.5c2.3 0 4.1 1.8 4.1 4.1v18.7c0 1.4-.7 2.7-1.8 3.4-.7.4-1.4.7-2.3.7-1.4 0-2.6-.7-3.3-1.7-.2-.3-.4-.6-.5-1v-.1c-.1-.4-.2-.8-.2-1.3V10.8c0-.4.1-.9.2-1.3 0 0 0-.1.1-.1.4-1.6 1.9-2.7 3.7-2.7zm-14.8-.3V6c.4-1.8 2.1-3.1 4-3.1 2.3 0 4.1 1.8 4.1 4.1v24.2c0 .2 0 .3-.1.5v.2c0 .2-.1.4-.2.5 0 .1 0 .1-.1.2-.1.2-.2.3-.3.5 0 .1-.1.1-.1.2-.1.1-.2.3-.3.4l-.2.2c-.1.1-.2.2-.4.3l-.2.2c-.1.1-.3.2-.4.2-.1 0-.2.1-.3.1-.2.1-.3.1-.5.1-.1 0-.2.1-.3.1-.2 0-.5.1-.8.1h-.5c-2-.2-3.5-1.9-3.5-4 .1 0 .1-24.3.1-24.6zM19.4 13c.5-1.8 2.1-3.1 4-3.1 1.7 0 3.2 1.1 3.8 2.6v15.6c0 .1-.1.2-.1.2 0 .1-.1.2-.1.3-.1.1-.1.2-.2.3-.1.1-.1.2-.2.2-.1.1-.1.2-.2.2-.1.1-.1.2-.2.2-.1.1-.2.1-.2.2l-.2.2c-.1.1-.2.1-.3.2-.1.1-.2.1-.3.2-.1.1-.2.1-.3.1-.1 0-.2.1-.3.1-.1 0-.3.1-.4.1-.1 0-.2 0-.2.1h-.6c-.2 0-.5 0-.7-.1-.1 0-.1 0-.2-.1-.2 0-.3-.1-.5-.1-.1 0-.2-.1-.3-.1-.1-.1-.2-.1-.4-.2-.1-.1-.2-.1-.3-.2-.1-.1-.2-.1-.3-.2-.1-.1-.2-.1-.2-.2l-.2-.2c-.1-.1-.1-.2-.2-.3 0 .1-.1 0-.2 0-.1-.1-.1-.2-.2-.3-.1-.1-.1-.2-.2-.3 0-.1-.1-.2-.1-.3 0-.1-.1-.2-.1-.3l.1-14.8zm-2.9 16.4v9l-1.2-.4c-.1-.1-.5-.5-.5-2 .1-1.3.4-3.4 1.7-6.6zm43.6 24.3c0 7.3-5.9 13.1-13.2 13.2H25.3c-.8 0-1.7-.1-2.5-.2h-1c-3.8 0-6.8-1.9-9.4-5-3.8-4.6-6.3-12-7.7-18.1-.7-3.1-1.2-5.8-1.4-7.8-.2-1.4-.3-2.3-.3-2.8 5.3-6.9 6.7-12.7 7.1-14.8.8-.3 1.5-.4 2-.4 1.1 0 1.6.4 2.1 1.1 1 1.4 1.3 4.2 1.2 5.4v.4c-2.6 5.5-3.5 9-3.5 11.4-.1 3.2 1.8 4.5 2.2 4.6l3.4 1c.2.1 3.2.1 5.5.9 2.6.8 5.4 2.4 6.7 5.3.2.5.8.8 1.3.8.2 0 .4 0 .6-.1.7-.3 1-1.2.7-1.9-1.9-4-5.5-6-8.5-6.9-1.8-.6-3.4-.8-4.5-.9v-6.4c.1.1.2.1.3.2.1.1.3.2.4.2l.6.3c.1.1.3.1.4.2.2.1.5.1.8.2.1 0 .2.1.3.1.4.1.8.1 1.2.1h.1c.4 0 .7 0 1-.1.1 0 .2-.1.3-.1.2-.1.5-.1.7-.2.1 0 .2-.1.4-.2l.6-.3c.1-.1.2-.1.4-.2.1-.1.3-.2.4-.3.6 2.7 2.7 4.8 5.4 5.4h.1c.2 0 .4.1.6.1h.9c.3 0 .5 0 .8-.1h.3c.2 0 .4-.1.6-.1.1 0 .2 0 .2-.1.3-.1.5-.2.8-.3h.1l.6-.3c.1 0 .1-.1.2-.1.2-.1.4-.2.5-.4.1 0 .1-.1.2-.1.2-.2.4-.4.6-.5l.1-.1c.2-.2.3-.4.5-.6 0-.1.1-.1.1-.2.1-.2.3-.4.4-.6l.1-.1c.2.2.4.3.6.5l.1.1c.3.2.5.4.8.5h.1c.3.2.6.3.9.4.1 0 .1 0 .2.1.3.1.6.2.9.2h.2c.3 0 .7.1 1 .1h.9c.1 0 .3 0 .4-.1.1 0 .2 0 .3-.1.1 0 .2-.1.3-.1.1 0 .2-.1.3-.1.1 0 .2-.1.3-.1.1 0 .2-.1.3-.1.1 0 .2-.1.3-.2.1 0 .2-.1.2-.1.1-.1.2-.1.3-.2.1 0 .1-.1.2-.1.2-.1.3-.2.5-.3l.1-.1c.1-.1.2-.2.4-.3l.2-.2.3-.3.2-.2c.1-.1.1-.2.2-.3.1-.1.1-.2.2-.2.1-.1.1-.2.2-.3 0-.1.1-.2.1-.2.1-.1.1-.2.2-.3 0-.1.1-.2.1-.3 0-.1.1-.2.1-.4 0-.1.1-.2.1-.2.1-.2.1-.4.2-.6.1.1.3.2.4.3.1.1.2.2.4.2l.6.3c.1 0 .2.1.4.2s.5.1.7.2c.1 0 .2.1.3.1.4.1.7.1 1.1.1.4 0 .7 0 1.1-.1h.1c.3-.1.7-.1 1-.3h.1c.3-.1.6-.2.9-.4 0 0 .1 0 .1-.1.3-.2.6-.3.8-.5h.1v22.9z"/></svg>