<svg id="rock" xmlns="http://www.w3.org/2000/svg" viewBox="0 0 340.2 340.2"><style>.st0{fill:#457491}.st1{fill:#fcfcfd}.st2{fill:#77afbf}</style><title>rock</title><path class="st0" d="M304.6 70.5c.1.2.2.2.3.4 54.6 74.6 38.3 179.2-36.3 233.8-75.4 55.2-180 37.6-234.2-36.1C-20.3 193.8-4.1 89 70.7 34.4 145.4-20.1 250.1-4 304.6 70.5zM78.7 46C9.3 97.9-5.2 193.1 45.1 262c52.2 71.6 150.2 83 218.2 32.1 66.7-50 81.2-146.6 31-214.8C245.2 12.6 150.6-5.3 78.7 46z"/><path class="st1" d="M78.7 46c71.9-51.2 166.6-33.4 215.6 33.3 50.2 68.1 35.7 164.8-31 214.7-68 50.9-166 39.4-218.3-32.1C-5.1 193 9.3 97.9 78.7 46zM39.8 217.9c5.6 16.4 14.4 31.4 26 44.2 31.8 34.6 71.5 50.5 118.3 46.1 94.8-8.8 152.5-112.1 111.4-197.7-32.1-67.3-114.4-100.1-186.3-65.3-35.7 17.3-59.3 45.5-71.7 83.1-1 3-1.3 4.6 3 4.8 17.3 1 34.5 2.3 52 3.5 2.7.2 5.2-.6 7.1-2.5 21.1-18.6 45.3-31.3 72.2-39.3 9.9-2.9 18.6-1 26.4 6.1 11.8 10.6 22.7 22.1 32.6 34.4 1.9 2.4 2.4 4.7 1.3 7.4-1.4 3.4-3.9 3.8-6.4 1.2-10.3-10.4-21.1-20.3-32.4-29.6-.6-.5-1.3-1.1-1.9-1.6-1-.7-2-2-3.3-.4-1.4 1.7.4 2.3 1.2 3.1 7.4 6.5 14.9 12.9 22.1 19.5 6.8 6.1 13.1 12.7 18.9 19.8 4.1 5.2 3.6 10.8 2.1 16.5-.9 2.9-2.2 4.4-5 1-10.4-12.3-22.9-22.6-35.6-32.5-.1-.1-.3-.3-.4-.3-1.5-.4-2.6-3.6-4.5-1.3-2.1 2.4 1.1 2.9 2.2 3.9 6.4 5.4 13.1 10.6 19.5 16.2 7.5 6.6 14.8 13.4 20.4 21.8 4.1 6.2 3.6 12-1.5 17.2-2.2 2.1-3.9 2.5-6-.4-8.6-12-19.1-22.2-29.8-32.2-1.3-1.1-2.3-3.7-4.4-1.4-1.8 2.1.8 2.8 1.8 3.8 10.4 10.1 20.9 20.1 29.6 31.7 8.1 11 4.8 23-7.8 28.7-6.1 2.9-12.7 4.9-19.5 6-17.4 2.8-25.8-3-33.7-18.9-1.3-2.7-1.9-6-2.7-9-.9-3 .1-4.5 3.5-3.8 2.7.6 5.4 1 8.3 1.6s6.3.9 4.4 5.5c-.3 1.2.2 2.4 1.4 2.9 1.7.9 1.7-.9 2.1-1.8.9-2.7 2.6-2.7 4.8-1.9 3.8 1.3 7.5 2.6 11.5 3.2 1.2.1 2.3.3 2.8-1.3.5-1.7-.4-2.1-1.7-2.3-10.4-1.6-17-8.5-23.4-15.9-1.3-1.5-3.1-5-5.1-3.2-2.4 2.4 1.4 3.9 2.7 5.8 1.2 1.9 3.2 3.3 5.8 6.1-6.4-1-11.4-2.3-16.6-2.6-2.8-.2-.3-3.2-1.5-4.4-4.9 5.4-6.5 15.5-3.2 22.2.8 1.8.9 1.8 2-.2s1.8.7 2.2 1.5c2.3 4.9 5.4 9.2 9.2 13 5.5 5.6 12.2 7.6 19.9 7.6 7-.1 13.9-1.5 20.5-3.8 1.2-.4 2.7-1.3 3.5.3.9 1.8 0 3.4-1.7 4.1-4 1.8-7.9 3.5-12 4.9-10.8 3.6-21.6 6.8-32.4 10.2-4.6 1.4-8.9.9-13.3-.4-13-3.9-23.3-11.8-31.7-22.3-3-3.6-6.2-6.9-9.1-10.6-1.2-1.6-3.1-2.5-5.1-2.4-20.9.1-41.7.2-63 .4z"/><path class="st0" d="M39.6 217.4c21.4-.1 42.2-.1 63.3.1 2-.1 3.9.9 5.1 2.5 2.9 3.5 6.1 7 9 10.6 8.3 10.5 18.5 18.5 31.6 22.4 4.4 1.4 8.8 1.9 13.3.5 10.9-3.3 21.7-6.5 32.5-10 4.1-1.4 8.1-3.2 12-4.9 1.7-.7 2.6-2.3 1.7-4.1-.9-1.6-2.3-.7-3.5-.3-6.6 2.3-13.5 3.5-20.5 3.7-7.7 0-14.4-2-19.9-7.7-3.8-3.8-7-8.2-9.2-13-.4-.8-1.1-3.5-2.2-1.5-1.2 2.1-1.1 1.9-2 .2-3.2-6.6-1.7-16.8 3.3-22.2 1.1 1.3-1.4 4.2 1.4 4.4 5.2.4 10.2 1.7 16.6 2.7-2.7-2.8-4.6-4.4-5.8-6.2s-5.1-3.5-2.7-5.8c2-1.8 3.8 1.7 5.1 3.2 6.3 7.5 13 14.3 23.3 16 1.2.2 2.1.7 1.6 2.3s-1.5 1.5-2.8 1.3c-4-.6-7.7-2-11.5-3.3-2.2-.7-3.9-.7-4.8 1.9-.4.9-.4 2.6-2.2 1.8-1.2-.4-1.7-1.7-1.4-2.9 2-4.6-1.5-4.9-4.3-5.5-2.7-.6-5.5-1-8.3-1.6-3.3-.8-4.3.8-3.5 3.8s1.3 6.2 2.7 9c7.8 15.8 16.2 21.7 33.6 19 6.8-1.1 13.4-3.1 19.6-5.9 12.6-5.7 16.1-17.7 7.9-28.7-8.6-11.7-19-21.7-29.4-31.8-1-1-3.6-1.7-1.8-3.8 2.1-2.3 3.2.3 4.4 1.4 10.6 10.1 21.2 20.3 29.7 32.3 2.1 3.1 3.9 2.6 6 .4 5.1-5.2 5.5-11.1 1.5-17.2-5.6-8.4-12.8-15.3-20.3-21.9-6.4-5.6-13.2-10.9-19.5-16.4-1.1-.9-4.2-1.4-2.2-3.9 1.8-2.2 3 .9 4.5 1.3.1.1.3.1.4.3 12.6 10 25 20.3 35.5 32.7 2.8 3.3 4.3 1.9 5-1 1.5-5.7 2-11.2-2.1-16.5-5.8-7.2-12.1-13.8-18.9-19.9-7.2-6.7-14.7-13.1-22-19.6-.8-.8-2.6-1.4-1.1-3.1 1.3-1.5 2.3-.2 3.3.5.6.5 1.3 1.1 1.9 1.6 11.3 9.4 22 19.2 32.3 29.7 2.6 2.6 4.9 2.2 6.4-1.2 1.1-2.7.5-5-1.3-7.4-9.8-12.4-20.6-24-32.4-34.6-7.9-7-16.5-9.1-26.4-6.2-26.9 7.8-51.2 20.5-72.4 39-1.9 1.8-4.5 2.8-7.1 2.5-17.3-1.4-34.6-2.7-51.9-3.8-4.3-.3-4-1.7-3-4.8C50.5 90.3 74 62.1 109.8 45c72-34.5 154.3-1.3 186.1 66 40.7 85.7-17.5 188.8-112.3 197.2-46.9 4.1-86.5-11.9-118.1-46.6-11.7-12.8-20.4-27.8-25.9-44.2zm204.7 53.3c30.7-22 47.8-52.1 51.9-89 2.7-24.2-2-48.6-13.3-70.1-17.3-32.5-43.6-54.2-79.1-63.7-30.4-8.1-60.2-5.5-88.7 9-27.8 14.2-47.7 35.5-60.1 64-1.9 4.4-1.3 5.2 3.5 5.3 9.3.2 18.6.9 27.8 2.2 6.5 1 11.4-.9 15.8-5.1 11.6-11.1 25.6-18.1 40-24.7 7.8-3.5 15.9-6.7 24-9.6 15.1-5.4 28.1-3.1 39.9 8.2 11.1 10.4 21.6 21.6 31.2 33.4 4.6 5.6 5.4 11.7.7 17.7-1.3 1.7-.6 2.6.2 3.9 5.1 8 4.2 16.3.1 24.5-.8 1.2-.9 2.8-.2 4.1 4 8.1.8 14.9-4.6 20.8-1.8 1.7-2.7 4.1-2.6 6.5.4 10-3.2 17.8-12 23-1.7 1-2.7 2.2-2.6 4.4.3 5.2-3.2 7.9-7.3 9.6-15.6 6.4-31.8 11-48 15.2-6.8 1.7-13.6-.7-19.9-3.4-10.9-4.6-20.3-11.2-27.4-20.9-2.3-3-4.9-5.8-7.5-8.6-2-2.2-4.9-3.6-7.9-3.4-12 .3-24 .1-36 .1-2.5 0-4.9-.2-2.7 3.7 10.3 18.6 23.7 34.4 41.7 46.1 13.5 8.9 28.5 15.2 44.4 18.4 27.5 5.5 53.9 2.3 79.2-9.6 6.9-3.3 13.4-7.2 19.5-12z"/><path class="st2" d="M244.7 270.4c-6.1 4.8-12.5 8.8-19.6 12-25.3 12-51.6 15.3-79.2 9.9-15.9-3.2-30.9-9.4-44.5-18.3-17.9-11.7-31.4-27.4-41.9-45.9-2.3-3.9.1-3.7 2.7-3.7 12.1 0 24.1 0 36-.3 3.1-.1 6 1.1 7.9 3.4 2.6 2.8 5.2 5.6 7.5 8.6 7.2 9.6 16.6 16.2 27.5 20.8 6.3 2.7 13.1 5 19.9 3.3 16.2-4.3 32.4-8.9 47.9-15.6 4.1-1.6 7.5-4.4 7.2-9.6-.1-2.2.9-3.4 2.6-4.4 8.9-5.1 12.4-13.1 11.9-23-.1-2.4.8-4.8 2.6-6.5 5.4-5.8 8.5-12.7 4.5-20.8-.7-1.2-.6-2.9.2-4.1 4.1-8.2 4.9-16.3-.2-24.5-.8-1.3-1.5-2.2-.2-3.9 4.6-6 3.8-12.1-.8-17.7-9.9-11.8-20.3-22.8-31.4-33.3-11.8-11.3-24.9-13.5-39.9-8-8.1 2.9-16.1 6.1-24 9.7-14.3 6.6-28.3 13.7-39.9 24.8-4.4 4.2-9.3 6.1-15.8 5.2-9.2-1.3-18.4-2-27.8-2.1-4.8-.1-5.3-1-3.5-5.3 12.3-28.5 32-50 59.8-64.2 28.5-14.6 58.2-17.4 88.7-9.4 35.6 9.3 62 30.9 79.4 63.4 11.7 21.4 16.5 45.8 13.9 69.9-3.9 37.3-20.8 67.6-51.5 89.6z"/></svg>