<svg id="rock" xmlns="http://www.w3.org/2000/svg" viewBox="0 0 340.2 340.2"><style>.st0{fill:#457491}.st1{fill:#fcfcfd}.st2{fill:#77afbf}</style><title>rock</title><path class="st0" d="M169.7 2.1c92.6 0 167.5 75.1 167.4 167.8-.2 91.4-74.3 167.3-167.8 167.2C76.9 337 2 262.1 2.1 169.7v-.5C2.2 76.9 77.3 2.1 169.7 2.1zm.4 14.1c-88.3 1-154.2 71.2-154.5 154-.3 84.7 68.4 154.2 151.7 155.2 84.9 1 157.3-66 157.3-154.6 0-85.3-67.8-153.6-154.5-154.6z"/><path class="st1" d="M170.1 16.2c86.7 1 154.4 69.3 154.5 154.5 0 88.6-72.4 155.6-157.3 154.6-83.3-1-152-70.5-151.7-155.1.3-82.8 66.3-153 154.5-154zm132.8 115.9c-17.3 12.4-34.2 24.6-51.1 36.8-1.7 1.1-2.7 3-2.7 5-.2 4.7-.8 9.3-1.1 13.9-.6 13.5-4.2 25.9-12.5 36.7-2.8 3.6-6 6.6-10.5 8.2-10.7 3.6-21.4 7.4-32.2 10.9-4.1 1.3-8.3 2.2-12.6 3.1-1.8.4-3.5-.3-3.8-2.3-.3-1.8 1.4-1.9 2.6-2.3 6.7-2 13.1-5 18.8-9 6.2-4.5 10.5-10.1 11.6-17.9.8-5.3.8-10.6-.2-15.9-.2-.9-1.2-3.5.9-2.5s2.1.9 1.7-1c-1.3-7.3-8.5-14.6-15.7-16-.3 1.7 3.5 2.6 1.4 4.4-4 3.3-7.3 7.3-11.9 11.9.5-3.8 1.2-6.1 1.1-8.4s2.1-5.8-1.2-6.3c-2.7-.3-2.1 3.6-2.2 5.6-.8 9.8-2.1 19.2-9.5 26.6-.9.9-1.4 1.8 0 2.8s2.1.2 3-.6c2.9-2.8 5.1-6.1 7.4-9.4 1.3-1.9 2.7-2.9 5-1.3.8.5 1.9 2 2.8.2.7-1.1.4-2.4-.6-3.2-4.3-2.6-1.7-4.8.3-7s3.9-4.1 5.8-6.2c2.3-2.6 4-1.9 5.1 1s2.6 5.9 3.1 8.9c3 17.5-.4 27.1-16.1 35.1-6.1 3.1-12.6 5.4-19.3 6.7-13.5 2.8-23.3-4.9-23.2-18.6.2-14.5 2.8-28.8 5.2-43 .2-1.4 1.9-3.5-.8-4.1-3-.6-2.3 2.1-2.7 3.7-2.7 14.4-5.2 28.8-5.1 43.6 0 3.6-1.6 4.3-4.6 3.8-7.2-1.2-11-5.6-11.3-13-.4-10.1 1.4-19.9 3.6-29.6 1.9-8.3 4.2-16.4 6.2-24.6.3-1.4 2.6-3.7-.5-4.5-2.9-.7-1.9 2.5-2.9 3.7-.1.1-.1.3-.1.5-4.4 15.5-8.4 31.2-9.6 47.3-.3 4.4-2.2 4-4.6 2.1-4.6-3.7-8.3-7.9-8-14.6.5-9.1 1.7-18.2 3.6-27.2 1.9-9.6 4.2-19.2 6.3-28.8.2-1.1 1.3-2.7-.9-3.2-2-.5-2.1 1.1-2.4 2.3l-.6 2.4c-3.6 14.2-6.5 28.5-8.7 43-.5 3.6-2.7 4.7-5.9 2.8-2.5-1.5-3.4-3.7-3.3-6.7.7-15.8 2.7-31.5 6-47 2.1-10.3 8-17 17.7-20.5 26.4-9.4 53.5-13.4 81.5-10.8 2.6.4 5.2-.4 7.2-2.1C225.8 86.2 238.9 75 252.3 64c3.3-2.7 2.2-3.8-.4-5.6-32.2-23-67.9-31.9-106.9-24.8C66.4 47.9 19.3 122.9 33 196.2c17.4 93.3 124.9 142.7 206.6 93.9 40.4-24.1 63.1-60.3 68.3-107 1.9-17.2.2-34.5-5-51z"/><path class="st0" d="M302.9 132.1c5.2 16.5 6.9 33.8 4.9 51-5.2 46.7-27.9 82.8-68.3 107-81.7 48.8-189.3-.6-206.6-93.9C19.2 123 66.4 47.9 145 33.6c39-7.1 74.6 1.9 106.9 24.8 2.6 1.9 3.7 2.9.4 5.6-13.4 11-26.6 22.2-39.8 33.5-1.9 1.8-4.6 2.5-7.2 2.1-28-2.6-55.1 1.4-81.5 10.8-9.7 3.4-15.5 10.2-17.7 20.5-3.3 15.5-5.3 31.2-6 47-.1 3 .8 5.2 3.3 6.7 3.2 1.9 5.3.8 5.9-2.8 2.2-14.5 5.1-28.8 8.7-43l.6-2.4c.4-1.2.4-2.8 2.4-2.3 2.2.5 1.1 2.1.9 3.2-2.1 9.6-4.4 19.1-6.3 28.8-1.9 8.9-3.2 18-3.6 27.2-.2 6.7 3.4 10.9 8 14.6 2.3 1.9 4.3 2.2 4.6-2.1 1.2-16.2 5.2-31.8 9.6-47.3 0-.2.1-.3.1-.5 1-1.2.1-4.4 2.9-3.7 3.1.8.9 3.1.5 4.5-1.9 8.2-4.3 16.4-6.2 24.7-2.2 9.7-4 19.6-3.6 29.6.3 7.3 4.1 11.8 11.3 13 3 .5 4.7-.1 4.6-3.8-.2-14.7 2.4-29.2 5.1-43.6.3-1.6-.3-4.3 2.7-3.7 2.7.6 1 2.7.8 4.1-2.5 14.3-5.1 28.5-5.2 43-.2 13.7 9.7 21.4 23.2 18.6 6.7-1.4 13.2-3.6 19.3-6.7 15.7-8 19-17.7 16.1-35.1-.5-3.1-2-6-3.1-8.9s-2.8-3.6-5.1-1c-1.9 2.1-3.9 4.1-5.8 6.2s-4.6 4.4-.3 7c1 .8 1.3 2.1.6 3.2-1 1.7-2 .3-2.8-.2-2.3-1.6-3.6-.6-5 1.3-2.3 3.3-4.5 6.6-7.4 9.4-.9.9-1.7 1.6-3 .6s-.9-1.9 0-2.8c7.4-7.4 8.8-16.8 9.5-26.6.2-2-.4-5.9 2.2-5.6 3.3.4 1.1 4.1 1.2 6.3s-.5 4.6-1.1 8.4c4.6-4.6 7.9-8.6 11.9-11.9 2.2-1.8-1.6-2.7-1.4-4.4 7.2 1.4 14.4 8.8 15.7 16 .3 1.9.4 2-1.7 1s-1.1 1.6-.9 2.5c1 5.2 1 10.6.2 15.9-1.1 7.8-5.4 13.4-11.6 17.9-5.8 4-12.1 7-18.8 9-1.2.4-2.9.5-2.6 2.3.3 2 2 2.7 3.8 2.3 4.2-.9 8.5-1.8 12.6-3.1 10.8-3.5 21.4-7.2 32.2-10.9 4.5-1.5 7.7-4.5 10.5-8.2 8.3-10.8 11.9-23.3 12.5-36.7.2-4.6.8-9.3 1.1-13.9 0-2 1-3.9 2.7-5 16.8-12.2 33.7-24.4 51-36.9zM168.4 295.3c7.7.3 15.3-.3 22.9-1.7 27.5-5.2 50.7-18.1 69.8-38.7 11-11.9 19.5-25.8 25.2-40.9 7.7-20 9.3-40.7 6.8-61.8-.5-4.5-2.3-2.9-4.4-1.4-9.7 7-19.3 14.2-29.2 21-2.5 1.6-4.1 4.4-4.4 7.4-.5 3.8-.9 7.6-1 11.4-.1 12-3.8 22.9-9.9 33-3.5 5.9-7.6 11.8-14.1 14.4-15.6 6.1-31.4 11.9-47.8 15.8-4.3 1-8.7.9-11.5-3.5-1.2-1.9-2.7-2.2-4.7-2-10.2 1-17.7-3.3-23.2-11.6-1.3-2-3.5-3.4-5.9-3.7-7.8-1.6-14.4-5.3-15.9-14.2-.2-1.5-1.2-2.7-2.6-3.2-8.1-4.2-13.7-10.4-14.3-19.9-.1-1.5-.1-2.7-2.1-3.3-7.3-2.1-10.2-7.5-9.8-14.8.9-15.2 2.8-30.4 5.7-45.4 2.9-16.1 12.1-25.6 27.5-30 8.3-2.4 16.7-4.6 25.1-6.3 15.5-3.1 31-5.6 46.9-3.5 6 .8 11.1-.5 15.8-5.1 6.7-6.5 13.8-12.5 21.2-18.1 3.8-2.9 3.8-3.9-.3-6.3-26.8-15.8-55.4-21.4-86.2-16.6-31.6 5-57.3 20.3-77.2 44.7-23.2 28.5-31.8 61.5-26.7 98 3.2 24.1 13.7 46.6 30 64.6 25 27.5 56.5 41.9 94.3 41.7z"/><path class="st2" d="M168.4 295.3c-37.8.3-69.3-14.2-94.4-42-16.3-18-26.8-40.5-30-64.6-5.1-36.5 3.5-69.5 26.7-98C90.6 66.3 116.3 51 147.9 46c30.8-4.9 59.4.8 86.2 16.6 4 2.4 4.1 3.4.3 6.3-7.5 5.6-14.5 11.6-21.2 18.1-4.7 4.6-9.8 5.9-15.8 5.1-15.9-2.1-31.4.4-46.9 3.5-8.5 1.7-16.8 3.9-25.1 6.3-15.4 4.4-24.6 13.9-27.5 30-2.8 15-4.7 30.1-5.7 45.4-.4 7.2 2.5 12.6 9.8 14.8 2 .6 2 1.8 2.1 3.3.7 9.6 6.2 15.7 14.3 19.9 1.4.5 2.4 1.8 2.6 3.2 1.5 8.9 8.1 12.6 15.9 14.2 2.4.3 4.6 1.7 5.9 3.7 5.5 8.3 13 12.7 23.2 11.6 2-.2 3.5.2 4.7 2 2.8 4.4 7.2 4.6 11.5 3.5 16.4-3.9 32.2-9.7 47.8-15.8 6.5-2.6 10.6-8.5 14.1-14.4 6.1-10.1 9.8-21 9.9-33 .1-3.8.5-7.6 1-11.4.2-3 1.8-5.7 4.4-7.4 9.8-6.8 19.5-13.9 29.2-21 2.1-1.5 3.9-3.1 4.4 1.4 2.4 21.1.8 41.8-6.8 61.8-5.7 15.2-14.2 29.1-25.2 41-19.1 20.6-42.3 33.5-69.8 38.7-7.5 1.6-15.1 2.2-22.8 1.9z"/></svg>