<svg id="rock" xmlns="http://www.w3.org/2000/svg" viewBox="0 0 340.2 340.2"><style>.st0{fill:#457491}.st1{fill:#fcfcfd}.st2{fill:#77afbf}</style><title>rock</title><path class="st0" d="M268.5 34.4c74.8 54.6 91 159.4 36.3 234.2-54.2 73.7-158.8 91.3-234.2 36.1C-4 250.1-20.3 145.5 34.3 70.9c.1-.2.2-.2.3-.4C89.1-4 193.8-20.1 268.5 34.4zm-8 11.6C188.6-5.3 94 12.6 44.9 79.3c-50.2 68.2-35.7 164.8 31 214.8 68 50.9 166 39.5 218.2-32.1 50.3-68.9 35.8-164.1-33.6-216z"/><path class="st1" d="M260.5 46c69.4 51.9 83.8 147 33.7 215.9-52.3 71.5-150.3 83-218.3 32.1-66.7-49.9-81.2-146.6-31-214.7C93.9 12.6 188.6-5.2 260.5 46zm38.9 171.9c-21.3-.2-42.1-.3-63-.4-2-.1-3.9.8-5.1 2.4-2.9 3.7-6.1 7-9.1 10.6-8.4 10.5-18.7 18.4-31.7 22.3-4.4 1.3-8.7 1.8-13.3.4-10.8-3.4-21.6-6.6-32.4-10.2-4.1-1.4-8-3.1-12-4.9-1.7-.7-2.6-2.3-1.7-4.1.8-1.6 2.3-.7 3.5-.3 6.6 2.3 13.5 3.7 20.5 3.8 7.7 0 14.4-2 19.9-7.6 3.8-3.8 6.9-8.1 9.2-13 .4-.8 1.1-3.5 2.2-1.5s1.2 2 2 .2c3.3-6.7 1.7-16.8-3.2-22.2-1.2 1.2 1.3 4.2-1.5 4.4-5.2.3-10.2 1.6-16.6 2.6 2.6-2.8 4.6-4.2 5.8-6.1 1.3-1.9 5.1-3.4 2.7-5.8-2-1.8-3.8 1.7-5.1 3.2-6.4 7.4-13 14.3-23.4 15.9-1.3.2-2.2.6-1.7 2.3.5 1.6 1.6 1.4 2.8 1.3 4-.6 7.7-1.9 11.5-3.2 2.2-.8 3.9-.8 4.8 1.9.4.9.4 2.7 2.1 1.8 1.2-.5 1.7-1.7 1.4-2.9-1.9-4.6 1.5-4.9 4.4-5.5s5.6-1 8.3-1.6c3.4-.7 4.4.8 3.5 3.8-.8 3-1.4 6.3-2.7 9-7.9 15.9-16.3 21.7-33.7 18.9-6.8-1.1-13.4-3.1-19.5-6-12.6-5.7-15.9-17.7-7.8-28.7 8.7-11.6 19.2-21.6 29.6-31.7 1-1 3.6-1.7 1.8-3.8-2.1-2.3-3.1.3-4.4 1.4-10.7 10-21.2 20.2-29.8 32.2-2.1 2.9-3.8 2.5-6 .4-5.1-5.2-5.6-11-1.5-17.2 5.6-8.4 12.9-15.2 20.4-21.8 6.4-5.6 13.1-10.8 19.5-16.2 1.1-1 4.3-1.5 2.2-3.9-1.9-2.3-3 .9-4.5 1.3-.1 0-.3.2-.4.3-12.7 9.9-25.2 20.2-35.6 32.5-2.8 3.4-4.1 1.9-5-1-1.5-5.7-2-11.3 2.1-16.5 5.8-7.1 12.1-13.7 18.9-19.8 7.2-6.6 14.7-13 22.1-19.5.8-.8 2.6-1.4 1.2-3.1-1.3-1.6-2.3-.3-3.3.4-.6.5-1.3 1.1-1.9 1.6-11.3 9.3-22.1 19.2-32.4 29.6-2.5 2.6-5 2.2-6.4-1.2-1.1-2.7-.6-5 1.3-7.4 9.9-12.3 20.8-23.8 32.6-34.4 7.8-7.1 16.5-9 26.4-6.1 26.9 8 51.1 20.7 72.2 39.3 1.9 1.9 4.4 2.7 7.1 2.5 17.5-1.2 34.7-2.5 52-3.5 4.3-.2 4-1.8 3-4.8-12.4-37.6-36-65.8-71.7-83.1-71.9-34.8-154.2-2-186.3 65.3-41.1 85.6 16.6 188.9 111.4 197.7 46.8 4.4 86.5-11.5 118.3-46.1 11.6-12.8 20.4-27.8 26-44.2z"/><path class="st0" d="M299.6 217.4c-5.5 16.4-14.2 31.4-25.9 44.2-31.6 34.7-71.2 50.7-118.1 46.6C60.8 299.8 2.6 196.7 43.3 111 75.1 43.7 157.4 10.5 229.4 45c35.8 17.1 59.3 45.3 72.1 82.8 1 3.1 1.3 4.5-3 4.8-17.3 1.1-34.6 2.4-51.9 3.8-2.6.3-5.2-.7-7.1-2.5-21.2-18.5-45.5-31.2-72.4-39-9.9-2.9-18.5-.8-26.4 6.2-11.8 10.6-22.6 22.2-32.4 34.6-1.8 2.4-2.4 4.7-1.3 7.4 1.5 3.4 3.8 3.8 6.4 1.2 10.3-10.5 21-20.3 32.3-29.7.6-.5 1.3-1.1 1.9-1.6 1-.7 2-2 3.3-.5 1.5 1.7-.3 2.3-1.1 3.1-7.3 6.5-14.8 12.9-22 19.6-6.8 6.1-13.1 12.7-18.9 19.9-4.1 5.3-3.6 10.8-2.1 16.5.7 2.9 2.2 4.3 5 1 10.5-12.4 22.9-22.7 35.5-32.7.1-.2.3-.2.4-.3 1.5-.4 2.7-3.5 4.5-1.3 2 2.5-1.1 3-2.2 3.9-6.3 5.5-13.1 10.8-19.5 16.4-7.5 6.6-14.7 13.5-20.3 21.9-4 6.1-3.6 12 1.5 17.2 2.1 2.2 3.9 2.7 6-.4 8.5-12 19.1-22.2 29.7-32.3 1.2-1.1 2.3-3.7 4.4-1.4 1.8 2.1-.8 2.8-1.8 3.8-10.4 10.1-20.8 20.1-29.4 31.8-8.2 11-4.7 23 7.9 28.7 6.2 2.8 12.8 4.8 19.6 5.9 17.4 2.7 25.8-3.2 33.6-19 1.4-2.8 1.9-6 2.7-9s-.2-4.6-3.5-3.8c-2.8.6-5.6 1-8.3 1.6-2.8.6-6.3.9-4.3 5.5.3 1.2-.2 2.5-1.4 2.9-1.8.8-1.8-.9-2.2-1.8-.9-2.6-2.6-2.6-4.8-1.9-3.8 1.3-7.5 2.7-11.5 3.3-1.3.2-2.3.3-2.8-1.3s.4-2.1 1.6-2.3c10.3-1.7 17-8.5 23.3-16 1.3-1.5 3.1-5 5.1-3.2 2.4 2.3-1.5 4-2.7 5.8s-3.1 3.4-5.8 6.2c6.4-1 11.4-2.3 16.6-2.7 2.8-.2.3-3.1 1.4-4.4 5 5.4 6.5 15.6 3.3 22.2-.9 1.7-.8 1.9-2-.2-1.1-2-1.8.7-2.2 1.5-2.2 4.8-5.4 9.2-9.2 13-5.5 5.7-12.2 7.7-19.9 7.7-7-.2-13.9-1.4-20.5-3.7-1.2-.4-2.6-1.3-3.5.3-.9 1.8 0 3.4 1.7 4.1 3.9 1.7 7.9 3.5 12 4.9 10.8 3.5 21.6 6.7 32.5 10 4.5 1.4 8.9.9 13.3-.5 13.1-3.9 23.3-11.9 31.6-22.4 2.9-3.6 6.1-7.1 9-10.6 1.2-1.6 3.1-2.6 5.1-2.5 21.1-.2 41.9-.2 63.3-.1zM94.9 270.7c6.1 4.8 12.6 8.7 19.5 12 25.3 11.9 51.7 15.1 79.2 9.6 15.9-3.2 30.9-9.5 44.4-18.4 18-11.7 31.4-27.5 41.7-46.1 2.2-3.9-.2-3.7-2.7-3.7-12 0-24 .2-36-.1-3-.2-5.9 1.2-7.9 3.4-2.6 2.8-5.2 5.6-7.5 8.6-7.1 9.7-16.5 16.3-27.4 20.9-6.3 2.7-13.1 5.1-19.9 3.4-16.2-4.2-32.4-8.8-48-15.2-4.1-1.7-7.6-4.4-7.3-9.6.1-2.2-.9-3.4-2.6-4.4-8.8-5.2-12.4-13-12-23 .1-2.4-.8-4.8-2.6-6.5-5.4-5.9-8.6-12.7-4.6-20.8.7-1.3.6-2.9-.2-4.1-4.1-8.2-5-16.5.1-24.5.8-1.3 1.5-2.2.2-3.9-4.7-6-3.9-12.1.7-17.7 9.6-11.8 20.1-23 31.2-33.4C145 85.9 158 83.6 173.1 89c8.1 2.9 16.2 6.1 24 9.6 14.4 6.6 28.4 13.6 40 24.7 4.4 4.2 9.3 6.1 15.8 5.1 9.2-1.3 18.5-2 27.8-2.2 4.8-.1 5.4-.9 3.5-5.3-12.4-28.5-32.3-49.8-60.1-64-28.5-14.5-58.3-17.1-88.7-9-35.5 9.5-61.8 31.2-79.1 63.7-11.3 21.5-16 45.9-13.3 70.1 4.1 36.9 21.2 67 51.9 89z"/><path class="st2" d="M94.5 270.4c-30.7-22-47.6-52.3-51.5-89.6-2.6-24.1 2.2-48.5 13.9-69.9 17.4-32.5 43.8-54.1 79.4-63.4 30.5-8 60.2-5.2 88.7 9.4 27.8 14.2 47.5 35.7 59.8 64.2 1.8 4.3 1.3 5.2-3.5 5.3-9.4.1-18.6.8-27.8 2.1-6.5.9-11.4-1-15.8-5.2-11.6-11.1-25.6-18.2-39.9-24.8-7.9-3.6-15.9-6.8-24-9.7-15-5.5-28.1-3.3-39.9 8-11.1 10.5-21.5 21.5-31.4 33.3-4.6 5.6-5.4 11.7-.8 17.7 1.3 1.7.6 2.6-.2 3.9-5.1 8.2-4.3 16.3-.2 24.5.8 1.2.9 2.9.2 4.1-4 8.1-.9 15 4.5 20.8 1.8 1.7 2.7 4.1 2.6 6.5-.5 9.9 3 17.9 11.9 23 1.7 1 2.7 2.2 2.6 4.4-.3 5.2 3.1 8 7.2 9.6 15.5 6.7 31.7 11.3 47.9 15.6 6.8 1.7 13.6-.6 19.9-3.3 10.9-4.6 20.3-11.2 27.5-20.8 2.3-3 4.9-5.8 7.5-8.6 1.9-2.3 4.8-3.5 7.9-3.4 11.9.3 23.9.3 36 .3 2.6 0 5-.2 2.7 3.7-10.5 18.5-24 34.2-41.9 45.9-13.6 8.9-28.6 15.1-44.5 18.3-27.6 5.4-53.9 2.1-79.2-9.9-7.1-3.2-13.5-7.2-19.6-12z"/></svg>