<svg xmlns="http://www.w3.org/2000/svg" viewBox="0 0 63.2 90"><path d="M57.2 36.5c-.3 0-.7-.1-1-.1-1.1 0-2.1.3-3 .7V37c0-3.4-2.5-6.4-6-6.9-.3 0-.7-.1-1-.1-1.1 0-2.2.3-3.1.8L46 8c0-.3.1-.6.1-1 0-3.4-2.5-6.4-6-6.9-.3 0-.7-.1-1-.1-3.4 0-6.4 2.5-6.9 6l-5 33.2-8.7-31.8c-.8-3.1-3.7-5.2-6.8-5.2-.6 0-1.2.1-1.8.2-3.1.9-5.2 3.7-5.2 6.8 0 .6.1 1.2.2 1.8l5.8 24.2c-.6.1-1.2.3-1.9.5-.3.1-.5.2-.8.3-.5.2-.8.7-.8 1.2v.2C7 38.6 6 44.5.2 51.8c-.1.1-.2.3-.2.5v.6c0 .1.7 9.1 3.7 18.2 1.5 4.6 3.5 9.2 6.4 12.7C13 87.4 16.9 90 21.8 90h25.1C55.8 90 63 82.8 63 73.9l.2-29.6c0-.3.1-.7.1-1-.1-3.3-2.6-6.3-6.1-6.8zm-11-3.5h.6c2 .3 3.5 2 3.5 4v.6l-.4 3-1.6 11.7-.3 1.4-.3 2.4v.1c-.3 2-2.1 3.4-4 3.4h-.6c-1.8-.3-3.1-1.6-3.5-3.3 0-.2-.1-.5-.1-.7V55l.9-6.3 1.1-8 .6-4.1c.1-.4.2-.8.3-1.1v-.1c.8-1.5 2.2-2.4 3.8-2.4zM15.3 58.3s0-.1 0 0c-.1-.1-.2-.2-.2-.4v-.1c-.1-.3-.2-.8-.2-1.4v-1.3c0-.1 0-.2.1-.3 0-.2.1-.3.1-.5 0-.1.1-.3.1-.4 0-.1 0-.1.1-.2l.9 4.9-.9-.3zm44.8 15.6c0 7.3-5.9 13.1-13.2 13.2H21.8c-3.8 0-6.8-1.9-9.4-5C8.6 77.4 6.1 70 4.7 63.8c-.7-3.1-1.2-5.9-1.4-7.9-.2-1.2-.3-2.1-.3-2.7 0 0 .1-.2.2-.3.2-.3.4-.5.6-.8.1-.1.2-.3.3-.5.2-.3.3-.5.5-.7.1-.2.2-.3.3-.5.2-.2.3-.5.5-.7.1-.2.2-.3.3-.5.1-.2.3-.5.4-.7.1-.1.2-.3.2-.4.1-.2.3-.5.4-.7.2-.3.3-.4.3-.5.1-.2.2-.5.4-.7.1-.1.1-.2.2-.4s.2-.5.3-.7c0-.1.1-.2.1-.3.1-.2.2-.5.3-.7 0-.1.1-.2.1-.3.1-.2.2-.4.3-.7 0-.1.1-.2.1-.2.1-.2.2-.4.2-.6 0-.1 0-.1.1-.2.1-.2.1-.4.2-.6 0-.1 0-.1.1-.2.1-.2.1-.4.2-.6v-.1c.1-.2.1-.4.1-.6v-.1c0-.2.1-.3.1-.5v-.2c0-.1.1-.2.1-.3 0-.2.1-.3.1-.4.5-.2 1-.3 1.4-.4h.6c.3 0 .6 0 .9.1.4.1.7.3.9.6.1.1.2.2.3.4.3.4.5.9.7 1.5.4 1.4.6 3.1.6 3.9v.4c-.1.2-.1.3-.2.5-.2.3-.3.7-.5 1-.3.7-.6 1.3-.8 1.9-1.5 3.6-2 6.2-2 8.1v.9c.2 2.2 1.4 3.3 1.9 3.6.1.1.2.1.2.1h.1l2.8.8.5.1c.1 0 .3.1.4.1h.3c.4 0 2.5.1 4.8.8 2.6.8 5.4 2.4 6.7 5.3.2.5.8.8 1.3.8.2 0 .4 0 .6-.1.7-.3 1-1.2.7-1.9-1.9-4-5.5-6-8.5-6.9-1.9-.6-3.6-.8-4.7-.9l-.9-4.9-.4-2.1-.7-3.7c.1-.3.3-.6.4-.9.2-.5.5-1 .7-1.6v-.1c.1-.2.1-.3.1-.5v-2.3c0-.2 0-.4-.1-.6-.2-1.5-.6-3.3-1.7-4.9-.2-.3-.4-.5-.7-.8-.6-.6-1.2-1-2.1-1.3L7.8 10.3c-.1-.4-.2-.7-.2-1.1 0-1.8 1.2-3.5 3-4 .4-.1.7-.1 1.1-.1 1.8 0 3.5 1.2 4 3L25.2 43l.7 2.4c0 .2.1.3.2.4.3.5.9.7 1.5.6h.1c.8.1 1.5-.4 1.6-1.2l.1-.9.5-3.4L35 6.4c.3-2.1 2-3.5 4.1-3.5h.6c2 .3 3.5 2 3.5 4.1v.6l-6.5 47c0 .3-.1.6-.1 1s0 .8.1 1.2c.5 2.9 2.8 5.3 5.9 5.7.3 0 .7.1 1 .1 3 0 5.6-1.9 6.6-4.6 1 .9 2.3 1.6 3.8 1.8.3 0 .6.1.9.1 2 0 3.9-.9 5.2-2.3v16.3c-.1 0 0 0 0 0zm.2-29.9l-.3 1.7-.1 1-.7 4.8-.3 1.8c0 .3-.1.5-.2.8-.6 1.6-2.1 2.8-3.9 2.8h-.6c-1.7-.2-3.1-1.6-3.4-3.2v-.1c0-.2-.1-.5-.1-.7v-.6l.8-6 .5-3.4c0-.3.1-.5.2-.8.1-.2.1-.3.2-.4 0-.1.1-.1.1-.2.7-1.3 2.1-2.1 3.6-2.1h.6c2 .3 3.5 2 3.5 4 .1.2.1.4.1.6z"/></svg>