<svg xmlns="http://www.w3.org/2000/svg" viewBox="0 0 67.2 87.8"><path d="M61.2 10.8c-.3 0-.7-.1-1-.1-1.1 0-2.1.3-3.1.7l.3-1.9c0-.3.1-.7.1-1 0-3.4-2.5-6.4-6-6.9-.3 0-.7-.1-1-.1-3.4 0-6.4 2.5-6.9 6L39 37.7 29.8 5.2C29 2.1 26.2 0 23.1 0c-.6 0-1.2.1-1.8.2-3.1.8-5.2 3.7-5.2 6.8v.6c-.9-.3-1.8-.6-2.8-.6-.6 0-1.2.1-1.8.2-3.1.9-5.2 3.7-5.2 6.8 0 .6.1 1.2.2 1.8L10.7 33c-.8.1-1.7.4-2.6.8-.5.2-.8.7-.8 1.2v.2c-.2 1.2-1.2 7.1-7 14.4-.2.4-.3.8-.3 1.2 0 .1.7 9.1 3.7 18.2 1.5 4.6 3.5 9.2 6.4 12.7 2.9 3.6 6.8 6.1 11.6 6.1h25.1c8.9 0 16.1-7.2 16.1-16.1V51.5l4.2-32.8c0-.3.1-.6.1-1 0-3.4-2.5-6.4-6-6.9zm3 7.5l-3.5 27.2-.7 5.7v20.4c0 7.3-5.9 13.1-13.2 13.2H21.7c-3.8 0-6.8-1.9-9.4-5C8.5 75.1 6 67.7 4.6 61.6c-.7-3.1-1.2-5.9-1.4-7.9-.2-1.2-.3-2.1-.3-2.7 5.3-6.9 6.7-12.7 7.1-14.8.5-.2 1-.3 1.4-.4.2 0 .4-.1.6 0 .3 0 .6 0 .9.1.5.2.9.5 1.3 1 1 1.3 1.3 4.2 1.2 5.4v.4c-.2.5-.5 1-.7 1.4-.3.7-.6 1.3-.8 1.9-1.5 3.6-2 6.2-2 8.1-.1 3.2 1.8 4.5 2.2 4.6h.1l3.2 1h.6c.4 0 2.6.1 5 .8 2.6.8 5.3 2.4 6.6 5.3.2.5.8.8 1.3.8.2 0 .4 0 .6-.1.7-.3 1-1.2.7-1.9-1.8-4-5.4-5.9-8.4-6.8-2-.6-3.7-.8-4.8-.9l-.9-5-.4-2.1-.5-3.8v-.2c.1-.2.2-.3.2-.5.2-.5.5-1.1.8-1.6.1-.2.1-.4.1-.5v-.8c0-1.5-.1-4.6-1.8-7.1-.6-.9-1.6-1.7-2.8-2.1L9.4 15.1c-.1-.4-.2-.7-.2-1.1 0-1.8 1.2-3.5 3-4 .4-.1.7-.1 1.1-.1 1.8 0 3.5 1.2 4 3l6.3 22.4 2.7 9.7c.2.6.8 1.1 1.4 1.1.1 0 .3 0 .4-.1.8-.2 1.2-1 1-1.8l-.4-1.5v-.4l-2.2-7.7L19.1 8c-.1-.3-.1-.7-.1-1 0-1.8 1.2-3.5 3-4 .4-.1.7-.1 1.1-.1 1.8 0 3.5 1.2 4 3l10.7 37.8c.2.7.9 1.2 1.7 1h.3c.7 0 1.3-.5 1.4-1.2L46.4 8c.3-2.1 2-3.5 4-3.5h.6c2 .3 3.5 2 3.5 4v.6l-.9 6.3c-.2.4-.3.9-.3 1.4l-2.7 19.8-.6 3.7v.3l-.4 2.9c-.1.8.4 1.5 1.2 1.6.8.1 1.5-.4 1.6-1.2l.9-6.8 3-20.9c.6-1.5 2.1-2.5 3.8-2.5h.6c2 .3 3.5 2 3.5 4.1.1.2.1.4 0 .5zm-49 33.1l.9 4.9-.8-.2c-.1-.1-.5-.5-.5-2 .1-.7.2-1.6.4-2.7z"/></svg>