<svg id="spock" xmlns="http://www.w3.org/2000/svg" viewBox="0 0 170 170"><style>.st0{fill:#447391}.st1{fill:#fbfcfc}.st2{fill:#77afbf}</style><title>spock</title><path class="st0" d="M84.8 168.5c-48-.8-84.6-38.4-83.8-86C1.8 36.6 40.3.2 87.1 1c45.8.8 82.5 39.4 81.3 86.2-1.1 45.9-38.9 81.3-83.6 81.3zM83.3 7.8c-19.7.3-37.9 7.6-53 22.5-16.1 16-24.2 35.8-23 58.1C9.8 131.6 43.5 162 84 162.3c42.5.5 77.4-33.6 77.9-76.1V85c.2-42.5-34.5-77.1-78.6-77.2z"/><path class="st1" d="M83.3 7.8c44.1.1 78.8 34.6 78.7 77.2.2 42.5-34.2 77.1-76.7 77.3h-1.2c-40.5-.4-74.3-30.7-76.7-73.9-1.3-22.3 6.8-42.1 23-58.1 15-14.9 33.2-22.2 52.9-22.5zM44.5 88.4c1.5.4 3.1.6 4.6.8 5.5.6 10.4-.9 14-5.3 2-2.4 2.6-4.7 1.9-7.3-4.3 8.7-11.4 11.9-20.7 11-.7-.4-1.5-.4-2.2 0 .7.5 1.5.8 2.4.8zm41.4-10.8c1.1 2.3 1.7 4.8 1.7 7.3 1.6-.8 1.1-3 3.1-3.3 12.1-1.5 24.3-3.1 36.4-4.7 1.6-.2 2.5.7 3.2 1.9 1.8 3.3.3 6.5-3.5 7-7.5 1.1-15 2.1-22.5 3.1-4.7.6-9.4 1.3-14.1 2-1.1.1-2 .5-2.2 1.7s.9 1.4 1.7 1.8c1.6.8 3.2 1.5 4.8 2.1 8.9 3.3 17.8 6.5 26.7 9.8 2.5.9 3.4 2.5 2.8 4.8s-2.7 4-5.1 4c-2.5-.1-5-.6-7.3-1.5-7.3-2.9-14.5-5.7-21.8-8.6-2.1-.8-4.5-1.3-3.8-4.7-.8 2.4-2.2 4.7-4 6.5 1.7.4 2.6-1.6 4.4-.8 7.8 3.2 15.7 6.3 23.7 9.4 1.6.6 1.7 1.7 1.3 3-.8 2.2-2.6 2.7-4.7 2.3-3.7-.8-7.5-1.7-11.2-2.5-9.6-2-19-4.9-29-4.7-9 .2-17.4-1.5-24.4-7.7-2.1-1.8-4.8-2.7-7.6-2.4-4.4.2-8.8.1-13.2.1-3 0-3 0-2.1 2.9 11.8 36.4 50.9 56.4 87.4 44.6 31.1-10.1 51-40.6 47.6-73.1-1.9-19.2-10.4-35-25.4-47C100.3 7.7 58.7 10.8 34 38a69.99 69.99 0 0 0-16.1 29.5c-.4 1.7-.2 2.1 1.6 2.1 4.7 0 9.3-.4 14-.6 2.6 0 5-1.2 6.7-3.2 3.2-3.8 6.7-7.2 10.6-10.2 7.8-5.7 15.5-11.6 20.8-19.9.2-.3.4-.5.7-.7 1.6-1.5 2.7-1.5 4.1.4 2 2.6 2 5.5 1 8.5-1.6 4.6-4.7 8.2-7.5 12-1.5 2.1-3 4.2-3.5 6.8-.5 3.3.2 4.4 3.6 4.8 9.2 1.1 18.5.6 27.7.2 6.8-.3 13.6-.9 20.4-1.2 4.2-.2 7.2 2.2 7.7 5.9.2 1.4 0 2.3-1.8 2.6-9.7 1.2-19.5 2.6-29.2 3.9-3.1.4-6.2 1.4-8.6-1.7-.2-.1-.3-.7-.7-.4-.1.2.1.6.4.8z"/><path class="st0" d="M86.3 77.2c2.3 3.1 5.5 2.1 8.6 1.7 9.7-1.3 19.4-2.6 29.2-3.9 1.8-.2 2-1.1 1.8-2.6-.6-3.7-3.5-6.1-7.7-5.9-6.8.3-13.6.9-20.4 1.2-9.2.4-18.5.8-27.7-.2-3.4-.4-4.1-1.5-3.6-4.8.4-2.7 1.9-4.8 3.5-6.8 2.8-3.8 5.9-7.4 7.5-12 1-3 1-5.9-1-8.5-1.4-1.8-2.5-1.9-4.1-.4-.3.2-.5.4-.7.7-5.3 8.3-13 14.2-20.8 19.9-3.9 3-7.4 6.4-10.6 10.2-1.7 2-4.1 3.1-6.7 3.2-4.7.2-9.3.6-14 .6-1.8 0-2.1-.4-1.6-2.1 2.8-11 8.3-21.2 16.1-29.5 24.7-27.2 66.3-30.3 94.8-7.1 14.6 11.5 23.8 28.5 25.4 47 3.9 38.1-23.8 72.2-61.9 76.1-32.6 3.4-63-16.5-73.1-47.6-.9-2.8-.9-2.8 2.1-2.9 4.4 0 8.8 0 13.2-.1 2.8-.3 5.5.6 7.6 2.4 7 6.2 15.4 7.8 24.4 7.7 9.9-.2 19.4 2.7 29 4.7 3.7.8 7.5 1.7 11.2 2.5 2.1.4 3.9-.1 4.7-2.3.5-1.3.4-2.3-1.3-3-7.9-3-15.8-6.1-23.7-9.4-1.8-.7-2.6 1.3-4.4.8 1.8-1.9 3.1-4.1 4-6.5-.7 3.4 1.7 3.9 3.8 4.7 7.3 2.8 14.6 5.7 21.8 8.6 2.3.9 4.8 1.5 7.3 1.5 2.4 0 4.5-1.7 5.1-4s-.3-3.8-2.8-4.8c-8.9-3.3-17.8-6.5-26.7-9.8-1.6-.6-3.2-1.3-4.8-2.1-.8-.4-1.9-.5-1.7-1.8s1.1-1.5 2.2-1.7c4.7-.6 9.4-1.3 14.1-2 7.5-1 15-2 22.5-3.1 3.7-.5 5.2-3.7 3.5-7-.5-1.3-1.8-2.1-3.2-1.9-12.1 1.6-24.2 3.2-36.4 4.7-2 .3-1.5 2.5-3.1 3.3 0-2.5-.5-5-1.7-7.3 0-.1.2-.3.3-.4zM101.1 94c1.1.6 1.6.8 2 1 4.6 1.7 9.3 3.2 13.8 5 2.9 1.1 6 1.5 8.5 3.3 3.1 2.3 4.2 6.5 2.6 10-1.9 4.4-6.2 7.2-10.5 6.5-1.5-.3-2 0-2.7 1.3-1.7 3.3-5.4 5-9 4.1-3.1-.7-6.2-1.3-9.2-2.1-12.6-3.1-25.3-5.4-38.3-5.7-5.4 0-10.6-1.8-14.8-5.1-4-3.1-8.2-5.3-13.5-4.3h-.2c-3 0-3 0-1.7 2.9 3.4 7.2 8.2 13.7 14 19.2 15.3 14.3 33.5 19.4 53.9 16.2 13.5-2.1 25.1-8.5 34.6-18.5 13.3-14 19-30.8 17.2-49.8-1.3-15.6-8.6-30.1-20.4-40.4-14.5-13-31.5-18-50.7-15.6-17.1 2.2-30.8 10.4-41.4 24-3.7 4.8-6.8 10.1-8.9 15.8-.4.9-1.1 2.6.4 2.6 3.7.1 7.6 1 10.7-2.5 3-3.6 6.4-6.8 10.1-9.7 5.1-4 10.5-7.6 15-12.4 2.4-2.6 4-5.7 6.5-8.2 3.8-3.6 8-3.2 11 1s3.1 8.7 1.4 13.3c-1.8 5-5.2 9-8.4 13.2-.8 1.1-2.1 2.5-1.6 3.4.5 1.1 2.4.9 3.8.9 9.9.3 19.8-.1 29.7-.6 3.3-.2 6.6-.3 9.9-.7 7.1-.9 13.9 1.2 15.5 9.9.2.9.8 1.2 1.4 1.6 2.9 2.3 4.3 6.2 3.4 9.8-.7 4-3.4 6-7.1 6.6-5.4.9-10.8 1.5-16.2 2.3-3.4.6-6.7 1.1-10.8 1.7z"/><path class="st0" d="M44.4 87.7c9.3 1 16.4-2.3 20.7-11 .7 2.6.1 4.9-1.9 7.3-3.7 4.4-8.5 5.9-14 5.3-1.6-.2-3.1-.6-4.6-.8-.1-.3-.1-.6-.2-.8z"/><path class="st2" d="M44.4 87.7c0 .3.1.5.1.8-.8 0-1.6-.3-2.3-.7.7-.4 1.5-.5 2.2-.1z"/><path class="st0" d="M85.9 77.6c-.3-.2-.5-.6-.3-.8s.4.2.7.4l-.4.4z"/><path class="st2" d="M101.1 94c4.1-.6 7.4-1 10.7-1.5 5.4-.8 10.9-1.4 16.2-2.3 3.7-.6 6.4-2.6 7.1-6.6s-.2-7.3-3.4-9.8c-.6-.5-1.2-.8-1.4-1.6-1.6-8.7-8.4-10.8-15.5-9.9-3.3.4-6.6.5-9.9.7-9.9.6-19.8.9-29.7.6-1.4 0-3.3.2-3.8-.9s.8-2.4 1.6-3.4c3.1-4.2 6.6-8.2 8.4-13.2C83.1 41.5 83 37 80 32.8s-7.3-4.6-11-1c-2.6 2.4-4.1 5.6-6.5 8.2-4.4 4.8-9.8 8.4-15 12.4-3.7 2.9-7 6.2-10.1 9.7s-7 2.6-10.7 2.5c-1.6-.1-.8-1.7-.4-2.6 2.1-5.7 5.2-11 8.9-15.8 10.6-13.5 24.3-21.8 41.4-24 19.2-2.5 36.2 2.6 50.7 15.6 11.8 10.3 19.2 24.8 20.4 40.4 1.7 19-3.9 35.8-17.2 49.8-9.5 10-21.1 16.4-34.6 18.5-20.3 3.2-38.6-1.9-53.9-16.2-5.8-5.5-10.6-12-14-19.2-1.4-2.8-1.3-2.8 1.7-2.9h.2c5.3-.9 9.5 1.2 13.5 4.3 4.2 3.3 9.4 5.1 14.8 5.1 12.9.4 25.8 2.4 38.3 5.7 3.1.8 6.1 1.4 9.2 2.1 3.6.9 7.3-.8 9-4.1.6-1.2 1.2-1.5 2.7-1.3 4.2.7 8.6-2.1 10.5-6.5 1.6-3.5.5-7.7-2.6-10-2.5-1.8-5.7-2.2-8.5-3.3-4.6-1.8-9.2-3.3-13.8-5-.5-.5-1.2-.9-1.9-1.2z"/></svg>