<svg id="spock" xmlns="http://www.w3.org/2000/svg" viewBox="0 0 170 170"><style>.st0{fill:#447391}.st1{fill:#fbfcfc}.st2{fill:#77afbf}</style><title>spock</title><path class="st0" d="M84.6 168.5c-44.7 0-82.5-35.4-83.6-81.3C-.2 40.4 36.5 1.8 82.3 1c46.8-.8 85.3 35.6 86.1 81.5.8 47.6-35.8 85.2-83.8 86zM86.1 7.8C42 7.9 7.3 42.5 7.5 85v1.2c.5 42.5 35.4 76.6 77.9 76.1 40.5-.3 74.2-30.7 76.7-73.9 1.2-22.3-6.9-42.1-23-58.1-15.1-14.9-33.3-22.2-53-22.5z"/><path class="st1" d="M86.1 7.8c19.7.3 37.9 7.6 52.9 22.5 16.2 16 24.3 35.8 23 58.1-2.4 43.2-36.2 73.5-76.7 73.9h-1.2C41.6 162.1 7.2 127.5 7.4 85 7.3 42.4 42 7.9 86.1 7.8zm38.8 80.6c.9 0 1.7-.3 2.4-.8-.7-.4-1.5-.4-2.2 0-9.3.9-16.4-2.3-20.7-11-.7 2.6-.1 4.9 1.9 7.3 3.6 4.4 8.5 5.9 14 5.3 1.5-.2 3.1-.4 4.6-.8zM83.5 77.6c.3-.2.5-.6.4-.8-.4-.3-.5.3-.7.4-2.4 3.1-5.5 2.1-8.6 1.7-9.7-1.3-19.5-2.7-29.2-3.9-1.8-.3-2-1.2-1.8-2.6.5-3.7 3.5-6.1 7.7-5.9 6.8.3 13.6.9 20.4 1.2 9.2.4 18.5.9 27.7-.2 3.4-.4 4.1-1.5 3.6-4.8-.5-2.6-2-4.7-3.5-6.8-2.8-3.8-5.9-7.4-7.5-12-1-3-1-5.9 1-8.5 1.4-1.9 2.5-1.9 4.1-.4.3.2.5.4.7.7 5.3 8.3 13 14.2 20.8 19.9 3.9 3 7.4 6.4 10.6 10.2 1.7 2 4.1 3.2 6.7 3.2 4.7.2 9.3.6 14 .6 1.8 0 2-.4 1.6-2.1-2.9-11-8.4-21.1-16.1-29.5-24.7-27.2-66.3-30.3-94.8-7.1-15 12-23.5 27.8-25.4 47-3.4 32.5 16.5 63 47.6 73.1 36.5 11.8 75.6-8.2 87.4-44.6.9-2.9.9-2.9-2.1-2.9-4.4 0-8.8.1-13.2-.1-2.8-.3-5.5.6-7.6 2.4-7 6.2-15.4 7.9-24.4 7.7-10-.2-19.4 2.7-29 4.7-3.7.8-7.5 1.7-11.2 2.5-2.1.4-3.9-.1-4.7-2.3-.4-1.3-.3-2.4 1.3-3 8-3.1 15.9-6.2 23.7-9.4 1.8-.8 2.7 1.2 4.4.8-1.8-1.8-3.2-4.1-4-6.5.7 3.4-1.7 3.9-3.8 4.7-7.3 2.9-14.5 5.7-21.8 8.6-2.3.9-4.8 1.4-7.3 1.5-2.4 0-4.5-1.7-5.1-4s.3-3.9 2.8-4.8c8.9-3.3 17.8-6.5 26.7-9.8 1.6-.6 3.2-1.3 4.8-2.1.8-.4 1.9-.6 1.7-1.8s-1.1-1.6-2.2-1.7c-4.7-.7-9.4-1.4-14.1-2-7.5-1-15-2-22.5-3.1-3.8-.5-5.3-3.7-3.5-7 .7-1.2 1.6-2.1 3.2-1.9 12.1 1.6 24.3 3.2 36.4 4.7 2 .3 1.5 2.5 3.1 3.3 0-2.5.6-5 1.7-7.3z"/><path class="st0" d="M83.1 77.2c.1.1.3.3.3.4-1.2 2.3-1.7 4.8-1.7 7.3-1.6-.8-1.1-3-3.1-3.3-12.2-1.5-24.3-3.1-36.4-4.7-1.4-.2-2.7.6-3.2 1.9-1.7 3.3-.2 6.5 3.5 7 7.5 1.1 15 2.1 22.5 3.1 4.7.7 9.4 1.4 14.1 2 1.1.2 2 .4 2.2 1.7s-.9 1.4-1.7 1.8c-1.6.8-3.2 1.5-4.8 2.1-8.9 3.3-17.8 6.5-26.7 9.8-2.5 1-3.4 2.5-2.8 4.8s2.7 4 5.1 4c2.5 0 5-.6 7.3-1.5 7.2-2.9 14.5-5.8 21.8-8.6 2.1-.8 4.5-1.3 3.8-4.7.9 2.4 2.2 4.6 4 6.5-1.8.5-2.6-1.5-4.4-.8-7.9 3.3-15.8 6.4-23.7 9.4-1.7.7-1.8 1.7-1.3 3 .8 2.2 2.6 2.7 4.7 2.3 3.7-.8 7.5-1.7 11.2-2.5 9.6-2 19.1-4.9 29-4.7 9 .1 17.4-1.5 24.4-7.7 2.1-1.8 4.8-2.7 7.6-2.4 4.4.1 8.8.1 13.2.1 3 .1 3 .1 2.1 2.9-10.1 31.1-40.5 51-73.1 47.6-38.1-3.9-65.8-38-61.9-76.1 1.6-18.5 10.8-35.5 25.4-47C69 7.7 110.6 10.8 135.3 38c7.8 8.3 13.3 18.5 16.1 29.5.5 1.7.2 2.1-1.6 2.1-4.7 0-9.3-.4-14-.6-2.6-.1-5-1.2-6.7-3.2-3.2-3.8-6.7-7.2-10.6-10.2-7.8-5.7-15.5-11.6-20.8-19.9-.2-.3-.4-.5-.7-.7-1.6-1.5-2.7-1.4-4.1.4-2 2.6-2 5.5-1 8.5 1.6 4.6 4.7 8.2 7.5 12 1.6 2 3.1 4.1 3.5 6.8.5 3.3-.2 4.4-3.6 4.8-9.2 1-18.5.6-27.7.2-6.8-.3-13.6-.9-20.4-1.2-4.2-.2-7.1 2.2-7.7 5.9-.2 1.5 0 2.4 1.8 2.6 9.8 1.3 19.5 2.6 29.2 3.9 3.1.4 6.3 1.4 8.6-1.7zM68.3 94c-4.1-.6-7.4-1.1-10.8-1.7-5.4-.8-10.8-1.4-16.2-2.3-3.7-.6-6.4-2.6-7.1-6.6-.9-3.6.5-7.5 3.4-9.8.6-.4 1.2-.7 1.4-1.6 1.6-8.7 8.4-10.8 15.5-9.9 3.3.4 6.6.5 9.9.7 9.9.5 19.8.9 29.7.6 1.4 0 3.3.2 3.8-.9.5-.9-.8-2.3-1.6-3.4-3.2-4.2-6.6-8.2-8.4-13.2-1.7-4.6-1.6-9.1 1.4-13.3s7.2-4.6 11-1c2.5 2.5 4.1 5.6 6.5 8.2 4.5 4.8 9.9 8.4 15 12.4 3.7 2.9 7.1 6.1 10.1 9.7 3.1 3.5 7 2.6 10.7 2.5 1.5 0 .8-1.7.4-2.6-2.1-5.7-5.2-11-8.9-15.8-10.6-13.6-24.3-21.8-41.4-24-19.2-2.4-36.2 2.6-50.7 15.6C30.2 47.9 22.9 62.4 21.6 78c-1.8 19 3.9 35.8 17.2 49.8 9.5 10 21.1 16.4 34.6 18.5 20.4 3.2 38.6-1.9 53.9-16.2 5.8-5.5 10.6-12 14-19.2 1.3-2.9 1.3-2.9-1.7-2.9h-.2c-5.3-1-9.5 1.2-13.5 4.3-4.2 3.3-9.4 5.1-14.8 5.1-13 .3-25.7 2.6-38.3 5.7-3 .8-6.1 1.4-9.2 2.1-3.6.9-7.3-.8-9-4.1-.7-1.3-1.2-1.6-2.7-1.3-4.3.7-8.6-2.1-10.5-6.5-1.6-3.5-.5-7.7 2.6-10 2.5-1.8 5.6-2.2 8.5-3.3 4.5-1.8 9.2-3.3 13.8-5 .4-.2.9-.4 2-1z"/><path class="st0" d="M124.8 88.5c-1.5.2-3 .6-4.6.8-5.5.6-10.3-.9-14-5.3-2-2.4-2.6-4.7-1.9-7.3 4.3 8.7 11.4 12 20.7 11-.1.2-.1.5-.2.8z"/><path class="st2" d="M125 87.7c.7-.4 1.5-.3 2.2.1-.7.4-1.5.7-2.3.7 0-.3.1-.5.1-.8z"/><path class="st0" d="M83.1 77.2c.3-.2.5-.6.7-.4s0 .6-.3.8l-.4-.4z"/><path class="st2" d="M66.4 95.2c-4.6 1.7-9.2 3.2-13.8 5-2.8 1.1-6 1.5-8.5 3.3-3.1 2.3-4.2 6.5-2.6 10 1.9 4.4 6.3 7.2 10.5 6.5 1.5-.2 2.1.1 2.7 1.3 1.7 3.3 5.4 5 9 4.1 3.1-.7 6.1-1.3 9.2-2.1 12.5-3.3 25.4-5.3 38.3-5.7 5.4 0 10.6-1.8 14.8-5.1 4-3.1 8.2-5.2 13.5-4.3h.2c3 .1 3.1.1 1.7 2.9-3.4 7.2-8.2 13.7-14 19.2-15.3 14.3-33.6 19.4-53.9 16.2C60 144.4 48.4 138 38.9 128 25.6 114 20 97.2 21.7 78.2c1.2-15.6 8.6-30.1 20.4-40.4 14.5-13 31.5-18.1 50.7-15.6 17.1 2.2 30.8 10.5 41.4 24 3.7 4.8 6.8 10.1 8.9 15.8.4.9 1.2 2.5-.4 2.6-3.7.1-7.6 1-10.7-2.5-3.1-3.5-6.4-6.8-10.1-9.7-5.2-4-10.6-7.6-15-12.4-2.4-2.6-3.9-5.8-6.5-8.2-3.7-3.6-8-3.2-11 1s-3.1 8.7-1.4 13.3c1.8 5 5.3 9 8.4 13.2.8 1 2.1 2.3 1.6 3.4s-2.4.9-3.8.9c-9.9.3-19.8 0-29.7-.6-3.3-.2-6.6-.3-9.9-.7-7.1-.9-13.9 1.2-15.5 9.9-.2.8-.8 1.1-1.4 1.6-3.2 2.5-4.1 5.8-3.4 9.8s3.4 6 7.1 6.6c5.3.9 10.8 1.5 16.2 2.3 3.3.5 6.6.9 10.7 1.5-.7.3-1.4.7-1.9 1.2z"/></svg>