<?xml version="1.0" encoding="utf-8"?>
<!-- Generator: Adobe Illustrator 21.1.0, SVG Export Plug-In . SVG Version: 6.00 Build 0)  -->
<svg version="1.1" id="Layer_1" xmlns="http://www.w3.org/2000/svg" xmlns:xlink="http://www.w3.org/1999/xlink" x="0px" y="0px"
	 viewBox="0 0 103 92.5" style="enable-background:new 0 0 103 92.5;" xml:space="preserve">
<path d="M55.7,15.1l1.6,2.5c0.7,0.9,1.1,1.6,1.2,1.8c0.5,0.8,0.9,1.6,1.2,2.4c0.4,1.1,0.5,2.1,0.5,3.2V25l0,0
	c1.9,0.2,2.7,0.4,2.7,0.6S62,26,60.2,26.2h-0.1v0.4c0,0.1-0.1,0.4-0.2,0.8l-0.3,0.7c-0.3,0.8-0.7,1.6-1.1,2.3c1,0.5,2,1.1,2.8,1.7
	c0.7,0.4,1.3,0.8,1.6,1.3c0.3,0.3,0.4,0.5,0.4,0.6c-0.1,0.2-1-0.1-2.6-0.8c-1.2-0.5-2.2-0.9-3.1-1.3c-0.3,0.5-0.8,1.1-1.2,1.6
	c-1.1,1.4-2.2,2.4-3.5,3.4c-0.7,0.5-1.3,0.9-2,1.3c0.1,0.2,0.2,0.5,0.2,0.9c0.2,0.6,0.4,1.7,0.7,3.2c0.3,1.6,0.7,2.8,1.1,3.9
	c0.2,0.5,0.5,1.3,1,2.1c0.4,0.8,1,1.5,1.4,2c0.4,0.6,0.8,0.9,0.9,1.1l0.4,0.5l2.8,2.2c0.1,0.1,1,0.6,2.6,1.8l2.8,1.7
	c0.9,0.5,2,1.1,3.1,1.9c0.3,0.2,0.9,0.6,1.5,1.1l2.3,1.8c0.1,0.1,0.3,0.3,0.7,0.6c0.4,0.5,0.9,0.9,1.3,1.5c0.8,0.9,1.4,2,2,3.3
	c0.9,2.1,1.4,4.3,1.6,6.7c0,1.1,0,2,0,2.9c0.9-1.9,1.5-3.5,2-4.8c0.5-2,0.8-4,0.7-5.9c-0.2-2-0.8-4.3-1.8-6.8
	c-0.7-1.6-1.9-4-3.7-7.3c-2.1-3.6-3.5-6.3-4.3-8.3c-0.7-1.6-1.2-3.2-1.5-4.7c-0.4-1.7-0.7-3.4-0.5-4.9c0.1-2,0.5-3.7,1.3-5
	c0.9-1.6,2.2-2.8,3.9-3.7c0.4-0.2,0.8-0.4,1.1-0.5l1.2-0.4c0.9-0.2,1.6-0.4,2.5-0.4c1.5-0.1,3,0.1,4.5,0.6c3,0.9,5,2.4,6.5,4.5
	c0.7,1.1,1.2,2.1,1.3,3.3c0.1,0.9,0,2-0.2,3.1l-0.2,0.6c-0.2,0.3-0.3,0.5-0.3,0.6c-0.2,0.4-0.5,0.7-0.9,1.1
	c-0.5,0.6-1.2,1.1-1.9,1.3c-0.5,0.2-1.2,0.4-1.8,0.4c-0.5,0.1-1,0-1.3-0.1s-0.5-0.2-0.7-0.4c-0.1-0.1-0.2-0.2-0.1-0.3
	c0,0,0.1-0.1,0.3-0.1c0.1,0,0.3,0,0.7,0c0.8-0.2,1.5-0.5,2.1-0.9c0.4-0.2,0.8-0.6,1.1-1.2c0.1-0.2,0.2-0.4,0.3-0.7l0.2-0.8
	c0.2-1.5-0.2-2.7-1.2-4c-1.1-1.4-2.7-2.2-4.8-2.6C81,28.4,80,28.3,79,28.4c-0.7,0.1-1.1,0.2-1.4,0.3L76,29.4
	c-0.9,0.5-1.6,1.3-2.1,2.1c-0.4,0.8-0.8,1.9-0.8,3.2c0,2.3,0.7,4.9,1.9,7.8c0.8,1.7,2.1,4.3,4,7.9l2.1,4c0.9,2,1.4,3.4,1.6,4
	c1,3.1,1.5,5.7,1.5,8c0.1,2.4-0.3,4.7-1.3,7.2c-0.7,1.7-1.5,3.4-2.7,5.2c-0.8,1.1-1.6,2.2-2.5,3.4c-0.5,0.6-0.9,1.2-1.3,1.5
	c-0.3,0.7-0.9,1.9-1.8,3.5c-0.8,1.4-1.4,2.2-2,2.7c0.1-0.1,0.2-0.1,0.3-0.2c4.2,0.1,8.3,0.2,12.5,0.3c8.8,0.3,17.6,0.6,17.6,1.1
	c0,0.4-8.8,0.9-17.6,1.2c-4.8,0.2-10.7,0.3-17.6,0.5c2.7-3.7,4.5-6.3,5.3-7.9c0.7-1.4,1.2-2.9,1.4-4.6c0.3-1.8,0.4-3.7,0.1-5.5
	c-0.2-2.1-0.8-4.1-1.5-5.9c-0.5-1.1-1.1-1.9-1.6-2.6c-0.3-0.5-0.7-0.9-1-1.2c-0.2-0.2-0.4-0.3-0.7-0.6l-2-1.6
	c-0.8-0.5-1.2-0.8-1.4-1.1L60.6,58c-1.3-0.8-2.2-1.5-2.8-1.9l-3-2.7l-0.4-0.6c-0.3-0.3-0.7-0.7-1-1.3C53,50.9,52.5,50.1,52,49
	c-0.4-0.9-0.8-1.8-0.9-2.5c-0.3-1.2-0.7-2.4-0.9-3.8c-0.2-1.4-0.4-2.5-0.5-3.6c-0.1-0.8-0.2-1.5-0.2-1.9c0.2-0.3,0.4-0.5,0.4-0.5
	c0.4-0.5,1.1-1.2,2-2c0.8-0.7,1.6-1.8,2.4-3.2c0.2-0.3,0.5-0.7,0.8-1.2c-0.1,0-0.1,0-0.1,0c-1.5-0.5-2.6-0.9-3.4-1.2
	c-1.4-0.4-2.3-0.6-2.8-0.7c-1-0.2-1.6-0.4-2-0.5c-0.4-0.1-0.7-0.2-0.7-0.3c0-0.1,0.2-0.2,0.7-0.2c0.7-0.1,1.3-0.1,2.1-0.1
	c0.9,0.1,1.9,0.2,3.1,0.5c1.1,0.2,2.3,0.6,3.6,1.2c0.1,0,0.2,0.1,0.3,0.1c0.4-0.7,0.8-1.5,1-2.1c0.1-0.3,0.2-0.5,0.3-0.8
	c-1,0-2.1,0-3.3,0l-6.7,0.2c-1.9,0.1-2.7,0-2.7-0.1c0-0.2,0.9-0.6,2.6-1.1c2-0.4,4.2-0.6,6.8-0.6c1.2,0,2.4,0,3.5,0.1
	c0-0.7-0.1-1.5-0.3-2.2c-0.2-0.6-0.4-1.3-0.8-2.1c-0.4-0.9-1-2.4-1.9-4.5c-0.1-0.2-0.2-0.4-0.2-0.6c-0.3-0.3-0.7-0.9-1-2
	c-0.5-1.9-1-3.7-1.3-5.4c-0.2-1.4-0.4-2.6-0.4-3.8c-0.3,0.7-0.7,1.6-1.2,2.6l-2.1,4.2c-0.3,0.6-0.5,1.1-0.7,1.3
	c-0.1,0.1-0.1,0.2-0.2,0.3c0,0.2,0,0.3-0.1,0.5c-0.1,0.1-0.4,0.1-0.9,0c-0.7-0.2-1.2-0.3-1.5-0.4l-1.1-0.2l-0.2-0.1h-1
	c-1-0.1-1.9-0.1-2.8-0.1c-2.6,0.2-4.5,0.4-5.5,0.4c-0.1,0-0.2,0-0.3,0l0,0c-1.4,0-2.2-0.1-2.2-0.4c-0.1-0.2,0.1-0.5,0.4-0.7
	c0.1-0.1,0.2-0.2,0.3-0.3c0-0.1-0.1-0.2-0.1-0.2L30.2,7c-0.4-1.1-0.9-2-1.2-2.8c-0.1,1.2-0.2,2.4-0.5,3.8c-0.2,1.7-0.7,3.5-1.3,5.4
	c-0.3,0.9-0.7,1.6-0.9,1.9c-0.1,0.2-0.2,0.5-0.3,0.9c-0.9,2-1.4,3.4-1.9,4.3c-0.3,0.8-0.5,1.5-0.8,2.1c-0.2,0.9-0.3,2-0.2,2.9
	c1.1,0,2.3,0,3.4,0c2.7,0,4.9,0.2,6.7,0.6c1.9,0.4,2.7,0.7,2.7,0.9c0,0.1-0.2,0.2-0.8,0.2c-0.3,0-1.1,0-2.1,0
	C31.4,27,29.2,27,26.4,27c-1.1,0-2.1,0-3.1,0v0.1c0.3,0.7,0.7,1.6,1.2,2.5c0.1,0.1,0.1,0.1,0.1,0.2l0,0c1.1-0.4,2.3-0.7,3.6-1.1
	c1.2-0.2,2.3-0.4,3.1-0.4c0.9-0.1,1.5,0,2.1,0c0.5,0.1,0.8,0.1,0.8,0.2c0,0.1-0.2,0.2-0.8,0.3c-0.7,0.2-1.3,0.3-2,0.5
	C31,29.4,30,29.6,28.6,30l-3.3,1.2c0.1,0.2,0.2,0.3,0.3,0.5c0.8,1.2,1.6,2.4,2.7,3.5c0.2,0.3,1,1.1,2.1,2.2l0.1,0.1l-0.2,3.6
	c-0.1,0.4-0.1,0.9-0.1,1.6c0,0.3-0.1,0.9-0.1,1.7c0,0.7,0,1.4-0.1,1.9l-0.7,4.2c-0.2,1.1-0.7,2.6-1.2,4.7c-0.7,2.4-1.9,6-3.4,10.4
	c-1.2,3.6-2,7-2.4,10.3c-0.3,3.4-0.2,6.2,0.3,8.5c0.3,1.6,1.8,4.1,4.3,7.6c-1.8-0.1-3.5-0.1-5.1-0.2C13.1,91.6,0,91.3,0,90.7
	s13.1-0.9,21.9-1.2c0.4,0,0.9,0,1.4,0c-0.3-0.3-0.7-0.7-1-1.2c-0.8-0.9-1.3-2.1-1.8-3.3c-1-2.5-1.3-5.7-1.1-9.3
	c0.2-3.7,1-7.4,2.3-11c1.6-4.8,2.8-8.3,3.6-10.3c0.8-2.2,1.2-3.7,1.4-4.5c0.3-0.9,0.5-1.7,0.7-2.1l0.4-2c0.1-0.3,0.3-1.4,0.8-3.3
	l0.5-2.5c0.1-0.7,0.2-1.4,0.4-1.7c-0.8-0.3-1.6-0.8-2.5-1.5c-1.3-0.9-2.5-2.1-3.5-3.4c-0.2-0.3-0.5-0.7-0.8-1.1
	c-1,0.3-2.1,0.8-3.5,1.5c-1.6,0.7-2.6,1.1-2.7,0.8c-0.1-0.1,0.1-0.3,0.4-0.6s0.9-0.7,1.6-1.3c1-0.6,2.1-1.3,3.3-1.9l0,0
	c-0.5-0.9-1-1.9-1.4-2.8l-0.2-0.7c-0.1-0.2-0.1-0.3-0.1-0.5c-0.1,0-0.2,0-0.3,0c-1.9-0.1-2.7-0.3-2.7-0.5c0-0.2,0.9-0.4,2.7-0.6
	c0.1,0,0.1,0,0.1,0v-0.7c0-1.1,0.2-2.1,0.5-3.2c0.3-0.8,0.8-1.6,1.2-2.4c0.1-0.2,0.5-0.8,1.2-1.8l1.8-2.5c0.2-0.2,0.3-0.4,0.4-0.6
	c0-0.4,0-0.8,0-1.3c-0.1-1.4,0-3.3,0.4-5.7c0.4-2.2,0.9-4,1.4-5.4c0.5-1.5,1-2.2,1.4-2.1l0,0c0.3-0.2,1,0.3,2,1.3
	c1.1,1.2,2,2.6,2.8,4.2c0.8,1.8,1.3,3.5,1.3,4.8c1.5-0.6,3.2-0.9,5.1-1.1c1.2-0.1,2.3,0,3.5,0.3l1.2,0.3l1.5,0.8
	c0.1,0.1,0.2,0.2,0.3,0.3c0-0.2,0-0.3,0-0.4c0-1.5,0.5-3.2,1.4-5.2c0.8-1.7,1.8-3.1,2.7-4.2s1.5-1.5,2-1.3c0.4,0,0.9,0.6,1.4,2.1
	c0.5,1.4,1,3.2,1.4,5.4c0.4,2.3,0.5,4.2,0.4,5.7c-0.1,0.4-0.1,0.8-0.1,1.3C55.4,14.7,55.4,14.9,55.7,15.1z M58.7,79.7
	c0.7-0.1,1.2-0.1,2,0c0.7,0.2,1.3,0.4,1.9,0.8c0.4,0.3,0.9,0.7,1.2,1.3c0.4,0.7,0.9,1.6,1.1,2.6c0.2,1.5,0.3,2.9,0,4.5
	c0,0-0.2,1.2-0.5,3.3c-0.3,0-0.7,0-1,0l0,0c-3.9,0-7.4-0.1-10.4-0.2c0.2-2.8,0.4-4.6,0.5-5.3c0.2-1.7,0.8-3.1,1.4-4.2
	c0.7-0.9,1.3-1.7,2.1-2.2C57.5,80.1,58.1,79.9,58.7,79.7z M58.4,82.8C58,83,57.5,83.4,57.1,84c-0.7,0.7-1.2,1.8-1.8,3.3
	c-0.2,0.5-0.4,1.1-0.7,1.8c2.6,0,5.3,0,7.8,0c0-0.1,0-0.2,0-0.3c-0.1-1.4-0.3-2.6-0.7-3.6c-0.2-0.6-0.5-1.3-0.9-1.7
	c-0.3-0.5-0.7-0.7-1.1-0.8c-0.2,0-0.5,0-0.8,0C59,82.6,58.7,82.7,58.4,82.8z M29.8,89.1c4.3-0.1,9-0.2,14-0.2c0.9,0,1.9,0,2.7,0
	c-0.1-0.3-0.2-0.6-0.2-0.8c0,0-0.1-0.3-0.2-0.9c-0.2-0.4-0.3-0.7-0.3-0.8c-0.7-1.7-1.6-2.9-2.7-3.9c-1.5-1.3-3.3-1.8-5.3-1.7
	c-2,0-3.7,0.6-5.3,2c-1.2,1.1-2.1,2.3-2.5,3.9c-0.1,0.5-0.2,1.2-0.3,1.8C29.8,88.5,29.8,88.8,29.8,89.1z M28.6,83.4
	c0.5-1.2,1.2-2,2-2.7c0.9-0.8,2-1.6,3.2-2.1c1.3-0.5,2.6-0.8,3.9-0.9c1.4-0.1,2.8,0.2,4.2,0.7c1.2,0.4,2.3,1.2,3.3,2
	c1.4,1.5,2.4,3.2,2.8,5.3c0.1,0.3,0.2,0.7,0.2,1.2l0.1,1.1c0,0.3,0.1,1.8,0.5,4.2c-1.6,0-3.3,0-4.8,0c-5.3,0-10.4-0.1-15.8-0.2
	C28,88.8,28,86.9,28,86.1c0.1-0.6,0.2-1.2,0.2-1.4c0.1-0.3,0.2-0.6,0.2-0.7L28.6,83.4z"/>
</svg>
