<?xml version="1.0" encoding="utf-8"?>
<!-- Generator: Adobe Illustrator 21.1.0, SVG Export Plug-In . SVG Version: 6.00 Build 0)  -->
<svg version="1.1" id="Layer_1" xmlns="http://www.w3.org/2000/svg" xmlns:xlink="http://www.w3.org/1999/xlink" x="0px" y="0px"
	 viewBox="0 0 87.9 75" style="enable-background:new 0 0 87.9 75;" xml:space="preserve">
<path d="M69.2,7.1c3.5,1.7,6.3,3.7,8.6,6.2c0.5,0.4,1.1,1.1,1.9,2.2l0.7,1.2c0.2,0.2,0.4,0.6,0.7,1.2c0.1,0.2,0.3,0.6,0.6,1.3
	c0.3,0.7,0.5,1.1,0.6,1.3l0.9,2.8c0.5,1.8,0.8,3.4,1.1,5.2c0.6,0.7,1.2,1.6,1.7,2.6c0.5,1.1,0.9,2.4,1.2,3.8
	c0.6,2.4,0.8,4.8,0.7,7.1c-0.1,0.9-0.2,1.7-0.3,2.2c-0.1,0.5-0.2,0.8-0.3,0.8c-0.2,0-0.3-0.2-0.4-0.7c-0.1-0.4-0.3-1.1-0.4-2.1
	c-0.2-1.2-0.4-2.3-0.5-3.1c-0.3-1.3-0.5-2.6-0.7-3.7c-0.1-0.5-0.2-1-0.4-1.4c0,0.2,0,0.4,0,0.7c0.1,3.3-0.2,6.9-0.8,10.7
	c-1,6.1-2.6,11.9-4.7,17.3c-0.8,2.2-1.8,4.3-2.8,6.3c-0.8,1.3-1.2,2.2-1.3,2.5c-0.2,0.3-0.5,0.8-0.9,1.6c5.5,0.2,8.3,0.4,8.3,0.7
	c0,0.3-3.2,0.6-9.4,0.9c-0.1,0-0.1,0-0.2,0c0.9-2.4,1.4-3.6,1.4-3.7c0.2-0.4,0.6-1.2,1.2-2.5c1-2.2,1.8-4.2,2.5-6.3
	c1.9-5.4,3.2-11,4.2-17.1c0.6-3.6,0.8-7,0.7-10.2c-0.1-3.6-0.6-7.2-1.6-10.9l-0.8-2.6c-0.2-0.6-0.4-1-0.6-1.3
	c-0.2-0.5-0.4-0.9-0.6-1.2c-0.3-0.5-0.5-0.8-0.6-1.1L78,16.8c-0.7-0.9-1.2-1.6-1.6-2c-2.1-2.4-4.7-4.2-7.9-5.8
	c-1.6-0.7-3-1.3-4.3-1.7c-1-0.3-1.7-0.5-2.1-0.6L60,6.2c-2.4-0.5-5-0.8-7.8-1c-2.2-0.1-4.4-0.1-6.5,0c-0.8,0-1.6,0.1-2.4,0.1
	c1.3,1.7,2.4,3.7,3.3,6c1,2.6,1.7,5.2,2.1,8c0.4,2.9,0.4,5.7,0,8.4c-0.4,2.9-1.2,5.4-2.6,7.3c-0.6,1-1.5,2-2.5,2.8
	c-1,0.7-2,1.3-3,1.8c-1,0.3-2,0.6-3.2,0.6c-0.9,0.1-1.9,0-2.9-0.1c-1.8-0.3-3.3-0.8-4.6-1.7c-1.1-0.6-2.1-1.4-2.9-2.4
	c-0.1-0.2-0.4-0.5-0.8-1.1l-0.5-0.9c-0.2-0.5-0.2-0.8-0.2-0.8s0.2,0.2,0.6,0.6c0.4,0.6,0.9,1.1,1.4,1.7c0.9,0.7,1.8,1.4,2.8,2
	c1.3,0.6,2.7,1,4.3,1.2c0.9,0.1,1.7,0.1,2.6,0c1-0.1,1.8-0.3,2.6-0.6c1.8-0.7,3.3-2.1,4.5-3.9c1.1-1.8,1.9-4,2.2-6.6
	c0.3-2.4,0.3-5,0-7.8c-0.4-2.7-1-5.2-1.9-7.4c-0.9-2.4-2.1-4.4-3.4-6.2c-1.5-1.9-3.1-3.1-4.8-3.8C34.7,1.6,33,1.6,31.3,2
	c-0.2,0-0.4,0.1-0.6,0.2l-0.5,0.2c-0.7,0.3-1,0.4-1.1,0.5c-0.6,0.3-1.2,0.7-1.9,1.1c-0.6,0.4-1.5,1.1-2.8,2.2
	c-0.6,0.6-1.1,1.1-1.5,1.8c-0.2,0-0.4,0-0.9,0l-3,0.2c-0.4,0.1-0.8,0.1-1,0.1c-0.6,0.1-1,0.2-1.1,0.2c-0.3-0.1-0.7,0-0.9,0
	c-0.5,0.2-0.9,0.3-1.2,0.4c-1.9,0.8-3.6,1.9-5,3.3c-1.6,1.7-3,3.6-4.2,6.1c-1.1,2.4-2,5.2-2.6,8.3c-1.2,6.5-1.2,13.2,0,20
	c0.3,1.8,0.7,3.4,1.2,5.2c0.5,1.6,1.1,3.2,1.8,4.7c0.7,1.7,1.5,3,2.4,4.1c1,1.2,2,2.3,3.2,2.9c1.2,0.6,2.5,0.8,3.9,0.8
	c0.2,0,0.6,0,1-0.1l1-0.1c0.2-0.1,0.6-0.1,1-0.2l1.9-0.5c0.2-0.1,0.5-0.2,0.9-0.4c0.6-0.2,1.1-0.5,1.6-0.8c1-0.6,1.8-1.4,2.4-2.3
	c0.6-0.9,0.8-1.9,0.8-2.9s-0.3-1.9-0.8-2.3C24.6,54.2,24,54,23.2,54c-0.6,0-1.3,0.1-2,0.3c-0.9,0.3-1.7,0.7-2.5,1.3
	c-0.1,0-0.3,0.2-0.6,0.5l-0.2,0.2c0-0.1,0-0.2,0-0.3c0.1-0.2,0.2-0.4,0.5-0.6c0.7-0.7,1.5-1.3,2.5-1.9c0.8-0.3,1.6-0.5,2.2-0.6
	c0.5,0,1,0,1.4,0.1c0.5,0.2,1,0.4,1.4,0.7c0.4,0.4,0.8,0.9,1,1.4s0.3,1.1,0.3,1.8c0.1,1.2-0.2,2.5-0.9,3.6c-0.7,1.1-1.6,2.1-2.7,2.9
	c-0.6,0.4-1.2,0.8-1.8,1.1c-0.1,0.1-0.5,0.2-1,0.4l-4.2,1c-0.6,0.1-1,0.1-1.2,0.1c-1.7,0.1-3.3-0.2-4.8-0.9
	c-1.4-0.7-2.7-1.9-3.9-3.3c-1-1.2-1.8-2.8-2.6-4.4c-0.8-1.7-1.5-3.4-2-5.1c-0.5-1.8-0.9-3.5-1.2-5.4C-0.3,39.9-0.3,33,1.1,26.3
	c0.7-3.2,1.7-6,3-8.6C5.4,15,7,13,8.8,11.3c1.7-1.6,3.5-2.6,5.6-3.3c0.4-0.1,0.8-0.2,1.3-0.4c0.3-0.1,0.7-0.1,1.2-0.2l2.2-0.2
	l1.8,0.1c0.3,0,0.8,0,1.3,0.1c0.1,0.1,0.2,0.1,0.3,0.1l0.1-0.1c0.2-0.4,0.7-1,1.4-1.9c1-1.1,1.9-2,2.6-2.6c0.6-0.5,1.3-0.9,1.9-1.3
	c0.2-0.2,0.6-0.4,1.2-0.6l0.6-0.2c0.3-0.1,0.5-0.2,0.6-0.2C33-0.2,35-0.2,37,0.5c1.9,0.6,3.8,2,5.4,3.9c1-0.2,2-0.3,3.1-0.4
	c2.3-0.2,4.5-0.3,6.7-0.2c2.8,0,5.5,0.3,8.1,0.7c0.2,0.1,0.9,0.2,2.2,0.5c1.4,0.3,2.1,0.5,2.2,0.6C66,5.8,67.5,6.4,69.2,7.1z
	 M65.5,57.8l-0.4,0.3c-0.1,0.1-0.3,0.2-0.5,0.4c-0.5,0.3-0.9,0.6-1.2,0.8c-1,0.6-1.9,1-2.9,1.2c0.2,0.3,0.4,0.7,0.6,1.2
	c0.4,1.1,0.7,2.6,1,4.4s0.4,3.4,0.3,4.8c-0.2,1.3-0.3,2.6-0.3,3.8C56.7,75,50.8,75,44.3,75c-0.3-2.3-0.3-3.7-0.1-4.3l0.1-1.2
	c0-0.3,0-0.9,0-1.8c0.1-1.4,0.4-2.7,0.8-3.9c0.5-1.4,1.1-2.6,1.9-3.7l0.6-0.7c0.1-0.1,0.3-0.3,0.6-0.6c0.2-0.1,0.3-0.2,0.4-0.3
	c-0.6-0.4-1.1-0.7-1.3-0.9c-0.8-0.6-1.4-1.1-1.9-1.8c-0.4-0.4-0.6-0.7-0.5-0.9c0.1-0.1,0.4,0,1,0.2c0.4,0.2,1.1,0.6,2.2,1.1
	c1.4,0.7,2.4,1.2,3.2,1.6c1.4,0.6,2.8,1,4.1,1.2c1.4,0.2,2.7,0.2,4.1,0c0.6-0.1,1.1-0.2,1.8-0.4c0.2-0.1,0.7-0.2,1.6-0.5
	c0.8-0.3,1.2-0.5,1.3-0.5l1-0.4c0.5-0.2,0.8-0.3,1-0.2C66.1,57.1,65.9,57.3,65.5,57.8z M49.4,59.9c-0.2,0.2-0.4,0.4-0.5,0.6
	l-0.4,0.7c-0.6,1-1.1,2.1-1.5,3.2c-0.3,1-0.6,2.2-0.9,3.5l-0.4,3.1c-0.1,0.6-0.1,1-0.1,1.4c5.4,0,10.4,0,15,0.1c0-0.2,0-0.4,0-0.6
	c-0.3-2.9-0.5-5-0.6-6.2c-0.2-1.1-0.4-2.3-0.7-3.2c-0.2-0.5-0.3-1-0.5-1.4c-1.3,0.1-2.6,0.1-3.8-0.1c-1.5-0.2-3-0.7-4.5-1.6L50,59.2
	l-0.2,0.2C49.6,59.6,49.5,59.8,49.4,59.9z M26,44.5c0.4,0.2,0.8,0.5,1.2,0.7c1.5,1.1,2.9,2.7,4.2,4.7c0.6,1,1.2,2.1,1.7,3.3
	s0.9,2.6,1.3,3.8c1.1,4.2,1.6,8.9,1.2,13.8c0,0.4,0,1.9,0.1,4.1c-0.2,0-0.4,0-0.6,0c-0.3,0-0.5,0-0.8,0c-6.6,0-12.5-0.1-17.7-0.3
	C9.1,74.4,5.3,74,5.3,73.7s3.8-0.6,11.3-0.9c5.2-0.2,11-0.3,17.6-0.3c0-0.6,0-1.2,0-1.8c-0.1-2.3-0.2-4.2-0.5-6
	c-0.3-2.6-0.7-5-1.3-7.1C32,56.2,31.6,55,31.2,54c-0.4-1.1-0.9-2.2-1.5-3.2c-1.1-1.9-2.2-3.3-3.5-4.4c-0.3-0.3-0.6-0.5-1-0.8
	c-0.2,0.2-0.4,0.5-0.6,0.6c-0.5,0.4-1,0.7-1.7,1c-0.4,0.1-1,0.3-1.9,0.5l-1.9,0.4c-1,0.2-1.8,0.3-2.1,0.4l-1,0.3c0,0-0.4,0-1,0v0.1
	c0,1.1,0,1.8,0,1.8c0.1,0.9,0.2,1.8,0.5,2.5c0.3,1,0.7,1.9,1.2,2.7c0.6,0.9,1.3,1.6,2,2c0.6,0.3,1.3,0.6,2.1,0.6c0.3,0,0.9,0,1.7,0
	c0.5,0,0.7,0.1,0.7,0.2c0,0.2-0.1,0.4-0.5,0.6c-0.6,0.3-1.2,0.6-1.9,0.7c-1.1,0.1-2.1,0-3-0.4c-1.1-0.5-2.1-1.3-2.9-2.6
	c-0.7-0.9-1.2-2.1-1.4-3.4c-0.2-1-0.2-2,0-3c0.1-0.7,0.3-1.2,0.6-1.8h-1.6c-0.5,0-0.9,0-1.2,0l-1.2-0.1c-1-0.2-1.8-0.3-2.4-0.6
	c-0.5-0.2-1-0.4-1.3-0.7L6,47c-0.1-0.1-0.2-0.3-0.3-0.5c-0.1-0.3-0.2-0.7-0.1-1.1c0-0.2,0.1-0.4,0.1-0.5L6,44.7L6.6,44L7,43.7l1-0.4
	c0.7-0.2,1.4-0.4,2.2-0.4l1.5-0.2c0.1,0,0.2-0.1,0.4-0.1l1.7-0.4c0.7-0.2,1.2-0.4,1.6-0.5l1.4-0.5c1.2-0.5,2.6-1.2,4.3-2.1
	c1-0.6,1.6-0.8,1.7-0.7c0.1,0.1-0.3,0.6-1.2,1.3c-1.2,1-2.5,2-4.1,2.8L16,43.1c-0.4,0.2-1,0.4-1.6,0.7l-1.9,0.6
	c-0.1,0.1-0.3,0.1-0.6,0.1l-1.6,0.1c-0.8,0.1-1.4,0.3-1.9,0.4l-0.3,0.1L8,45.4l-0.3,0.4l0,0C7.8,45.9,8,46,8.4,46.1
	c0.5,0.2,1.2,0.3,2,0.4l1.1,0.1l3.2,0.1c0.2,0,0.6,0,1,0l1-0.1c0.2,0,0.8-0.1,2-0.3c0.4-0.1,1-0.2,1.9-0.3c0.7-0.1,1.2-0.2,1.7-0.3
	c0.5-0.2,0.9-0.4,1.3-0.6c0.2-0.2,0.3-0.3,0.5-0.5c0.2-0.3,0.4-0.5,0.4-0.5c0.2-0.3,0.4-0.7,0.5-1.1c0-0.3,0.1-0.5,0.1-0.6v-0.5
	c-0.1-0.6-0.3-1.1-0.7-1.7c-0.1-0.1-0.3-0.2-0.5-0.4c-0.2-0.1-0.4-0.2-0.5-0.2c-0.3-0.2-0.4-0.3-0.4-0.3c0-0.1,0.2-0.1,0.5-0.1
	c0.1,0,0.3,0,0.6,0.1c0.4,0.2,0.7,0.3,0.8,0.4c0.3,0.2,0.5,0.4,0.8,0.8c0.2,0.4,0.4,0.8,0.5,1.2c0,0.1,0.1,0.3,0.1,0.7
	c0,0.2,0,0.4,0,0.8C26.3,43.6,26.2,44.1,26,44.5z"/>
</svg>
