<?xml version="1.0" encoding="utf-8"?>
<!-- Generator: Adobe Illustrator 21.1.0, SVG Export Plug-In . SVG Version: 6.00 Build 0)  -->
<svg version="1.1" id="Layer_1" xmlns="http://www.w3.org/2000/svg" xmlns:xlink="http://www.w3.org/1999/xlink" x="0px" y="0px"
	 viewBox="0 0 84.9 44" style="enable-background:new 0 0 84.9 44;" xml:space="preserve">
<path d="M84.9,7c0-3.9-3.1-7-7-7H40.9c0,0,0,0,0,0H16.1C7.2,0,0,7.2,0,16.1v8.7c0,0.1,0,0.1,0,0.2c0,4.9,2.6,8.6,6.2,11.3
	C16.9,44,37,44,37.1,44h0c0.3,0,0.6-0.1,0.9-0.3c4.2-3.3,7.9-5,10.5-6c1.3-0.5,2.4-0.7,3.1-0.9c0.4-0.1,0.6-0.1,0.8-0.1
	c0.2,0,0.2,0,0.2,0c0.5,0,1-0.4,1.2-0.8c0.6-1.4,1-2.7,1-3.9c0-2-1-3.6-2.3-4.5c-2.5-1.7-5.6-1.8-7.1-1.8c-0.5,0-0.8,0-0.8,0
	c-0.2,0-0.4,0.1-0.5,0.1c-5.4,2.6-8.7,3.3-10.4,3.3c-1.2,0-1.7-0.3-1.9-0.4c0,0,0,0,0,0l-0.6-3.9h43.5c3.9,0,7-3.1,7-7
	c0-1.5-0.5-3-1.4-4.3C82.9,12.6,84.9,10,84.9,7z M79.3,10.8H49.1c-0.8,0-1.4,0.6-1.4,1.5c0,0.8,0.6,1.4,1.4,1.4h27
	c1.5,0.6,2.7,2.3,2.6,4.1c0,2.3-1.8,4.1-4.1,4.1H29.4c-0.4,0-0.8,0.2-1.1,0.5s-0.4,0.8-0.3,1.2l1,5.9l0.1,0.3
	c0.1,0.4,1.4,2.3,4.6,2.2c2.4,0,5.9-0.8,11.4-3.5c0.1,0,0.2,0,0.4,0c1.2,0,4,0.2,5.4,1.2c0.7,0.5,1.1,1,1.1,2.1c0,0.5-0.1,1.2-0.4,2
	c-2.2,0.4-7.9,1.8-14.9,7.2c-0.8,0-2.6-0.1-5-0.3c-4.9-0.4-12.4-1.5-18.4-4c-3-1.2-5.7-2.8-7.5-4.8c-1.8-2-2.9-4.2-2.9-7.1v-0.2
	v-8.7c0-7.3,5.9-13.1,13.2-13.2h19.6c0,0,0,0,0,0h42.2C80.1,2.9,82,4.7,82,7C82,8.7,80.9,10.2,79.3,10.8z"/>
</svg>
