<?xml version="1.0" encoding="utf-8"?>
<!-- Generator: Adobe Illustrator 21.1.0, SVG Export Plug-In . SVG Version: 6.00 Build 0)  -->
<svg version="1.1" id="Layer_1" xmlns="http://www.w3.org/2000/svg" xmlns:xlink="http://www.w3.org/1999/xlink" x="0px" y="0px"
	 viewBox="0 0 89.6 61.4" style="enable-background:new 0 0 89.6 61.4;" xml:space="preserve">
<path d="M53.9,20.2c-1.8-1-4.2-1.6-7-1.8c-0.9-0.1-3.8-0.2-8.5-0.2c-4-0.1-7.3-0.5-9.8-1.4c-0.6-0.2-1-0.4-1.3-0.5l-1.5-1
	c-0.6-0.5-0.9-1-1.1-1.3c-0.4,0.2-0.8,0.2-1.1-0.1c-0.3-0.3-0.5-0.7-0.4-1.4l0.4-1.1c0.6-1.6,0.7-3.2,0.2-4.6
	c-0.5-1.5-1.2-2.6-2.2-3.4c-1-0.7-2.1-1.1-3.2-1.1c-1.2,0-2.2,0.2-3,0.6c-0.7,0.4-1.3,1-1.8,1.8c-0.1,0.3-0.2,0.6-0.4,1.1l-0.1,0.5
	L13,6.9c-0.1,1.1,0.1,2.2,0.6,3.4l0.3,0.6l0.7,0.9l0.9,0.9l0.4,0.3c0.3,0.3,0.5,0.4,0.5,0.5c0,0-0.2,0-0.6-0.1
	c-0.4-0.1-0.8-0.2-1.3-0.6l-0.4-0.3l-0.4-0.3c-0.2,0.3-0.5,0.6-0.9,0.9l-1.9,1.6c-1.2,1-2.3,2.3-3.1,4c-0.5,0.9-1.1,2.5-2,4.8
	l-1.9,4.8C3,30.6,2.5,32,2.4,32.5c-0.2,0.7-0.2,1.2,0,1.4c0.1,0.3,0.4,0.5,0.8,0.7c0.8,0.3,2,0.5,3.6,0.4c0.9,0,2.1-0.1,3.7-0.2
	c1.9-0.1,3.2-0.1,3.9,0.1c1,0.2,2,0.9,3.2,2c0.7,0.7,1.3,1.5,1.9,2.4c0.8,1.1,1.8,2.6,2.9,4.5c1.9,3.3,3.2,5.6,3.9,6.8
	c0.8,1.3,1.7,2.5,2.6,3.4l0.3,0.4l1.7,1.5C30,56,29.3,56.1,29,56.1c-1.6,0.1-2.8,0.5-3.6,1.2c-0.1,0.1-0.4,0.4-0.9,0.8
	c0.1,0,0.3-0.1,0.5-0.1l16.2-0.1c0.7,0,1.7,0.1,3.1,0.1c1.4,0.1,3.4,0.3,5.9,0.6c2.2,0.2,4,0.2,5.5,0.1c0.6,0,1.5-0.1,2.6-0.3
	c0.7-0.2,1.5-0.4,2.3-0.8c1.4-0.6,2.8-1.5,4.1-2.6c2.4-2.1,4.2-4.6,5.2-7.3c0.4-1.1,0.7-2.5,0.9-4.1c0.1-1.1,0-2.4-0.2-3.9
	c-0.3-1-0.7-2.2-1.3-3.6c0-0.1-0.6-1.2-1.7-3.4c-0.8-1.6-1.3-2.7-1.6-3.4c-0.5-1.3-0.8-2.5-0.8-3.7c-0.1-0.4,0-1,0.1-1.8
	c0-0.2,0.2-0.8,0.5-1.8l0.9-1.5l1-1.2l0.1-0.1c1.3-1.5,3.1-2.5,5.4-3.1c1.9-0.5,3.7-0.7,5.4-0.5c1.7,0.1,3.3,0.5,4.7,1.1
	c0.7,0.3,1.3,0.7,1.8,1.2c0.5,0.4,0.9,0.8,1.4,1.4c1.4,1.7,2.4,3.6,2.8,5.7c0.4,1.7,0.4,3.1,0.1,4.4c-0.3,1-0.8,1.8-1.5,2.4
	c-0.3,0.3-0.7,0.5-1.3,0.8l-0.8,0.2l0.7-0.4c0.4-0.2,0.8-0.5,1.1-0.8c0.6-0.6,0.9-1.4,1.2-2.2c0.2-1.2,0.1-2.5-0.3-4
	c-0.6-2-1.6-3.7-2.9-5.2c-0.9-1-1.8-1.7-2.8-2.1c-1.2-0.5-2.6-0.8-4.2-0.8c-1.7-0.1-3.4,0.1-4.9,0.6c-2,0.6-3.4,1.5-4.4,2.8L69,20.6
	l-0.8,1l-0.6,1.2c-0.3,1-0.5,1.9-0.4,2.7c0.1,1.4,0.9,3.5,2.3,6.2c1.1,2.1,1.7,3.3,1.8,3.4c0.7,1.4,1.2,2.8,1.5,4.1l0.3,2.2v2.3
	c-0.1,1.7-0.4,3.3-1,4.7c-1.1,3.2-3.1,6-5.8,8.4c-1.4,1.2-3,2.2-4.7,3c-0.7,0.4-1.6,0.7-2.8,1c-1.4,0.3-2.4,0.5-2.9,0.5
	c-1.6,0.1-3.6,0.1-5.9-0.1c-2.6-0.3-4.6-0.4-5.9-0.5c-1.3,0-2.3-0.1-3-0.1l-9.6-0.1c-1.7,0-3.6-0.1-5.6-0.2s-3-0.3-3.1-0.6l0,0
	c-0.1-0.4-0.1-0.8-0.1-1.1c0.2-1.1,0.6-2,1.1-2.8c0.6-0.7,1.3-1.2,2.1-1.5c0.5-0.2,1-0.3,1.6-0.3c-0.6-0.6-1.4-1.4-2.2-2.5
	c-0.7-0.9-2.2-3.1-4.4-6.6l-0.7-1.1c-0.3,0-0.6-0.1-1.1-0.2c-1.9-0.4-3.5-0.5-4.7,0c-0.7,0.2-1.2,0.7-1.8,1.5
	c-0.2,0.3-0.4,0.7-0.6,1c-0.1,0.1-0.2,0.2-0.2,0.2l-0.1-0.2c-0.2-0.4-0.3-0.8-0.2-1.3c0,0,0-0.2,0.1-0.7l0.3-0.8
	c0.4-0.7,0.9-1.2,1.6-1.6c1.3-0.7,2.8-1,4.6-0.9l0,0c-0.9-1.1-1.5-1.9-1.9-2.2c-0.8-0.8-1.5-1.2-2.2-1.4c-0.4-0.1-1.4-0.1-3.1,0.1
	L7,37.6H4.9c-1-0.1-1.8-0.2-2.3-0.4c-0.6-0.3-1.1-0.5-1.3-0.7c-0.5-0.3-0.8-0.8-1-1.3c-0.3-0.7-0.4-1.7-0.2-3
	c0.1-0.7,0.7-2.3,1.7-4.6l1.8-4.7c0.8-2.3,1.5-4.1,2.1-5.2c0.2-0.5,0.8-1.3,1.6-2.6l1.1-1.2c0.5-0.5,0.9-0.9,1.1-1.1
	c1.2-0.8,2-1.3,2.4-1.5l0.8-0.2c-0.9-1.3-1.3-2.7-1.3-4.2V6.2c0.1-0.3,0.1-0.5,0.1-0.7c0-0.4,0.2-0.9,0.5-1.5
	c0.6-1.2,1.4-2.1,2.5-2.8S17,0.1,18.6,0c1.8,0,3.4,0.5,4.8,1.5C25,2.6,26,4.1,26.6,6.1c0.6,2.1,0.6,4.2-0.2,6.4
	c-0.1,0.2-0.1,0.4-0.2,0.5c0.3,0,0.8,0.2,1.2,0.5l2.6,0.9c2.1,0.8,5.1,1.2,8.9,1.2c1,0,2.5,0.1,4.5,0.1c1.7,0,3.1,0.1,4.2,0.2
	c3.2,0.3,5.9,1,8,2.1s4,2.8,5.7,4.9c2.5,3.2,4.1,6.9,4.8,11.3c0.5,3.2,0.5,6.3-0.1,9.5c-0.9,4.4-2.7,8-5.5,10.7
	c-1.3,1.3-2.8,2.3-4.4,3L56,57.5c-0.5,0.3-0.8,0.4-1,0.3h-0.2l0.2-0.1c0.2,0,0.5-0.2,0.8-0.4l0.2-0.2c0.6-0.4,1.1-0.8,1.5-1.2
	c0.8-0.7,1.5-1.4,2.3-2.2c2.4-2.9,3.9-6.3,4.5-10.3c0.5-3,0.4-5.9-0.1-8.9c-0.8-4.1-2.4-7.5-4.6-10.2c-0.5-0.6-1.3-1.4-2.3-2.2
	c-0.8-0.6-1.3-1-1.3-1L53.9,20.2z M47.3,35.6c0.8,0.2,1.1,0.6,1,1.1s-0.4,0.8-1,1l-1,0.4c-1.7,0.5-3,1.9-3.9,4.2
	c-0.3,0.9-0.5,1.8-0.6,2.7c-0.1,0.8,0,1.6,0.2,2.3c0.3,0.9,1.2,2.1,2.6,3.5l1.6,1.8c0.4,0.4,0.9,1.3,1.8,2.7c0,0.7-0.7,1-2.2,0.9
	S43.4,56.1,43,56c-0.3-0.1-1.3-0.2-2.8-0.5c-1.6-0.3-2.7-0.3-3.2,0c-0.3,0.2-0.6,0.5-0.8,0.9L36,56.6v-0.3v-0.5
	c0.1-0.3,0.2-0.6,0.6-0.9c0.6-0.6,1.9-0.9,3.8-0.8l4.2,0.3h0.2l0.1-0.1v-0.1l-1.7-1.7c-1-1-1.5-1.6-1.8-1.8
	c-0.7-0.9-1.2-1.7-1.5-2.6c-0.4-1-0.5-2.1-0.5-3.3c0-1.1,0.3-2.2,0.7-3.4c0.5-1.3,1.1-2.4,1.9-3.3c1-1.3,2.2-2.1,3.6-2.5l0.8-0.2
	L47.3,35.6z M17.9,5c0.5,0,0.9,0.1,1.3,0.2c0.6,0.2,1.2,0.5,1.6,1.1C21.5,7,21.9,7.9,22,8.8c0.2,1.3,0,2.4-0.6,3.5
	c-0.1,0.2-0.2,0.3-0.4,0.3c-0.3,0.1-0.6-0.1-1.1-0.4c-0.7-0.6-1-1-0.8-1.1c0.6-1.2,0.6-2.4-0.1-3.5c-0.3-0.5-0.8-1-1.5-1.4l-0.9-0.5
	l-0.1-0.1c0-0.1,0-0.1,0.1-0.2C17,5.2,17.4,5.1,17.9,5z"/>
</svg>
