<?xml version="1.0" encoding="utf-8"?>
<!-- Generator: Adobe Illustrator 21.1.0, SVG Export Plug-In . SVG Version: 6.00 Build 0)  -->
<svg version="1.1" id="Layer_1" xmlns="http://www.w3.org/2000/svg" xmlns:xlink="http://www.w3.org/1999/xlink" x="0px" y="0px"
	 viewBox="0 0 63.2 88.7" style="enable-background:new 0 0 63.2 88.7;" xml:space="preserve">
<g id="XMLID_1_">
	<path d="M63.1,60.2V21.1c0-3.9-3.1-7-7-7c-1.4,0-2.7,0.4-3.8,1.2v-4.4c0-3.9-3.1-7-7-7c-1.5,0-2.9,0.5-4.1,1.3
		c-0.9-3-3.6-5.2-6.8-5.2c-3.9,0-7,3.1-7,7v1.2C26.3,7.5,25,7,23.6,7c-3.9,0-7,3.1-7,7v22c-0.9-1.3-2.5-2.3-4.4-2.3
		c-1.2,0-2.5,0.3-3.9,1C7.8,35,7.5,35.4,7.4,36c0,0,0,0.1,0,0.2c-0.2,1.2-1.2,7.1-7,14.4c-0.2,0.3-0.3,0.6-0.3,1
		c0,0.1,0.7,9.1,3.7,18.2c1.5,4.6,3.5,9.2,6.4,12.7c2.9,3.6,6.8,6.1,11.6,6.1l0,0c0.1,0,0.1,0,0.2,0h24.9c8.9,0,16.1-7.2,16.1-16.1
		L63.1,60.2L63.1,60.2L63.1,60.2z M16.6,48.3v9L15.4,57c-0.1-0.1-0.5-0.5-0.5-2C15,53.7,15.3,51.5,16.6,48.3z M47,85.8
		c0,0-25,0-25.1,0c-3.8,0-6.8-1.9-9.4-5C8.7,76,6.2,68.6,4.8,62.5c-0.7-3.1-1.2-5.9-1.4-7.9c-0.2-1.2-0.3-2.1-0.3-2.7
		c5.3-6.9,6.7-12.7,7.1-14.8c0.8-0.3,1.5-0.4,2-0.4c1.1,0,1.6,0.4,2.1,1.1c1,1.4,1.3,4.2,1.2,5.4c0,0.1,0,0.3,0,0.4
		c-2.6,5.5-3.5,9-3.5,11.4c-0.1,3.2,1.8,4.5,2.2,4.6l3.4,1c0.2,0.1,1.2,0.1,1.2,0.1s0.5,0,1.4,0.1c2.7,0.4,8.3,1.8,10.3,6.3
		c0.2,0.5,0.8,0.8,1.3,0.8c0.2,0,0.4,0,0.6-0.1c0.7-0.3,1-1.2,0.7-1.9c-1.9-4-5.5-6-8.6-7.1c-2.2-0.7-4.2-1-5.1-1V14
		c0-2.3,1.8-4.1,4.1-4.1c1.7,0,3.2,1.1,3.8,2.6v31.9c0,0.8,0.6,1.5,1.4,1.5s1.5-0.6,1.5-1.4V7c0-2.3,1.8-4.1,4.1-4.1
		s4.1,1.8,4.1,4.1v39.6c0,0.8,0.6,1.4,1.4,1.4c0.8,0,1.5-0.7,1.5-1.4l0,0V9.3c0.6-1.5,2.1-2.6,3.8-2.6c2.3,0,4.1,1.8,4.1,4.1v37.4
		c0,0.8,0.6,1.4,1.4,1.4s1.5-0.7,1.5-1.4l0,0V19.6c0.6-1.5,2.1-2.6,3.8-2.6c2.3,0,4.1,1.8,4.1,4.1v39.1v12.4
		C60.2,79.9,54.3,85.7,47,85.8z"/>
</g>
</svg>
