<?xml version="1.0" encoding="utf-8"?>
<!-- Generator: Adobe Illustrator 21.1.0, SVG Export Plug-In . SVG Version: 6.00 Build 0)  -->
<svg version="1.1" id="paper" xmlns="http://www.w3.org/2000/svg" xmlns:xlink="http://www.w3.org/1999/xlink" x="0px" y="0px"
	 viewBox="0 0 340.2 340.2" style="enable-background:new 0 0 340.2 340.2;" xml:space="preserve">
<style type="text/css">
	.st0{fill:#447391;}
	.st1{fill:#FCFCFD;}
	.st2{fill:#77AFBF;}
</style>
<title>paper</title>
<path class="st0" d="M3.1,168.8C3.3,76.4,78.6,1.8,171.5,2.1c92.4,0.3,166.9,75.7,166.6,168.6c-0.3,92.1-75.6,166.8-168.3,166.4
	C76.8,336.6,2.9,261.2,3.1,168.8L3.1,168.8z M170.7,324.6c81.8,0.3,152.4-65.3,154.1-151.1c1.8-89.6-70.9-157.9-154.6-157.7
	C85.3,15.9,17.1,84.7,15.9,167.7C14.5,254.4,85.1,325.2,170.7,324.6L170.7,324.6z"/>
<path class="st1" d="M170.7,324.6c-85.6,0.6-156.2-70.2-154.8-156.9c1.3-83,69.5-151.8,154.3-151.9c83.7-0.1,156.3,68.1,154.6,157.7
	C323.1,259.3,252.4,324.9,170.7,324.6L170.7,324.6z M124.7,180.6c5.5,8.3,11,16.6,16.4,25c2.3,3.3,4.1,6.9,5.3,10.7
	c1.4,4.8-1.2,10.4-5.9,13.1c-4.9,2.8-6.3-1.5-8.7-4c-1-1.1-2-2.2-3.1-3.3c-11.2-11.2-22.3-22.4-33.5-33.7
	c-5.5-5.5-9.4-11.8-10.3-19.5c-3-26.8-23.6-40.8-41.3-57.6c-1.1,2.4-1.9,4-2.5,5.7c-10.3,25.2-12.8,51.2-8,77.8
	C46,267.7,116.8,318.3,190,307c95.3-14.7,147.9-118.1,101.8-202.9c-27.6-50.8-72.2-74.9-130.1-73c-25.9,0.8-49.5,9.5-70.9,24.1
	c-2.4,1.6-3.2,2.7-0.8,5.2c6.8,7.4,14.2,13.9,23.1,18.8c12.5,6.7,25.3,12.6,38.5,17.7c33,13,59.8,34.5,83.2,60.5
	c2.6,2.8,5.3,5.6,6,9.6c0.5,1.8-0.1,3.8-1.6,5c-1.6,1.3-2.8-0.3-4-1.1c-17.2-10.8-33.4-23.3-48.1-37.2c-1.3-1.1-2.2-2.4-2.7-4
	c-3,2.9-2.8,5.1,0.3,8.1c16.3,15.4,34.3,28.5,53.2,40.4c5.9,3.7,6.5,7.3,2.6,13.1c-1.6,2.4-3,2.9-5.7,1.3
	c-12.3-7.3-24.7-14.5-36.1-23.2c-8.4-6.4-16.7-13-25-19.5c-3.2,3.1-3.2,3.1,0.4,6.1c19.3,16,39.6,30.4,61.7,42.4
	c2.7,1.5,4.9,3.1,4,6.5c-1,4.2-4.3,7.4-8.5,8.4c-4.3,1.1-9,2.4-12.7-1.5c-6-6.3-13.1-11.3-20.2-16.3c-10.7-7.5-21.2-15.1-31.2-23.3
	c-1.6-1.3-3.3-3.1-5-1.2c-1.9,2.2,0.7,3.5,2.1,4.5c7.6,5.9,15.3,11.7,23.1,17.5c8.6,6.5,18,12,25.8,19.6c2.3,2.2,4.8,4.3,2.4,8
	s-4.8,7.4-10,6.9c-4.7-0.5-9.2-1.7-13.4-3.8c-9.9-4.8-19.1-11-27.3-18.3C153.1,195.1,139.2,187.6,124.7,180.6L124.7,180.6z"/>
<path class="st0" d="M124.8,180.6c14.5,7,28.3,14.5,40.3,24.9c8.2,7.3,17.4,13.4,27.3,18.3c4.2,2,8.7,3.3,13.4,3.8
	c5.2,0.5,7.6-3.2,10-6.9s-0.1-5.8-2.4-8c-7.8-7.6-17.2-13.1-25.8-19.6c-7.7-5.8-15.4-11.6-23.1-17.5c-1.3-1-4-2.4-2.1-4.6
	c1.7-2,3.4-0.1,5,1.2c10.1,8.2,20.6,15.8,31.2,23.3c7.1,5,14.2,10,20.2,16.3c3.7,3.9,8.3,2.6,12.7,1.5c4.2-1,7.5-4.2,8.5-8.4
	c0.9-3.5-1.3-5.1-4-6.5c-22-12-42.4-26.4-61.7-42.4c-3.6-3-3.6-2.9-0.4-6.1c8.4,6.5,16.7,13.1,25,19.5c11.4,8.7,23.8,15.9,36.1,23.2
	c2.6,1.6,4.1,1.1,5.7-1.3c3.8-5.8,3.3-9.4-2.6-13.1c-19-11.9-37-25-53.2-40.4c-3.2-3-3.3-5.2-0.3-8.1c0.5,1.6,1.4,2.9,2.7,4
	c14.8,14,30.9,26.4,48.1,37.2c1.2,0.7,2.3,2.3,4,1.1c1.5-1.2,2.1-3.2,1.6-5c-0.8-4-3.5-6.8-6-9.6c-23.5-26-50.2-47.5-83.2-60.5
	c-13.2-5-26.1-10.9-38.6-17.7c-8.9-4.9-16.3-11.4-23.1-18.8c-2.3-2.5-1.6-3.6,0.8-5.2c21.4-14.6,45-23.3,70.9-24.1
	c57.9-1.8,102.5,22.3,130.1,73c46.1,84.8-6.5,188.1-101.8,202.8c-73.3,11.3-144-39.3-156.9-112.2c-4.7-26.7-2.2-52.7,8-77.8
	c0.7-1.7,1.5-3.3,2.5-5.7C61.4,128.1,82,142.1,85,168.9c0.9,7.7,4.8,14.1,10.3,19.5c11.2,11.2,22.3,22.4,33.5,33.7
	c1.1,1.1,2,2.2,3.1,3.3c2.4,2.5,3.8,6.8,8.7,4c4.6-2.6,7.3-8.2,5.9-13.1c-1.3-3.8-3-7.4-5.3-10.7
	C135.7,197.2,130.2,188.9,124.8,180.6L124.8,180.6z M154.2,210l-0.6-0.4l0.3,0.6c0.3,3.6,1.5,7.1,1.2,10.9
	c-0.8,10.8-12,19.8-21.4,17c-4.4-1.3-6.3-5.2-9.2-8.1c-11-11.1-22.1-22.2-33.2-33.2c-7.7-7.7-13.3-16.6-15-27.6
	c-1.5-9.6-4.7-18.3-11.5-25.5c-3.4-3.6-6.9-7.3-10.4-10.8c-1.4-1.3-2.5-4-4.5-3.4c-2.2,0.6-2.1,3.6-2.7,5.6
	c-4.5,16.6-5.6,33.9-3.3,50.9c4.6,34.5,21,62.4,48.6,83.4c26.4,20.1,56.3,28.2,89.4,24.8c27-2.8,51-13,70.7-31.5
	c34.1-31.9,47.5-71.4,39.2-117.5c-5.5-30.7-21.1-55.9-45.8-74.9c-29.2-22.6-62.4-31-98.9-25.1c-14.3,2.3-28.1,7.3-40.6,14.5
	c-3.1,1.8-2.8,3.2-0.4,5.1c0.9,0.7,1.9,1.4,2.8,2c15.3,10.7,33,16.4,49.7,24.3c12.5,5.9,25.4,11.1,36.6,19.2
	c16.8,12.1,31.6,26.5,45.7,41.6c5.6,6,10.1,12.5,7.4,21.5c-0.1,0.8,0.1,1.6,0.6,2.3c4.2,6.4,2.9,12.7-0.4,18.8
	c-0.9,1.5-1.2,3.3-0.8,5.1c1.8,11.6-6.7,22.3-18.2,22.5c-4,0.1-5.8,1.6-7.8,4.6c-4.6,7.2-10.9,10.4-19.9,8.8
	c-11.8-2-22-7.4-31.7-13.8C164.8,218,159.6,213.9,154.2,210L154.2,210z"/>
<path class="st2" d="M154.2,210c5.3,3.9,10.5,8,16,11.7c9.7,6.5,19.9,11.8,31.7,13.8c9,1.6,15.3-1.6,19.9-8.8c2-3.1,3.8-4.6,7.8-4.6
	c11.6-0.2,20.1-10.9,18.2-22.5c-0.4-1.7,0-3.5,0.8-5.1c3.3-6.1,4.6-12.5,0.4-18.8c-0.5-0.7-0.7-1.5-0.6-2.3c2.7-9-1.8-15.5-7.4-21.5
	c-14.1-15.1-28.9-29.5-45.7-41.6c-11.2-8.1-24.2-13.2-36.6-19.2c-16.6-7.9-34.4-13.6-49.7-24.3c-1-0.7-1.9-1.3-2.8-2
	c-2.4-1.9-2.7-3.3,0.4-5.1c12.6-7.2,26.3-12.1,40.6-14.5c36.5-6,69.7,2.5,98.9,25.1c24.6,19,40.2,44.2,45.8,74.9
	c8.3,46.1-5.1,85.6-39.2,117.5c-19.7,18.4-43.6,28.7-70.7,31.5c-33.1,3.4-63-4.7-89.4-24.8c-27.7-21-44-48.8-48.6-83.4
	c-2.3-17-1.1-34.3,3.3-50.9c0.5-2,0.5-4.9,2.7-5.6c2-0.6,3.2,2,4.5,3.4c3.6,3.5,7,7.1,10.4,10.8c6.7,7.2,10,15.9,11.5,25.5
	c1.7,10.9,7.2,19.9,15,27.6c11.1,11.1,22.2,22.1,33.2,33.2c2.9,2.9,4.8,6.8,9.2,8.1c9.3,2.8,20.6-6.2,21.4-17
	c0.3-3.7-0.9-7.2-1.2-10.9L154.2,210z"/>
<path class="st2" d="M153.9,210.2l-0.3-0.6l0.6,0.4L153.9,210.2z"/>
</svg>
