<?xml version="1.0" encoding="utf-8"?>
<!-- Generator: Adobe Illustrator 21.1.0, SVG Export Plug-In . SVG Version: 6.00 Build 0)  -->
<svg version="1.1" id="paper" xmlns="http://www.w3.org/2000/svg" xmlns:xlink="http://www.w3.org/1999/xlink" x="0px" y="0px"
	 viewBox="0 0 340.2 340.2" style="enable-background:new 0 0 340.2 340.2;" xml:space="preserve">
<style type="text/css">
	.st0{fill:#447391;}
	.st1{fill:#FCFCFD;}
	.st2{fill:#77AFBF;}
</style>
<title>paper</title>
<path class="st0" d="M304.4,68.8c55.8,73.6,41,178.6-33.2,234.7C197.4,359.1,92.5,344.1,36.5,270C-19,196.6-4.4,91.6,69.8,35.7
	C144.1-20.1,248.5-4.9,304.4,68.8L304.4,68.8z M76.7,46.4c-65.2,49-81.9,144.1-31.3,213.4c52.8,72.4,152,82.7,218.5,31.9
	c67.6-51.4,80.2-147.5,30.9-214.2C243.5,7.6,144.4-6,76.7,46.4L76.7,46.4z"/>
<path class="st1" d="M76.7,46.4C144.5-6,243.5,7.6,295,77.5c49.2,66.6,36.5,162.8-30.9,214.2c-66.5,50.8-165.5,40.6-218.4-31.9
	C-5.1,190.5,11.6,95.4,76.7,46.4L76.7,46.4z M200.4,133.1c-9.4-3.2-18.7-6.7-28.2-10.1c-3.9-1.1-7.5-3-10.8-5.3
	c-4-2.9-5.3-8.9-3.3-14c2.2-5.3,5.9-2.6,9.3-2.1c1.5,0.2,2.9,0.6,4.5,0.7c15.8,2.1,31.3,4.4,47.2,6.6c7.7,1.1,14.5,3.8,20,9.3
	c18.7,19.6,43.5,18.3,67.8,20.9c-0.6-2.6-0.8-4.3-1.5-6c-7-26.2-20.7-48.4-40.7-66.8C210.4,16,123.5,18.6,72,72
	c-66.9,69.3-46.2,183.5,42.1,223.5c52.7,23.6,102.9,15.8,147.7-20.7c20.3-16.4,33.7-37.6,41.9-62.1c1-2.8,0.8-4.2-2.6-4.7
	c-10-1.7-19.9-2.6-29.8-1c-14,2.3-27.9,5.3-41.4,9.3c-34,9.6-68.3,8.7-102.8,2.2c-3.8-0.5-7.7-1.2-10.6-4c-1.5-1-2.2-2.9-1.8-4.8
	c0.4-2.1,2.4-1.4,3.8-1.6c20.1-1.6,40.5-1.6,60.7,0.6c1.8,0,3.3,0.6,4.7,1.5c0.7-4.2-0.9-5.7-5.2-6.2c-22.3-2.4-44.5-2-66.8,0
	c-6.9,0.6-9.7-2-10-8.9c-0.1-2.9,0.6-4.2,3.7-4.5c14.2-1.7,28.4-3.5,42.7-3.5c10.6,0,21.2,0.3,31.7,0.4c0.6-4.5,0.6-4.5-4.1-4.6
	c-25-1.1-50-0.2-74.8,3.6c-3.1,0.4-5.8,0.4-7.1-2.8c-1.8-4-1-8.6,1.7-11.9c2.7-3.5,5.7-7.3,11-6.5c8.6,1.4,17.3,1,25.9,0.7
	c13.1-0.5,26-0.7,38.9-0.3c2.1,0,4.4,0.4,4.7-2.1c0.2-3-2.6-2.5-4.3-2.3c-9.6,0-19.2-0.1-28.9,0.1c-10.7,0.1-21.4,1.3-32.3,0
	c-3.2-0.5-6.4-0.7-6.8-5s-0.7-8.7,3.8-11.5c3.8-2.4,8.2-4.2,12.8-5.1c10.8-2.2,21.8-2.8,32.8-2C169,138.7,184.6,136.3,200.4,133.1
	L200.4,133.1z"/>
<path class="st0" d="M200.3,133.2c-15.7,3.1-31.1,5.6-47.4,4.3c-10.9-0.8-22-0.1-32.8,2c-4.4,1-8.7,2.6-12.8,5.1
	c-4.5,2.8-4.2,7.1-3.8,11.5c0.4,4.5,3.6,4.6,6.8,5c10.7,1.3,21.5,0.1,32.3,0c9.6-0.2,19.2-0.1,28.9-0.1c1.7-0.1,4.6-0.6,4.4,2.3
	c-0.1,2.6-2.6,2.1-4.7,2.1c-13.1-0.5-26-0.2-38.9,0.3c-8.6,0.3-17.2,0.7-25.9-0.7c-5.2-1-8.2,3-11,6.5c-2.7,3.5-3.5,8.1-1.7,11.9
	c1.4,3.5,4.1,3.3,7.1,2.8c24.9-3.7,49.7-4.7,74.8-3.6c4.7,0.2,4.6,0.1,4.1,4.6c-10.6,0-21.2-0.3-31.7-0.4c-14.3,0-28.5,1.7-42.7,3.5
	c-3,0.3-3.8,1.6-3.7,4.5c0.4,7,3.1,9.4,10,8.9c22.3-2,44.5-2.5,66.8,0c4.3,0.4,5.8,2,5.2,6.2c-1.5-0.9-3-1.5-4.7-1.5
	c-20.1-2.3-40.5-2.4-60.7-0.6c-1.4,0.3-3.3-0.4-3.8,1.6c-0.4,1.6,0.2,3.8,1.8,4.8c3,2.6,6.9,3.3,10.6,4c34.4,6.4,68.7,7.4,102.8-2.2
	c13.4-4.1,27.3-7.1,41.4-9.4c10-1.5,19.8-0.7,29.8,1c3.4,0.6,3.6,1.9,2.6,4.7c-8.4,24.6-21.9,45.8-41.9,62.1
	c-44.9,36.6-95.2,44.4-147.7,20.7C25.7,255.5,5.1,141.5,72,72.1c51.4-53.3,138.3-55.9,192.6-5.4c19.9,18.3,33.6,40.6,40.7,66.8
	c0.5,1.8,0.9,3.5,1.5,6c-24.3-2.8-49.3-1.4-67.8-21c-5.4-5.7-12.3-8.3-20-9.3c-15.8-2.1-31.3-4.4-47.2-6.6c-1.5-0.1-2.9-0.6-4.5-0.7
	c-3.3-0.7-7.2-3.2-9.3,2.1c-2,5-0.8,11,3.3,14c3.5,2.2,6.9,4.1,10.8,5.3C181.4,126.5,191,129.9,200.3,133.2L200.3,133.2z
	 M159.1,127.6l0.8,0.2l-0.6-0.3c-2.3-2.8-5.5-4.8-7.5-8c-5.8-9.2-2.4-23.1,6.8-26.6c4.4-1.6,8.2,0.4,12.3,0.9
	c15.6,2,31,4.3,46.6,6.2c10.7,1.3,20.7,5.1,28.6,12.8c6.9,6.7,14.8,11.9,24.6,13.4c4.9,0.8,10,1.6,14.9,2.2c1.9,0.1,4.5,1.7,5.6-0.1
	c1.4-1.7-0.5-4.1-1.3-6c-6.6-15.8-16.2-30.4-28.3-42.5c-24.6-24.7-54.6-37-89.2-37c-33.1,0.1-61.8,11.7-86.1,34.4
	c-19.9,18.5-32.8,41.2-37.1,68.1c-7.7,46.1,5.5,85.5,40,117.2c22.9,21.1,50.7,31.5,81.8,31.8c36.9,0.2,68.4-13.1,93.9-39.8
	c10-10.4,18-22.7,23.5-36.1c1.4-3.4,0.3-4.2-2.8-4.3c-1.1,0.1-2.3,0-3.4,0.1c-18.7,0.7-36.3,6.9-54.3,10.7
	c-13.6,2.9-27,6.5-40.8,6.9c-20.7,0.4-41.3-1.9-61.6-5.5c-8-1.5-15.6-3.9-18.9-12.7c-0.5-0.7-1.2-1.2-2-1.4
	c-7.2-2.5-10.1-8.3-11.1-15.1c-0.3-1.7-1-3.5-2.5-4.6c-8.6-8.1-8.3-21.8,0.8-28.9c3.2-2.5,3.6-4.8,3.4-8.4
	c-0.6-8.5,2.5-15,10.6-19.1c10.6-5.6,22.1-7.4,33.6-8.2C145.8,127.7,152.5,127.8,159.1,127.6L159.1,127.6z"/>
<path class="st2" d="M159,127.3c-6.6,0-13.2-0.1-19.8,0.3c-11.6,0.7-23,2.6-33.6,8.2c-8.3,4.1-11.3,10.6-10.6,19.1
	c0.2,3.7-0.2,6-3.4,8.4c-9,7.2-9.3,20.8-0.8,28.9c1.4,1.2,2.1,2.9,2.5,4.6c1.1,6.7,4,12.5,11.1,15.1c0.9,0.2,1.6,0.7,2,1.4
	c3.3,9,10.7,11.3,18.9,12.7c20.4,3.6,41,5.9,61.6,5.5c13.8-0.4,27.3-4.1,40.8-6.9c18-3.7,35.7-10.1,54.3-10.7c1.2,0,2.3,0,3.4-0.1
	c3,0,4.2,0.9,2.8,4.3c-5.6,13.3-13.6,25.5-23.5,36.1c-25.5,26.8-57,40.1-93.9,39.8c-31-0.2-58.9-10.7-81.8-31.8
	C54.5,230.5,41.3,191.1,49,145c4.6-26.7,17.2-49.3,37.2-67.9c24.3-22.9,53-34.5,86.1-34.5c34.8-0.1,64.6,12.2,89.2,37
	c12.2,12.2,21.7,26.5,28.3,42.5c0.8,1.8,2.5,4,1.3,6c-1.1,1.7-3.7,0.3-5.6,0.1c-5-0.6-9.9-1.4-14.9-2.2c-9.7-1.8-17.6-6.6-24.6-13.4
	c-7.8-7.5-17.7-11.4-28.6-12.8c-15.6-1.9-31-4.1-46.6-6.2c-4.1-0.5-8.1-2.6-12.3-0.9c-9.1,3.5-12.7,17.5-6.8,26.6
	c1.9,3.3,5.1,5.2,7.5,8H159z"/>
<path class="st2" d="M159.2,127.2l0.6,0.3l-0.7,0.1L159.2,127.2z"/>
</svg>
