<?xml version="1.0" encoding="utf-8"?>
<!-- Generator: Adobe Illustrator 21.1.0, SVG Export Plug-In . SVG Version: 6.00 Build 0)  -->
<svg version="1.1" id="rock" xmlns="http://www.w3.org/2000/svg" xmlns:xlink="http://www.w3.org/1999/xlink" x="0px" y="0px"
	 viewBox="0 0 340.2 340.2" style="enable-background:new 0 0 340.2 340.2;" xml:space="preserve">
<style type="text/css">
	.st0{fill:#457491;}
	.st1{fill:#FCFCFD;}
	.st2{fill:#77AFBF;}
</style>
<title>rock</title>
<path class="st0" d="M304.6,70.5c0.1,0.2,0.2,0.2,0.3,0.4c54.6,74.6,38.3,179.2-36.3,233.8c-75.4,55.2-180,37.6-234.2-36.1
	C-20.3,193.8-4.1,89,70.7,34.4C145.4-20.1,250.1-4,304.6,70.5z M78.7,46C9.3,97.9-5.2,193.1,45.1,262c52.2,71.6,150.2,83,218.2,32.1
	c66.7-50,81.2-146.6,31-214.8C245.2,12.6,150.6-5.3,78.7,46L78.7,46z"/>
<path class="st1" d="M78.7,46c71.9-51.2,166.6-33.4,215.6,33.3c50.2,68.1,35.7,164.8-31,214.7c-68,50.9-166,39.4-218.3-32.1
	C-5.1,193,9.3,97.9,78.7,46L78.7,46z M39.8,217.9c5.6,16.4,14.4,31.4,26,44.2c31.8,34.6,71.5,50.5,118.3,46.1
	c94.8-8.8,152.5-112.1,111.4-197.7C263.4,43.2,181.1,10.4,109.2,45.2c-35.7,17.3-59.3,45.5-71.7,83.1c-1,3-1.3,4.6,3,4.8
	c17.3,1,34.5,2.3,52,3.5c2.7,0.2,5.2-0.6,7.1-2.5c21.1-18.6,45.3-31.3,72.2-39.3c9.9-2.9,18.6-1,26.4,6.1
	c11.8,10.6,22.7,22.1,32.6,34.4c1.9,2.4,2.4,4.7,1.3,7.4c-1.4,3.4-3.9,3.8-6.4,1.2c-10.3-10.4-21.1-20.3-32.4-29.6
	c-0.6-0.5-1.3-1.1-1.9-1.6c-1-0.7-2-2-3.3-0.4c-1.4,1.7,0.4,2.3,1.2,3.1c7.4,6.5,14.9,12.9,22.1,19.5c6.8,6.1,13.1,12.7,18.9,19.8
	c4.1,5.2,3.6,10.8,2.1,16.5c-0.9,2.9-2.2,4.4-5,1c-10.4-12.3-22.9-22.6-35.6-32.5c-0.1-0.1-0.3-0.3-0.4-0.3
	c-1.5-0.4-2.6-3.6-4.5-1.3c-2.1,2.4,1.1,2.9,2.2,3.9c6.4,5.4,13.1,10.6,19.5,16.2c7.5,6.6,14.8,13.4,20.4,21.8
	c4.1,6.2,3.6,12-1.5,17.2c-2.2,2.1-3.9,2.5-6-0.4c-8.6-12-19.1-22.2-29.8-32.2c-1.3-1.1-2.3-3.7-4.4-1.4c-1.8,2.1,0.8,2.8,1.8,3.8
	c10.4,10.1,20.9,20.1,29.6,31.7c8.1,11,4.8,23-7.8,28.7c-6.1,2.9-12.7,4.9-19.5,6c-17.4,2.8-25.8-3-33.7-18.9c-1.3-2.7-1.9-6-2.7-9
	c-0.9-3,0.1-4.5,3.5-3.8c2.7,0.6,5.4,1,8.3,1.6s6.3,0.9,4.4,5.5c-0.3,1.2,0.2,2.4,1.4,2.9c1.7,0.9,1.7-0.9,2.1-1.8
	c0.9-2.7,2.6-2.7,4.8-1.9c3.8,1.3,7.5,2.6,11.5,3.2c1.2,0.1,2.3,0.3,2.8-1.3c0.5-1.7-0.4-2.1-1.7-2.3c-10.4-1.6-17-8.5-23.4-15.9
	c-1.3-1.5-3.1-5-5.1-3.2c-2.4,2.4,1.4,3.9,2.7,5.8c1.2,1.9,3.2,3.3,5.8,6.1c-6.4-1-11.4-2.3-16.6-2.6c-2.8-0.2-0.3-3.2-1.5-4.4
	c-4.9,5.4-6.5,15.5-3.2,22.2c0.8,1.8,0.9,1.8,2-0.2s1.8,0.7,2.2,1.5c2.3,4.9,5.4,9.2,9.2,13c5.5,5.6,12.2,7.6,19.9,7.6
	c7-0.1,13.9-1.5,20.5-3.8c1.2-0.4,2.7-1.3,3.5,0.3c0.9,1.8,0,3.4-1.7,4.1c-4,1.8-7.9,3.5-12,4.9c-10.8,3.6-21.6,6.8-32.4,10.2
	c-4.6,1.4-8.9,0.9-13.3-0.4c-13-3.9-23.3-11.8-31.7-22.3c-3-3.6-6.2-6.9-9.1-10.6c-1.2-1.6-3.1-2.5-5.1-2.4
	C81.9,217.6,61.1,217.7,39.8,217.9L39.8,217.9z"/>
<path class="st0" d="M39.6,217.4c21.4-0.1,42.2-0.1,63.3,0.1c2-0.1,3.9,0.9,5.1,2.5c2.9,3.5,6.1,7,9,10.6
	c8.3,10.5,18.5,18.5,31.6,22.4c4.4,1.4,8.8,1.9,13.3,0.5c10.9-3.3,21.7-6.5,32.5-10c4.1-1.4,8.1-3.2,12-4.9c1.7-0.7,2.6-2.3,1.7-4.1
	c-0.9-1.6-2.3-0.7-3.5-0.3c-6.6,2.3-13.5,3.5-20.5,3.7c-7.7,0-14.4-2-19.9-7.7c-3.8-3.8-7-8.2-9.2-13c-0.4-0.8-1.1-3.5-2.2-1.5
	c-1.2,2.1-1.1,1.9-2,0.2c-3.2-6.6-1.7-16.8,3.3-22.2c1.1,1.3-1.4,4.2,1.4,4.4c5.2,0.4,10.2,1.7,16.6,2.7c-2.7-2.8-4.6-4.4-5.8-6.2
	s-5.1-3.5-2.7-5.8c2-1.8,3.8,1.7,5.1,3.2c6.3,7.5,13,14.3,23.3,16c1.2,0.2,2.1,0.7,1.6,2.3s-1.5,1.5-2.8,1.3c-4-0.6-7.7-2-11.5-3.3
	c-2.2-0.7-3.9-0.7-4.8,1.9c-0.4,0.9-0.4,2.6-2.2,1.8c-1.2-0.4-1.7-1.7-1.4-2.9c2-4.6-1.5-4.9-4.3-5.5c-2.7-0.6-5.5-1-8.3-1.6
	c-3.3-0.8-4.3,0.8-3.5,3.8s1.3,6.2,2.7,9c7.8,15.8,16.2,21.7,33.6,19c6.8-1.1,13.4-3.1,19.6-5.9c12.6-5.7,16.1-17.7,7.9-28.7
	c-8.6-11.7-19-21.7-29.4-31.8c-1-1-3.6-1.7-1.8-3.8c2.1-2.3,3.2,0.3,4.4,1.4c10.6,10.1,21.2,20.3,29.7,32.3c2.1,3.1,3.9,2.6,6,0.4
	c5.1-5.2,5.5-11.1,1.5-17.2c-5.6-8.4-12.8-15.3-20.3-21.9c-6.4-5.6-13.2-10.9-19.5-16.4c-1.1-0.9-4.2-1.4-2.2-3.9
	c1.8-2.2,3,0.9,4.5,1.3c0.1,0.1,0.3,0.1,0.4,0.3c12.6,10,25,20.3,35.5,32.7c2.8,3.3,4.3,1.9,5-1c1.5-5.7,2-11.2-2.1-16.5
	c-5.8-7.2-12.1-13.8-18.9-19.9c-7.2-6.7-14.7-13.1-22-19.6c-0.8-0.8-2.6-1.4-1.1-3.1c1.3-1.5,2.3-0.2,3.3,0.5
	c0.6,0.5,1.3,1.1,1.9,1.6c11.3,9.4,22,19.2,32.3,29.7c2.6,2.6,4.9,2.2,6.4-1.2c1.1-2.7,0.5-5-1.3-7.4c-9.8-12.4-20.6-24-32.4-34.6
	c-7.9-7-16.5-9.1-26.4-6.2c-26.9,7.8-51.2,20.5-72.4,39c-1.9,1.8-4.5,2.8-7.1,2.5c-17.3-1.4-34.6-2.7-51.9-3.8c-4.3-0.3-4-1.7-3-4.8
	C50.5,90.3,74,62.1,109.8,45c72-34.5,154.3-1.3,186.1,66c40.7,85.7-17.5,188.8-112.3,197.2c-46.9,4.1-86.5-11.9-118.1-46.6
	C53.8,248.8,45.1,233.8,39.6,217.4L39.6,217.4z M244.3,270.7c30.7-22,47.8-52.1,51.9-89c2.7-24.2-2-48.6-13.3-70.1
	c-17.3-32.5-43.6-54.2-79.1-63.7c-30.4-8.1-60.2-5.5-88.7,9c-27.8,14.2-47.7,35.5-60.1,64c-1.9,4.4-1.3,5.2,3.5,5.3
	c9.3,0.2,18.6,0.9,27.8,2.2c6.5,1,11.4-0.9,15.8-5.1c11.6-11.1,25.6-18.1,40-24.7c7.8-3.5,15.9-6.7,24-9.6
	c15.1-5.4,28.1-3.1,39.9,8.2c11.1,10.4,21.6,21.6,31.2,33.4c4.6,5.6,5.4,11.7,0.7,17.7c-1.3,1.7-0.6,2.6,0.2,3.9
	c5.1,8,4.2,16.3,0.1,24.5c-0.8,1.2-0.9,2.8-0.2,4.1c4,8.1,0.8,14.9-4.6,20.8c-1.8,1.7-2.7,4.1-2.6,6.5c0.4,10-3.2,17.8-12,23
	c-1.7,1-2.7,2.2-2.6,4.4c0.3,5.2-3.2,7.9-7.3,9.6c-15.6,6.4-31.8,11-48,15.2c-6.8,1.7-13.6-0.7-19.9-3.4
	c-10.9-4.6-20.3-11.2-27.4-20.9c-2.3-3-4.9-5.8-7.5-8.6c-2-2.2-4.9-3.6-7.9-3.4c-12,0.3-24,0.1-36,0.1c-2.5,0-4.9-0.2-2.7,3.7
	c10.3,18.6,23.7,34.4,41.7,46.1c13.5,8.9,28.5,15.2,44.4,18.4c27.5,5.5,53.9,2.3,79.2-9.6C231.7,279.4,238.2,275.5,244.3,270.7
	L244.3,270.7z"/>
<path class="st2" d="M244.7,270.4c-6.1,4.8-12.5,8.8-19.6,12c-25.3,12-51.6,15.3-79.2,9.9c-15.9-3.2-30.9-9.4-44.5-18.3
	c-17.9-11.7-31.4-27.4-41.9-45.9c-2.3-3.9,0.1-3.7,2.7-3.7c12.1,0,24.1,0,36-0.3c3.1-0.1,6,1.1,7.9,3.4c2.6,2.8,5.2,5.6,7.5,8.6
	c7.2,9.6,16.6,16.2,27.5,20.8c6.3,2.7,13.1,5,19.9,3.3c16.2-4.3,32.4-8.9,47.9-15.6c4.1-1.6,7.5-4.4,7.2-9.6
	c-0.1-2.2,0.9-3.4,2.6-4.4c8.9-5.1,12.4-13.1,11.9-23c-0.1-2.4,0.8-4.8,2.6-6.5c5.4-5.8,8.5-12.7,4.5-20.8c-0.7-1.2-0.6-2.9,0.2-4.1
	c4.1-8.2,4.9-16.3-0.2-24.5c-0.8-1.3-1.5-2.2-0.2-3.9c4.6-6,3.8-12.1-0.8-17.7c-9.9-11.8-20.3-22.8-31.4-33.3
	c-11.8-11.3-24.9-13.5-39.9-8c-8.1,2.9-16.1,6.1-24,9.7c-14.3,6.6-28.3,13.7-39.9,24.8c-4.4,4.2-9.3,6.1-15.8,5.2
	c-9.2-1.3-18.4-2-27.8-2.1c-4.8-0.1-5.3-1-3.5-5.3c12.3-28.5,32-50,59.8-64.2c28.5-14.6,58.2-17.4,88.7-9.4
	c35.6,9.3,62,30.9,79.4,63.4c11.7,21.4,16.5,45.8,13.9,69.9C292.3,218.1,275.4,248.4,244.7,270.4L244.7,270.4z"/>
</svg>
