<?xml version="1.0" encoding="utf-8"?>
<!-- Generator: Adobe Illustrator 21.1.0, SVG Export Plug-In . SVG Version: 6.00 Build 0)  -->
<svg version="1.1" id="rock" xmlns="http://www.w3.org/2000/svg" xmlns:xlink="http://www.w3.org/1999/xlink" x="0px" y="0px"
	 viewBox="0 0 340.2 340.2" style="enable-background:new 0 0 340.2 340.2;" xml:space="preserve">
<style type="text/css">
	.st0{fill:#457491;}
	.st1{fill:#FCFCFD;}
	.st2{fill:#77AFBF;}
</style>
<title>rock</title>
<path class="st0" d="M268.5,34.4c74.8,54.6,91,159.4,36.3,234.2c-54.2,73.7-158.8,91.3-234.2,36.1C-4,250.1-20.3,145.5,34.3,70.9
	c0.1-0.2,0.2-0.2,0.3-0.4C89.1-4,193.8-20.1,268.5,34.4z M260.5,46C188.6-5.3,94,12.6,44.9,79.3c-50.2,68.2-35.7,164.8,31,214.8
	c68,50.9,166,39.5,218.2-32.1C344.4,193.1,329.9,97.9,260.5,46L260.5,46z"/>
<path class="st1" d="M260.5,46c69.4,51.9,83.8,147,33.7,215.9c-52.3,71.5-150.3,83-218.3,32.1C9.2,244.1-5.3,147.4,44.9,79.3
	C93.9,12.6,188.6-5.2,260.5,46L260.5,46z M299.4,217.9c-21.3-0.2-42.1-0.3-63-0.4c-2-0.1-3.9,0.8-5.1,2.4c-2.9,3.7-6.1,7-9.1,10.6
	c-8.4,10.5-18.7,18.4-31.7,22.3c-4.4,1.3-8.7,1.8-13.3,0.4c-10.8-3.4-21.6-6.6-32.4-10.2c-4.1-1.4-8-3.1-12-4.9
	c-1.7-0.7-2.6-2.3-1.7-4.1c0.8-1.6,2.3-0.7,3.5-0.3c6.6,2.3,13.5,3.7,20.5,3.8c7.7,0,14.4-2,19.9-7.6c3.8-3.8,6.9-8.1,9.2-13
	c0.4-0.8,1.1-3.5,2.2-1.5s1.2,2,2,0.2c3.3-6.7,1.7-16.8-3.2-22.2c-1.2,1.2,1.3,4.2-1.5,4.4c-5.2,0.3-10.2,1.6-16.6,2.6
	c2.6-2.8,4.6-4.2,5.8-6.1c1.3-1.9,5.1-3.4,2.7-5.8c-2-1.8-3.8,1.7-5.1,3.2c-6.4,7.4-13,14.3-23.4,15.9c-1.3,0.2-2.2,0.6-1.7,2.3
	c0.5,1.6,1.6,1.4,2.8,1.3c4-0.6,7.7-1.9,11.5-3.2c2.2-0.8,3.9-0.8,4.8,1.9c0.4,0.9,0.4,2.7,2.1,1.8c1.2-0.5,1.7-1.7,1.4-2.9
	c-1.9-4.6,1.5-4.9,4.4-5.5s5.6-1,8.3-1.6c3.4-0.7,4.4,0.8,3.5,3.8c-0.8,3-1.4,6.3-2.7,9c-7.9,15.9-16.3,21.7-33.7,18.9
	c-6.8-1.1-13.4-3.1-19.5-6c-12.6-5.7-15.9-17.7-7.8-28.7c8.7-11.6,19.2-21.6,29.6-31.7c1-1,3.6-1.7,1.8-3.8
	c-2.1-2.3-3.1,0.3-4.4,1.4c-10.7,10-21.2,20.2-29.8,32.2c-2.1,2.9-3.8,2.5-6,0.4c-5.1-5.2-5.6-11-1.5-17.2
	c5.6-8.4,12.9-15.2,20.4-21.8c6.4-5.6,13.1-10.8,19.5-16.2c1.1-1,4.3-1.5,2.2-3.9c-1.9-2.3-3,0.9-4.5,1.3c-0.1,0-0.3,0.2-0.4,0.3
	c-12.7,9.9-25.2,20.2-35.6,32.5c-2.8,3.4-4.1,1.9-5-1c-1.5-5.7-2-11.3,2.1-16.5c5.8-7.1,12.1-13.7,18.9-19.8
	c7.2-6.6,14.7-13,22.1-19.5c0.8-0.8,2.6-1.4,1.2-3.1c-1.3-1.6-2.3-0.3-3.3,0.4c-0.6,0.5-1.3,1.1-1.9,1.6
	c-11.3,9.3-22.1,19.2-32.4,29.6c-2.5,2.6-5,2.2-6.4-1.2c-1.1-2.7-0.6-5,1.3-7.4c9.9-12.3,20.8-23.8,32.6-34.4
	c7.8-7.1,16.5-9,26.4-6.1c26.9,8,51.1,20.7,72.2,39.3c1.9,1.9,4.4,2.7,7.1,2.5c17.5-1.2,34.7-2.5,52-3.5c4.3-0.2,4-1.8,3-4.8
	c-12.4-37.6-36-65.8-71.7-83.1c-71.9-34.8-154.2-2-186.3,65.3C2.6,196.1,60.3,299.4,155.1,308.2c46.8,4.4,86.5-11.5,118.3-46.1
	C285,249.3,293.8,234.3,299.4,217.9L299.4,217.9z"/>
<path class="st0" d="M299.6,217.4c-5.5,16.4-14.2,31.4-25.9,44.2c-31.6,34.7-71.2,50.7-118.1,46.6C60.8,299.8,2.6,196.7,43.3,111
	C75.1,43.7,157.4,10.5,229.4,45c35.8,17.1,59.3,45.3,72.1,82.8c1,3.1,1.3,4.5-3,4.8c-17.3,1.1-34.6,2.4-51.9,3.8
	c-2.6,0.3-5.2-0.7-7.1-2.5c-21.2-18.5-45.5-31.2-72.4-39c-9.9-2.9-18.5-0.8-26.4,6.2c-11.8,10.6-22.6,22.2-32.4,34.6
	c-1.8,2.4-2.4,4.7-1.3,7.4c1.5,3.4,3.8,3.8,6.4,1.2c10.3-10.5,21-20.3,32.3-29.7c0.6-0.5,1.3-1.1,1.9-1.6c1-0.7,2-2,3.3-0.5
	c1.5,1.7-0.3,2.3-1.1,3.1c-7.3,6.5-14.8,12.9-22,19.6c-6.8,6.1-13.1,12.7-18.9,19.9c-4.1,5.3-3.6,10.8-2.1,16.5c0.7,2.9,2.2,4.3,5,1
	c10.5-12.4,22.9-22.7,35.5-32.7c0.1-0.2,0.3-0.2,0.4-0.3c1.5-0.4,2.7-3.5,4.5-1.3c2,2.5-1.1,3-2.2,3.9c-6.3,5.5-13.1,10.8-19.5,16.4
	c-7.5,6.6-14.7,13.5-20.3,21.9c-4,6.1-3.6,12,1.5,17.2c2.1,2.2,3.9,2.7,6-0.4c8.5-12,19.1-22.2,29.7-32.3c1.2-1.1,2.3-3.7,4.4-1.4
	c1.8,2.1-0.8,2.8-1.8,3.8c-10.4,10.1-20.8,20.1-29.4,31.8c-8.2,11-4.7,23,7.9,28.7c6.2,2.8,12.8,4.8,19.6,5.9
	c17.4,2.7,25.8-3.2,33.6-19c1.4-2.8,1.9-6,2.7-9s-0.2-4.6-3.5-3.8c-2.8,0.6-5.6,1-8.3,1.6c-2.8,0.6-6.3,0.9-4.3,5.5
	c0.3,1.2-0.2,2.5-1.4,2.9c-1.8,0.8-1.8-0.9-2.2-1.8c-0.9-2.6-2.6-2.6-4.8-1.9c-3.8,1.3-7.5,2.7-11.5,3.3c-1.3,0.2-2.3,0.3-2.8-1.3
	s0.4-2.1,1.6-2.3c10.3-1.7,17-8.5,23.3-16c1.3-1.5,3.1-5,5.1-3.2c2.4,2.3-1.5,4-2.7,5.8s-3.1,3.4-5.8,6.2c6.4-1,11.4-2.3,16.6-2.7
	c2.8-0.2,0.3-3.1,1.4-4.4c5,5.4,6.5,15.6,3.3,22.2c-0.9,1.7-0.8,1.9-2-0.2c-1.1-2-1.8,0.7-2.2,1.5c-2.2,4.8-5.4,9.2-9.2,13
	c-5.5,5.7-12.2,7.7-19.9,7.7c-7-0.2-13.9-1.4-20.5-3.7c-1.2-0.4-2.6-1.3-3.5,0.3c-0.9,1.8,0,3.4,1.7,4.1c3.9,1.7,7.9,3.5,12,4.9
	c10.8,3.5,21.6,6.7,32.5,10c4.5,1.4,8.9,0.9,13.3-0.5c13.1-3.9,23.3-11.9,31.6-22.4c2.9-3.6,6.1-7.1,9-10.6c1.2-1.6,3.1-2.6,5.1-2.5
	C257.4,217.3,278.2,217.3,299.6,217.4L299.6,217.4z M94.9,270.7c6.1,4.8,12.6,8.7,19.5,12c25.3,11.9,51.7,15.1,79.2,9.6
	c15.9-3.2,30.9-9.5,44.4-18.4c18-11.7,31.4-27.5,41.7-46.1c2.2-3.9-0.2-3.7-2.7-3.7c-12,0-24,0.2-36-0.1c-3-0.2-5.9,1.2-7.9,3.4
	c-2.6,2.8-5.2,5.6-7.5,8.6c-7.1,9.7-16.5,16.3-27.4,20.9c-6.3,2.7-13.1,5.1-19.9,3.4c-16.2-4.2-32.4-8.8-48-15.2
	c-4.1-1.7-7.6-4.4-7.3-9.6c0.1-2.2-0.9-3.4-2.6-4.4c-8.8-5.2-12.4-13-12-23c0.1-2.4-0.8-4.8-2.6-6.5c-5.4-5.9-8.6-12.7-4.6-20.8
	c0.7-1.3,0.6-2.9-0.2-4.1c-4.1-8.2-5-16.5,0.1-24.5c0.8-1.3,1.5-2.2,0.2-3.9c-4.7-6-3.9-12.1,0.7-17.7c9.6-11.8,20.1-23,31.2-33.4
	C145,85.9,158,83.6,173.1,89c8.1,2.9,16.2,6.1,24,9.6c14.4,6.6,28.4,13.6,40,24.7c4.4,4.2,9.3,6.1,15.8,5.1c9.2-1.3,18.5-2,27.8-2.2
	c4.8-0.1,5.4-0.9,3.5-5.3c-12.4-28.5-32.3-49.8-60.1-64c-28.5-14.5-58.3-17.1-88.7-9c-35.5,9.5-61.8,31.2-79.1,63.7
	c-11.3,21.5-16,45.9-13.3,70.1C47.1,218.6,64.2,248.7,94.9,270.7L94.9,270.7z"/>
<path class="st2" d="M94.5,270.4c-30.7-22-47.6-52.3-51.5-89.6c-2.6-24.1,2.2-48.5,13.9-69.9c17.4-32.5,43.8-54.1,79.4-63.4
	c30.5-8,60.2-5.2,88.7,9.4c27.8,14.2,47.5,35.7,59.8,64.2c1.8,4.3,1.3,5.2-3.5,5.3c-9.4,0.1-18.6,0.8-27.8,2.1
	c-6.5,0.9-11.4-1-15.8-5.2c-11.6-11.1-25.6-18.2-39.9-24.8c-7.9-3.6-15.9-6.8-24-9.7c-15-5.5-28.1-3.3-39.9,8
	c-11.1,10.5-21.5,21.5-31.4,33.3c-4.6,5.6-5.4,11.7-0.8,17.7c1.3,1.7,0.6,2.6-0.2,3.9c-5.1,8.2-4.3,16.3-0.2,24.5
	c0.8,1.2,0.9,2.9,0.2,4.1c-4,8.1-0.9,15,4.5,20.8c1.8,1.7,2.7,4.1,2.6,6.5c-0.5,9.9,3,17.9,11.9,23c1.7,1,2.7,2.2,2.6,4.4
	c-0.3,5.2,3.1,8,7.2,9.6c15.5,6.7,31.7,11.3,47.9,15.6c6.8,1.7,13.6-0.6,19.9-3.3c10.9-4.6,20.3-11.2,27.5-20.8
	c2.3-3,4.9-5.8,7.5-8.6c1.9-2.3,4.8-3.5,7.9-3.4c11.9,0.3,23.9,0.3,36,0.3c2.6,0,5-0.2,2.7,3.7c-10.5,18.5-24,34.2-41.9,45.9
	c-13.6,8.9-28.6,15.1-44.5,18.3c-27.6,5.4-53.9,2.1-79.2-9.9C107,279.2,100.6,275.2,94.5,270.4L94.5,270.4z"/>
</svg>
