<?xml version="1.0" encoding="utf-8"?>
<!-- Generator: Adobe Illustrator 21.1.0, SVG Export Plug-In . SVG Version: 6.00 Build 0)  -->
<svg version="1.1" id="Layer_1" xmlns="http://www.w3.org/2000/svg" xmlns:xlink="http://www.w3.org/1999/xlink" x="0px" y="0px"
	 viewBox="0 0 63 69.7" style="enable-background:new 0 0 63 69.7;" xml:space="preserve">
<path d="M62.8,15.7c0-3.9-3.1-7-7-7c-1.4,0-2.8,0.5-3.9,1.2c-0.5-3.4-3.4-6.1-6.9-6.1c-1.5,0-2.9,0.5-4.1,1.3
	C40.1,2.2,37.4,0,34.2,0c-3.3,0-6.1,2.3-6.8,5.5c-0.1,0.4,0,0.3,0,0.4c0,0.4,0,1.2,0,2.3C26.2,7.5,24.8,7,23.4,7
	c-3.3,0-6.1,2.3-6.8,5.5l0,0.3v4.3c-0.9-1.3-2.5-2.3-4.4-2.3c-1.2,0-2.5,0.3-3.9,1C7.7,16,7.4,16.5,7.3,17c0,0,0,0.1,0,0.2
	c-0.2,1.2-1.2,7.1-7,14.4C0.1,32,0,32.3,0,32.7c0,0.1,0.7,9,3.7,18c1.5,4.5,3.5,9.1,6.4,12.6c2.9,3.5,6.8,6.1,11.6,6.1
	c0.1,0,0.1,0,0.2,0l0.4,0c0.9,0.2,1.9,0.3,2.9,0.3l21.6,0c8.9,0,16.1-7.2,16.1-16.1L62.8,15.7z M52,14.2c0.6-1.6,2.1-2.7,3.8-2.7v0
	c2.3,0,4.1,1.8,4.1,4.1v9.5c0,0.3,0,0.5-0.1,0.8v0c-0.4,1.9-2,3.3-4,3.3c-1.2,0-2.2-0.5-2.9-1.3c-0.3-0.3-0.6-0.7-0.8-1.2
	c0-0.1-0.1-0.2-0.1-0.2c0-0.1-0.1-0.1-0.1-0.2c0,0,0,0,0,0c-0.1-0.4-0.2-0.8-0.2-1.3l0-9.5c0-0.3,0-0.5,0.1-0.8
	c0-0.2,0.1-0.3,0.1-0.5C51.9,14.3,52,14.3,52,14.2z M45,6.7L45,6.7c2.3,0,4.1,1.8,4.1,4.1v18.7c0,1.4-0.7,2.7-1.8,3.4
	c-0.7,0.4-1.4,0.7-2.3,0.7c-1.4,0-2.6-0.7-3.3-1.7c-0.2-0.3-0.4-0.6-0.5-1c0,0,0-0.1,0-0.1c-0.1-0.4-0.2-0.8-0.2-1.3l0-18.7
	c0-0.4,0.1-0.9,0.2-1.3c0,0,0-0.1,0.1-0.1C41.7,7.8,43.2,6.7,45,6.7z M30.2,6.4c0-0.2,0-0.3,0-0.4v0c0.4-1.8,2.1-3.1,4-3.1
	c2.3,0,4.1,1.8,4.1,4.1c0,0.1,0,23.3,0,23.6c0,0.2,0,0.3,0,0.4c0,0.1,0,0.1,0,0.1c0,0,0,0,0,0.1c0,0.2,0,0.3-0.1,0.5
	c0,0.1,0,0.2,0,0.2c0,0.2-0.1,0.4-0.2,0.5c0,0.1,0,0.1-0.1,0.2c-0.1,0.2-0.2,0.3-0.3,0.5c0,0.1-0.1,0.1-0.1,0.2
	c-0.1,0.1-0.2,0.3-0.3,0.4c-0.1,0.1-0.1,0.1-0.2,0.2c-0.1,0.1-0.2,0.2-0.4,0.3c-0.1,0.1-0.1,0.1-0.2,0.2c-0.1,0.1-0.3,0.2-0.4,0.2
	c-0.1,0-0.2,0.1-0.3,0.1c-0.2,0.1-0.3,0.1-0.5,0.1c-0.1,0-0.2,0.1-0.3,0.1c-0.2,0-0.5,0.1-0.8,0.1c0,0,0,0-0.1,0c-0.2,0-0.3,0-0.4,0
	c-2-0.2-3.5-1.9-3.5-4C30.2,31,30.2,6.7,30.2,6.4z M19.4,13c0.5-1.8,2.1-3.1,4-3.1c1.7,0,3.2,1.1,3.8,2.6v15.6
	c0,0.1-0.1,0.2-0.1,0.2c0,0.1-0.1,0.2-0.1,0.3c-0.1,0.1-0.1,0.2-0.2,0.3c-0.1,0.1-0.1,0.2-0.2,0.2c-0.1,0.1-0.1,0.2-0.2,0.2
	c-0.1,0.1-0.1,0.2-0.2,0.2c-0.1,0.1-0.2,0.1-0.2,0.2c-0.1,0.1-0.1,0.1-0.2,0.2c-0.1,0.1-0.2,0.1-0.3,0.2c-0.1,0.1-0.2,0.1-0.3,0.2
	c-0.1,0.1-0.2,0.1-0.3,0.1c-0.1,0-0.2,0.1-0.3,0.1c-0.1,0-0.3,0.1-0.4,0.1c-0.1,0-0.2,0-0.2,0.1c-0.2,0-0.4,0-0.6,0c0,0,0,0,0,0
	c-0.2,0-0.5,0-0.7-0.1c-0.1,0-0.1,0-0.2-0.1c-0.2,0-0.3-0.1-0.5-0.1c-0.1,0-0.2-0.1-0.3-0.1c-0.1-0.1-0.2-0.1-0.4-0.2
	c-0.1-0.1-0.2-0.1-0.3-0.2c-0.1-0.1-0.2-0.1-0.3-0.2c-0.1-0.1-0.2-0.1-0.2-0.2c-0.1-0.1-0.2-0.2-0.2-0.2c-0.1-0.1-0.1-0.2-0.2-0.3
	C20.1,29.1,20,29,19.9,29c-0.1-0.1-0.1-0.2-0.2-0.3c-0.1-0.1-0.1-0.2-0.2-0.3c0-0.1-0.1-0.2-0.1-0.3c0-0.1-0.1-0.2-0.1-0.3L19.4,13
	L19.4,13z M16.5,29.4v9L15.3,38c-0.1-0.1-0.5-0.5-0.5-2C14.9,34.7,15.2,32.6,16.5,29.4z M60.1,53.7c0,7.3-5.9,13.1-13.2,13.2H25.3
	c-0.8,0-1.7-0.1-2.5-0.2l-0.3,0l-0.5,0c0,0-0.1,0-0.1,0c-0.1,0-0.1,0-0.1,0c-3.8,0-6.8-1.9-9.4-5c-3.8-4.6-6.3-12-7.7-18.1
	c-0.7-3.1-1.2-5.8-1.4-7.8C3.1,34.4,3,33.5,3,33c5.3-6.9,6.7-12.7,7.1-14.8c0.8-0.3,1.5-0.4,2-0.4c1.1,0,1.6,0.4,2.1,1.1
	c1,1.4,1.3,4.2,1.2,5.4c0,0.2,0,0.3,0,0.4c-2.6,5.5-3.5,9-3.5,11.4c-0.1,3.2,1.8,4.5,2.2,4.6l3.4,1c0.2,0.1,3.2,0.1,5.5,0.9
	c2.6,0.8,5.4,2.4,6.7,5.3c0.2,0.5,0.8,0.8,1.3,0.8c0.2,0,0.4,0,0.6-0.1c0.7-0.3,1-1.2,0.7-1.9c-1.9-4-5.5-6-8.5-6.9
	c-1.8-0.6-3.4-0.8-4.5-0.9v-6.4c0.1,0.1,0.2,0.1,0.3,0.2c0.1,0.1,0.3,0.2,0.4,0.2c0.2,0.1,0.4,0.2,0.6,0.3c0.1,0.1,0.3,0.1,0.4,0.2
	c0.2,0.1,0.5,0.1,0.8,0.2c0.1,0,0.2,0.1,0.3,0.1c0.4,0.1,0.8,0.1,1.2,0.1l0,0c0,0,0.1,0,0.1,0c0.4,0,0.7,0,1-0.1
	c0.1,0,0.2-0.1,0.3-0.1c0.2-0.1,0.5-0.1,0.7-0.2c0.1,0,0.2-0.1,0.4-0.2c0.2-0.1,0.4-0.2,0.6-0.3c0.1-0.1,0.2-0.1,0.4-0.2
	c0.1-0.1,0.3-0.2,0.4-0.3c0.6,2.7,2.7,4.8,5.4,5.4c0,0,0,0,0.1,0c0.2,0,0.4,0.1,0.6,0.1c0,0,0.1,0,0.1,0c0.2,0,0.5,0,0.7,0
	c0,0,0,0,0.1,0c0.3,0,0.5,0,0.8-0.1c0.1,0,0.2,0,0.3,0c0.2,0,0.4-0.1,0.6-0.1c0.1,0,0.2,0,0.2-0.1c0.3-0.1,0.5-0.2,0.8-0.3
	c0,0,0.1,0,0.1,0c0.2-0.1,0.4-0.2,0.6-0.3c0.1,0,0.1-0.1,0.2-0.1c0.2-0.1,0.4-0.2,0.5-0.4c0.1,0,0.1-0.1,0.2-0.1
	c0.2-0.2,0.4-0.4,0.6-0.5c0,0,0,0,0.1-0.1c0.2-0.2,0.3-0.4,0.5-0.6c0-0.1,0.1-0.1,0.1-0.2c0.1-0.2,0.3-0.4,0.4-0.6c0,0,0,0,0.1-0.1
	c0.2,0.2,0.4,0.3,0.6,0.5c0,0,0.1,0.1,0.1,0.1c0.3,0.2,0.5,0.4,0.8,0.5c0,0,0,0,0.1,0c0.3,0.2,0.6,0.3,0.9,0.4c0.1,0,0.1,0,0.2,0.1
	c0.3,0.1,0.6,0.2,0.9,0.2c0.1,0,0.1,0,0.2,0c0.3,0,0.7,0.1,1,0.1c0,0,0,0,0,0c0.1,0,0.1,0,0.1,0c0.2,0,0.3,0,0.5,0
	c0.1,0,0.2,0,0.3,0c0.1,0,0.3,0,0.4-0.1c0.1,0,0.2,0,0.3-0.1c0.1,0,0.2-0.1,0.3-0.1c0.1,0,0.2-0.1,0.3-0.1c0.1,0,0.2-0.1,0.3-0.1
	c0.1,0,0.2-0.1,0.3-0.1c0.1,0,0.2-0.1,0.3-0.2c0.1,0,0.2-0.1,0.2-0.1c0.1-0.1,0.2-0.1,0.3-0.2c0.1,0,0.1-0.1,0.2-0.1
	c0.2-0.1,0.3-0.2,0.5-0.3c0,0,0.1-0.1,0.1-0.1c0.1-0.1,0.2-0.2,0.4-0.3c0.1-0.1,0.1-0.1,0.2-0.2c0.1-0.1,0.2-0.2,0.3-0.3
	c0.1-0.1,0.1-0.1,0.2-0.2c0.1-0.1,0.1-0.2,0.2-0.3c0.1-0.1,0.1-0.2,0.2-0.2c0.1-0.1,0.1-0.2,0.2-0.3c0-0.1,0.1-0.2,0.1-0.2
	c0.1-0.1,0.1-0.2,0.2-0.3c0-0.1,0.1-0.2,0.1-0.3c0-0.1,0.1-0.2,0.1-0.4c0-0.1,0.1-0.2,0.1-0.2c0.1-0.2,0.1-0.4,0.2-0.6
	c0.1,0.1,0.3,0.2,0.4,0.3c0.1,0.1,0.2,0.2,0.4,0.2c0.2,0.1,0.4,0.2,0.6,0.3c0.1,0,0.2,0.1,0.4,0.2c0.2,0.1,0.5,0.1,0.7,0.2
	c0.1,0,0.2,0.1,0.3,0.1c0.4,0.1,0.7,0.1,1.1,0.1c0.4,0,0.7,0,1.1-0.1c0,0,0.1,0,0.1,0c0.3-0.1,0.7-0.1,1-0.3c0,0,0.1,0,0.1,0
	c0.3-0.1,0.6-0.2,0.9-0.4c0,0,0.1,0,0.1-0.1c0.3-0.2,0.6-0.3,0.8-0.5c0,0,0,0,0.1,0L60.1,53.7L60.1,53.7L60.1,53.7z"/>
</svg>
