<?xml version="1.0" encoding="utf-8"?>
<!-- Generator: Adobe Illustrator 21.1.0, SVG Export Plug-In . SVG Version: 6.00 Build 0)  -->
<svg version="1.1" id="scissors" xmlns="http://www.w3.org/2000/svg" xmlns:xlink="http://www.w3.org/1999/xlink" x="0px" y="0px"
	 viewBox="0 0 340.2 340.2" style="enable-background:new 0 0 340.2 340.2;" xml:space="preserve">
<style type="text/css">
	.st0{fill:#457391;}
	.st1{fill:#FBFCFC;}
	.st2{fill:#77AFBF;}
</style>
<title>scissors</title>
<path class="st0" d="M338.1,169.7c0,92.6-75.2,167.5-167.8,167.4C77.9,337,3,262.1,3.1,169.7c0-0.2,0-0.4,0-0.6
	c0.4-93.2,75.3-166.9,168-167C263.3,2.1,338.1,77.3,338.1,169.7z M170,15.6C85.8,15,15.7,84,15.3,168.2
	c-0.2,42.4,14.4,79.3,44.1,109.6c33.4,34.1,74.8,50.1,121.9,46.4c85-6.7,141.5-75.9,143-151.1C326,87.5,257.1,15.5,170,15.6z"/>
<path class="st1" d="M170,15.6c87.1,0,156.1,71.9,154.3,157.5c-1.5,75.2-58,144.4-143,151.1c-47.1,3.7-88.5-12.3-121.9-46.4
	c-29.7-30.3-44.3-67.2-44.1-109.6C15.7,84,85.8,15,170,15.6L170,15.6z M234.2,189v0.4V189c-0.5-0.8-1.2-1.6-2.1-1.9
	c-13.8-5.9-17.2-11.4-16.2-26.1c0.3-4.6,0.9-9.3,1.2-13.9c0.2-3.9-1.7-5.3-5.6-5c-8.8,0.8-9.2,1.1-10.8,9.7
	c-0.4,2.5-0.7,4.9-0.8,7.4c-0.5,5.9-2.1,11.4-5.9,16.2c-1.7,2.1-3.8,3.3-6.5,2.7c-2.5-0.6-3.1-2.5-3.9-4.7
	c-1.9-5.7-4.1-11.3-6.1-16.9c-1.2-3.1-1.5-6.5-1-9.8c2.4-15.5,12.9-24.1,25.8-30.8c7-3.9,15.4-4,22.5-0.3c9.8,4.7,18.8,10.8,27.6,17
	c4,2.8,8.6,4.4,13.5,4.6c11.3,0.8,22.6,1,34,1c3.5,0,4.6-0.4,3.5-4.4C285.7,64.8,216.1,19.9,146,32.2c-72,12.7-122.2,77.6-114.9,150
	c5.3,52.6,32.7,91.2,80.6,113.2c47.8,21.9,94.5,16.7,137.9-13c23.6-16.2,40-38.3,50-65.2c1.3-3.5,2-5.2-3.1-4.8
	c-9.1,0.6-18.3,0.7-27.5,0.5c-3.8-0.1-6.1,1.2-8.3,4.1c-5.4,7-11.7,13.2-18.8,18.5c-9.5,6.9-20,4.4-31.3,4.3
	c2.7-3.1,4.9-5.2,6.6-7.6c6.3-9,3.3-18.6-7.1-22.2c-1.7-0.6-1.9-1-1.4-2.7c1.5-5.7-0.8-9.6-6.5-11.2c-4.1-1.2-8.3-0.9-12.4-0.1
	c-27.8,5.1-56.1,7.8-84.3,8.1c-8.7,0-17.3,0.2-26-0.1c-6.2-0.2-10.2-4.3-10.1-9.6c0.1-4.7,3.2-7.3,9.5-8.1c17.5-2.1,35-4.1,52.5-6.2
	c9.2-1.1,18.5-2.5,27.7-3.9c2.2-0.3,4.3-1.2,4.9-3.7c0.7-2.6-0.7-4.6-2.7-6c-2.3-1.6-4.8-3-7.3-4.2c-20.4-9.9-40.7-19.7-61.1-29.6
	c-2.3-1-4.4-2.4-6.2-4.2c-3.1-3.3-4.2-6.9-1.6-10.9c2.6-4,6.2-2.8,9.9-1.6c25.2,8.1,50.3,16.2,75.6,24c2.7,0.8,2.7,1.7,2.1,3.7
	c-1.5,5.5-0.7,10.9,1.3,16.1c1.9,4.8,3.8,9.6,5.3,14.5c1.2,3.9,2.8,7.1,7.3,7.9c4.8,0.9,8.5-0.8,11.3-4.6c3.8-5.1,5.9-11.3,6.2-17.6
	c0.3-3.5,0.8-6.9,1.5-10.4c0.7-3.1,3.7-2.9,5.7-2.8c2.7,0.2,1.1,2.5,1,4c-0.3,5.1-1.1,10.3-1,15.4
	C211.8,179.6,221.7,189.3,234.2,189L234.2,189z"/>
<path class="st0" d="M234.2,189c-12.5,0.3-22.5-9.4-22.8-22.6c-0.1-5.1,0.7-10.3,1-15.4c0.1-1.4,1.7-3.8-1-4
	c-2.1-0.2-5.1-0.3-5.7,2.8c-0.7,3.4-1.2,6.9-1.5,10.4c-0.3,6.4-2.4,12.5-6.2,17.6c-2.9,3.8-6.6,5.4-11.3,4.6c-4.5-0.8-6-4-7.3-7.9
	c-1.5-4.9-3.5-9.7-5.3-14.5c-2-5.3-2.8-10.6-1.3-16.1c0.5-2,0.5-2.9-2.1-3.7c-25.2-7.8-50.4-16-75.6-24c-3.6-1.2-7.3-2.3-9.9,1.6
	s-1.5,7.6,1.6,10.9c1.8,1.8,3.9,3.2,6.2,4.2c20.4,9.8,40.8,19.6,61.2,29.5c2.5,1.2,5,2.6,7.3,4.2c2,1.4,3.3,3.4,2.7,6
	c-0.6,2.4-2.8,3.3-4.9,3.7c-9.2,1.4-18.5,2.7-27.7,3.9c-17.5,2.2-35,4.2-52.5,6.2c-6.4,0.8-9.5,3.4-9.5,8.1
	c-0.1,5.3,3.9,9.4,10.1,9.6c8.6,0.3,17.3,0.1,26,0.1c28.3-0.3,56.5-3,84.3-8.1c4.1-0.7,8.3-1,12.4,0.1c5.7,1.6,8,5.5,6.5,11.2
	c-0.5,1.8-0.3,2.1,1.4,2.7c10.3,3.6,13.4,13.2,7.1,22.2c-1.7,2.4-3.9,4.5-6.6,7.6c11.2,0.1,21.8,2.6,31.3-4.3
	c7.1-5.3,13.5-11.5,18.8-18.5c2.2-2.9,4.5-4.2,8.3-4.1c9.2,0.2,18.3,0.1,27.5-0.5c5.1-0.4,4.4,1.4,3.1,4.8c-10,26.9-26.4,49-50,65.2
	c-43.4,29.7-90.1,34.9-137.9,13C64,273.6,36.6,235,31.3,182.3C23.8,109.7,74.1,44.8,145.9,32.2C216.1,20,285.7,64.9,303.6,133.8
	c1,4-0.1,4.4-3.5,4.4c-11.3-0.1-22.6-0.3-34-1c-4.8-0.2-9.5-1.8-13.5-4.6c-8.8-6.2-17.8-12.3-27.6-17c-7.1-3.7-15.5-3.6-22.5,0.3
	c-12.9,6.7-23.4,15.3-25.8,30.8c-0.5,3.3-0.2,6.6,1,9.8c2,5.7,4.2,11.2,6.1,16.9c0.7,2.2,1.4,4.2,3.9,4.7c2.8,0.6,4.9-0.6,6.5-2.7
	c3.8-4.7,5.4-10.2,5.9-16.2c0.1-2.5,0.4-5,0.8-7.4c1.5-8.6,2-8.8,10.8-9.7c3.9-0.4,5.8,1.1,5.6,5c-0.3,4.6-0.9,9.3-1.2,13.9
	c-1,14.7,2.4,20.3,16.2,26.1c0.9,0.4,1.6,1.1,2,2L234.2,189z M150.4,170.2l0.2-1.4l-16-7.8c-16.3-7.9-32.8-15.6-49-23.9
	c-8-4-11.5-14-8.2-21.3c3.4-7.6,10.6-10.3,19.2-7.4c24,7.8,48.1,15.6,72.1,23.5c2.9,1,4.4,0.5,6-2.1c7.3-11.6,18.2-18.7,30.8-23.4
	c6.2-2.3,12.4-1.7,18.5,0.6c8.9,3.3,17.3,7.9,24.8,13.8c8.7,6.9,18,10.3,29,9.3c1.2-0.1,2.3,0,3.5,0c6.5,0,6.7-0.2,4.3-6.3
	c-8.5-21.7-21.6-40-40.2-54.2c-28.2-21.5-60-30.3-95.2-25.4c-30.2,4.2-55.7,18-76,40.9C48.7,114,38.7,147.7,43.4,185.4
	c4.2,34.3,20.7,62.2,48.1,83.3c27,20.8,58.1,29.1,91.9,25.1c32.2-3.8,59-18.7,80.4-43c7-8,12.9-17,17.4-26.7c0.7-1.4,2.5-3.8-0.9-4
	c-6.6-0.4-12.4-0.6-17.5,6.1c-12.2,16-28.1,25.2-49.4,21c-4.4-0.8-9-0.1-13,2c-9.9,5-20.2,7.8-31.7,6c-11.5-1.8-18.2-6.5-21.5-17.6
	c-0.4-1.3-1.4-2.3-2.6-2.6c-9.4-3.9-14.8-11-16.2-21c-0.3-2.5-1.4-3-3.5-3c-5.7,0.1-11.3,0.3-17,0c-10.5-0.5-20.8,2.1-31.3,0.1
	c-8.1-1.6-13.9-7.4-14.2-15.6s4.3-15.1,11.2-16.2c8.7-1.3,17.4-2.1,26.2-3.2L150.4,170.2z M196.1,200.2c-18.7,3.1-37.5,5.3-56.3,7.5
	c-4.3,0.5-4.7,2.7-4.1,6.1c1.4,8,7.8,14.1,15.8,15.1c4.3,0.6,8.8,0.3,13-0.9c14.1-3.6,27-9.4,37.5-19.8c1.2-1.2,3.1-2.5,2.4-4.6
	c-0.8-2.3-3-3-5.2-3.4C198.1,200.1,197.1,200.1,196.1,200.2L196.1,200.2z M175.8,248.5c14.7-1.5,27.5-7.1,37.1-18.9
	c3.5-4.3,3.2-10.2,0-13.2c-3.5-3.2-8.7-2.9-13,0.4c-11.9,9-25.2,14.9-40.1,16.7c-6.2,0.8-7,2.8-3.2,8c1.2,1.6,2.8,2.8,4.6,3.7
	C165.7,247.7,170.6,248.2,175.8,248.5L175.8,248.5z"/>
<path class="st0" d="M234.1,189l0.1,0.3L234.1,189L234.1,189z"/>
<path class="st2" d="M150.4,169.1v1.1l-50.9,6c-8.7,1-17.5,1.8-26.2,3.2c-6.9,1-11.5,8.1-11.2,16.2c0.3,8.1,6.1,14,14.2,15.6
	c10.5,2,20.9-0.6,31.3-0.1c5.7,0.3,11.3,0,17,0c2.2,0,3.2,0.5,3.5,3c1.4,10,6.8,17.1,16.2,21c1.3,0.4,2.3,1.4,2.6,2.6
	c3.3,11.1,10,15.9,21.4,17.6s21.8-1,31.7-6c4-2.1,8.6-2.8,13-2c21.3,4.2,37.1-5,49.4-21c5.1-6.7,10.9-6.5,17.5-6.1
	c3.4,0.2,1.6,2.6,0.9,4c-4.5,9.7-10.4,18.6-17.4,26.7c-21.4,24.3-48.2,39.2-80.4,43c-33.8,4-64.8-4.3-91.9-25.1
	c-27.3-21.1-43.8-49-48.1-83.3c-4.7-37.7,5.4-71.4,30.9-100.1c20.4-23,45.8-36.7,76-40.9c35.1-4.9,66.9,3.9,95.2,25.4
	c18.6,14.2,31.6,32.5,40.2,54.2c2.4,6,2.2,6.3-4.3,6.3c-1.2,0-2.3-0.1-3.5,0c-11,1-20.2-2.4-29-9.3c-7.5-5.9-15.8-10.5-24.7-13.8
	c-6.1-2.3-12.3-2.9-18.5-0.6c-12.7,4.6-23.5,11.8-30.8,23.4c-1.6,2.5-3.1,3-6,2.1c-24-7.9-48.1-15.6-72.1-23.5
	c-8.7-2.8-15.8-0.1-19.2,7.4c-3.2,7.2,0.2,17.2,8.2,21.3c16.2,8.2,32.6,15.9,49,23.9L150.4,169.1L150.4,169.1z"/>
<path class="st1" d="M196.1,200.2c1-0.1,2-0.1,3,0c2.2,0.4,4.4,1.1,5.2,3.4c0.7,2.1-1.2,3.4-2.4,4.6c-10.5,10.5-23.4,16.2-37.5,19.9
	c-4.2,1.1-8.7,1.4-13,0.9c-8-1-14.4-7.2-15.8-15.1c-0.6-3.3-0.2-5.6,4.1-6.1C158.6,205.5,177.4,203.3,196.1,200.2z M175.8,248.5
	c-5.1-0.3-10.1-0.9-14.6-3.2c-1.8-0.9-3.4-2.1-4.6-3.7c-3.8-5.3-3-7.3,3.2-8c14.9-1.8,28.2-7.7,40.1-16.7c4.4-3.3,9.5-3.5,13-0.4
	c3.3,3,3.5,8.9,0,13.2C203.3,241.4,190.5,247,175.8,248.5z"/>
</svg>
