<?xml version="1.0" encoding="utf-8"?>
<!-- Generator: Adobe Illustrator 21.1.0, SVG Export Plug-In . SVG Version: 6.00 Build 0)  -->
<svg version="1.1" id="Layer_1" xmlns="http://www.w3.org/2000/svg" xmlns:xlink="http://www.w3.org/1999/xlink" x="0px" y="0px"
	 viewBox="0 0 63.2 90" style="enable-background:new 0 0 63.2 90;" xml:space="preserve">
<path d="M57.2,36.5L57.2,36.5c-0.3,0-0.7-0.1-1-0.1c-1.1,0-2.1,0.3-3,0.7c0,0,0,0,0-0.1c0-3.4-2.5-6.4-6-6.9c-0.3,0-0.7-0.1-1-0.1
	c-1.1,0-2.2,0.3-3.1,0.8L46,8c0-0.3,0.1-0.6,0.1-1c0-3.4-2.5-6.4-6-6.9c-0.3,0-0.7-0.1-1-0.1c-3.4,0-6.4,2.5-6.9,6l-5,33.2L18.5,7.4
	c-0.8-3.1-3.7-5.2-6.8-5.2c-0.6,0-1.2,0.1-1.8,0.2C6.8,3.3,4.7,6.1,4.7,9.2c0,0.6,0.1,1.2,0.2,1.8l5.8,24.2
	c-0.6,0.1-1.2,0.3-1.9,0.5c-0.3,0.1-0.5,0.2-0.8,0.3c-0.5,0.2-0.8,0.7-0.8,1.2c0,0,0,0.1,0,0.2c-0.2,1.2-1.2,7.1-7,14.4v0
	c-0.1,0.1-0.2,0.3-0.2,0.5c0,0,0,0,0,0C0,52.6,0,52.8,0,52.9c0,0,0,0,0,0C0,53,0.7,62,3.7,71.1c1.5,4.6,3.5,9.2,6.4,12.7
	C13,87.4,16.9,90,21.8,90h0c0.1,0,0.1,0,0.2,0l24.9,0C55.8,90,63,82.8,63,73.9l0.2-29.6c0-0.3,0.1-0.7,0.1-1
	C63.2,40,60.7,37,57.2,36.5z M46.2,33L46.2,33c0.2,0,0.4,0,0.6,0c2,0.3,3.5,2,3.5,4c0,0.2,0,0.4,0,0.6l-0.4,3l-1.6,11.7L48,53.7
	l-0.3,2.4c0,0,0,0.1,0,0.1c-0.3,2-2.1,3.4-4,3.4c-0.2,0-0.4,0-0.6,0c-1.8-0.3-3.1-1.6-3.5-3.3c0,0,0,0,0,0c0-0.2-0.1-0.5-0.1-0.7
	c0-0.2,0-0.4,0-0.6l0.9-6.3l1.1-8l0.6-4.1c0.1-0.4,0.2-0.8,0.3-1.1c0,0,0-0.1,0-0.1C43.2,33.9,44.6,33,46.2,33z M15.3,58.3
	C15.3,58.3,15.3,58.2,15.3,58.3c-0.1-0.1-0.2-0.2-0.2-0.4c0,0,0-0.1,0-0.1c0,0,0,0,0,0c-0.1-0.3-0.2-0.8-0.2-1.4c0-0.1,0-0.2,0-0.3
	c0-0.1,0-0.2,0-0.3c0-0.1,0-0.2,0-0.3c0-0.1,0-0.3,0-0.4c0-0.1,0-0.2,0.1-0.3c0-0.2,0.1-0.3,0.1-0.5c0-0.1,0.1-0.3,0.1-0.4
	c0-0.1,0-0.1,0.1-0.2l0.9,4.9L15.3,58.3z M60.1,73.9c0,7.3-5.9,13.1-13.2,13.2H22c-0.1,0-0.1,0-0.2,0c-3.8,0-6.8-1.9-9.4-5
	C8.6,77.4,6.1,70,4.7,63.8c-0.7-3.1-1.2-5.9-1.4-7.9c-0.2-1.2-0.3-2.1-0.3-2.7C3,53.2,3.1,53,3.2,52.9c0.2-0.3,0.4-0.5,0.6-0.8
	C3.9,52,4,51.8,4.1,51.6c0.2-0.3,0.3-0.5,0.5-0.7c0.1-0.2,0.2-0.3,0.3-0.5c0.2-0.2,0.3-0.5,0.5-0.7c0.1-0.2,0.2-0.3,0.3-0.5
	c0.1-0.2,0.3-0.5,0.4-0.7c0.1-0.1,0.2-0.3,0.2-0.4c0.1-0.2,0.3-0.5,0.4-0.7C6.9,47.1,7,47,7,46.9c0.1-0.2,0.2-0.5,0.4-0.7
	c0.1-0.1,0.1-0.2,0.2-0.4c0.1-0.2,0.2-0.5,0.3-0.7C7.9,45,8,44.9,8,44.8c0.1-0.2,0.2-0.5,0.3-0.7c0-0.1,0.1-0.2,0.1-0.3
	c0.1-0.2,0.2-0.4,0.3-0.7c0-0.1,0.1-0.2,0.1-0.2C8.9,42.7,9,42.5,9,42.3c0-0.1,0-0.1,0.1-0.2c0.1-0.2,0.1-0.4,0.2-0.6
	c0-0.1,0-0.1,0.1-0.2c0.1-0.2,0.1-0.4,0.2-0.6c0,0,0-0.1,0-0.1c0.1-0.2,0.1-0.4,0.1-0.6c0,0,0-0.1,0-0.1c0-0.2,0.1-0.3,0.1-0.5
	c0-0.1,0-0.1,0-0.2c0-0.1,0.1-0.2,0.1-0.3c0-0.2,0.1-0.3,0.1-0.4c0.5-0.2,1-0.3,1.4-0.4c0,0,0,0,0,0c0.2,0,0.4,0,0.6,0
	c0.3,0,0.6,0,0.9,0.1c0.4,0.1,0.7,0.3,0.9,0.6c0.1,0.1,0.2,0.2,0.3,0.4c0.3,0.4,0.5,0.9,0.7,1.5c0.4,1.4,0.6,3.1,0.6,3.9
	c0,0.1,0,0.3,0,0.4v0c-0.1,0.2-0.1,0.3-0.2,0.5c-0.2,0.3-0.3,0.7-0.5,1c-0.3,0.7-0.6,1.3-0.8,1.9c-1.5,3.6-2,6.2-2,8.1
	c0,0.3,0,0.6,0,0.9c0.2,2.2,1.4,3.3,1.9,3.6c0.1,0.1,0.2,0.1,0.2,0.1l0,0l0.1,0l2.8,0.8l0.5,0.1c0.1,0,0.3,0.1,0.4,0.1c0,0,0,0,0,0
	c0,0,0,0,0.1,0c0.1,0,0.1,0,0.2,0c0.4,0,2.5,0.1,4.8,0.8c2.6,0.8,5.4,2.4,6.7,5.3c0.2,0.5,0.8,0.8,1.3,0.8c0.2,0,0.4,0,0.6-0.1
	c0.7-0.3,1-1.2,0.7-1.9c-1.9-4-5.5-6-8.5-6.9c-1.9-0.6-3.6-0.8-4.7-0.9l-0.9-4.9l-0.4-2.1L17,48.5c0.1-0.3,0.3-0.6,0.4-0.9
	c0.2-0.5,0.5-1,0.7-1.6l0,0c0,0,0,0,0-0.1c0.1-0.2,0.1-0.3,0.1-0.5c0,0,0-0.2,0-0.5c0-0.1,0-0.2,0-0.3l0,0c0-0.3,0-0.6,0-1
	c0-0.2,0-0.3,0-0.5c0-0.2,0-0.4-0.1-0.6c-0.2-1.5-0.6-3.3-1.7-4.9c-0.2-0.3-0.4-0.5-0.7-0.8c-0.6-0.6-1.2-1-2.1-1.3L7.8,10.3
	C7.7,9.9,7.6,9.6,7.6,9.2c0-1.8,1.2-3.5,3-4c0.4-0.1,0.7-0.1,1.1-0.1c1.8,0,3.5,1.2,4,3L25.2,43l0.7,2.4c0,0.2,0.1,0.3,0.2,0.4
	c0.3,0.5,0.9,0.7,1.5,0.6c0,0,0,0,0.1,0c0.8,0.1,1.5-0.4,1.6-1.2l0.1-0.9l0.5-3.4L35,6.4c0.3-2.1,2-3.5,4.1-3.5c0.2,0,0.4,0,0.6,0
	c2,0.3,3.5,2,3.5,4.1c0,0.2,0,0.4,0,0.6l-6.5,47c0,0.3-0.1,0.6-0.1,1c0,0.4,0,0.8,0.1,1.2c0.5,2.9,2.8,5.3,5.9,5.7
	c0.3,0,0.7,0.1,1,0.1c3,0,5.6-1.9,6.6-4.6c1,0.9,2.3,1.6,3.8,1.8c0.3,0,0.6,0.1,0.9,0.1h0c2,0,3.9-0.9,5.2-2.3L60.1,73.9
	C60,73.9,60.1,73.9,60.1,73.9z M60.3,44L60,45.7l-0.1,1l-0.7,4.8l-0.3,1.8c0,0.3-0.1,0.5-0.2,0.8c-0.6,1.6-2.1,2.8-3.9,2.8
	c-0.2,0-0.4,0-0.6,0c-1.7-0.2-3.1-1.6-3.4-3.2c0,0,0-0.1,0-0.1c0,0,0,0,0,0c0-0.2-0.1-0.5-0.1-0.7c0-0.2,0-0.4,0-0.6l0.8-6l0.5-3.4
	c0-0.3,0.1-0.5,0.2-0.8c0.1-0.2,0.1-0.3,0.2-0.4c0-0.1,0.1-0.1,0.1-0.2c0.7-1.3,2.1-2.1,3.6-2.1h0c0.2,0,0.4,0,0.6,0h0
	c2,0.3,3.5,2,3.5,4C60.3,43.6,60.3,43.8,60.3,44z"/>
</svg>
