<?xml version="1.0" encoding="utf-8"?>
<!-- Generator: Adobe Illustrator 21.1.0, SVG Export Plug-In . SVG Version: 6.00 Build 0)  -->
<svg version="1.1" id="scissors" xmlns="http://www.w3.org/2000/svg" xmlns:xlink="http://www.w3.org/1999/xlink" x="0px" y="0px"
	 viewBox="0 0 340.2 340.2" style="enable-background:new 0 0 340.2 340.2;" xml:space="preserve">
<style type="text/css">
	.st0{fill:#457391;}
	.st1{fill:#FBFCFC;}
	.st2{fill:#77AFBF;}
</style>
<title>scissors</title>
<path class="st0" d="M170.5,337.1C77.9,337.1,3,261.9,3.1,169.3C3.2,76.9,78.1,2,170.5,2.1c0.2,0,0.4,0,0.6,0
	c93.2,0.4,166.9,75.3,167,168C338.1,262.3,262.9,337.1,170.5,337.1z M324.6,169C325.2,84.8,256.2,14.7,172,14.3
	c-42.4-0.2-79.3,14.4-109.6,44.1C28.3,91.8,12.3,133.2,16,180.3c6.7,85,75.9,141.5,151.1,143C252.7,325,324.7,256.1,324.6,169z"/>
<path class="st1" d="M324.6,169c0,87.1-71.9,156.1-157.5,154.3c-75.2-1.5-144.4-58-151.1-143c-3.7-47.1,12.3-88.5,46.4-121.9
	C92.7,28.7,129.6,14.1,172,14.3C256.2,14.7,325.2,84.8,324.6,169L324.6,169z M151.2,233.2h-0.4H151.2c0.8-0.5,1.6-1.2,1.9-2.1
	c5.9-13.8,11.4-17.2,26.1-16.2c4.6,0.3,9.3,0.9,13.9,1.2c3.9,0.2,5.3-1.7,5-5.6c-0.8-8.8-1.1-9.2-9.7-10.8c-2.5-0.4-4.9-0.7-7.4-0.8
	c-5.9-0.5-11.4-2.1-16.2-5.9c-2.1-1.7-3.3-3.8-2.7-6.5c0.6-2.5,2.5-3.1,4.7-3.9c5.7-1.9,11.3-4.1,16.9-6.1c3.1-1.2,6.5-1.5,9.8-1
	c15.5,2.4,24.1,12.9,30.8,25.8c3.9,7,4,15.4,0.3,22.5c-4.7,9.8-10.8,18.8-17,27.6c-2.8,4-4.4,8.6-4.6,13.5c-0.8,11.3-1,22.6-1,34
	c0,3.5,0.4,4.6,4.4,3.5c69-17.7,113.9-87.3,101.6-157.4C295.3,73,230.4,22.8,158,30.1c-52.6,5.3-91.2,32.7-113.2,80.6
	c-21.9,47.8-16.7,94.5,13,137.9c16.2,23.6,38.3,40,65.2,50c3.5,1.3,5.2,2,4.8-3.1c-0.6-9.1-0.7-18.3-0.5-27.5
	c0.1-3.8-1.2-6.1-4.1-8.3c-7-5.4-13.2-11.7-18.5-18.8c-6.9-9.5-4.4-20-4.3-31.3c3.1,2.7,5.2,4.9,7.6,6.6c9,6.3,18.6,3.3,22.2-7.1
	c0.6-1.7,1-1.9,2.7-1.4c5.7,1.5,9.6-0.8,11.2-6.5c1.2-4.1,0.9-8.3,0.1-12.4c-5.1-27.8-7.8-56.1-8.1-84.3c0-8.7-0.2-17.3,0.1-26
	c0.2-6.2,4.3-10.2,9.6-10.1c4.7,0.1,7.3,3.2,8.1,9.5c2.1,17.5,4.1,35,6.2,52.5c1.1,9.2,2.5,18.5,3.9,27.7c0.3,2.2,1.2,4.3,3.7,4.9
	c2.6,0.7,4.6-0.7,6-2.7c1.6-2.3,3-4.8,4.2-7.3c9.9-20.4,19.7-40.7,29.6-61.1c1-2.3,2.4-4.4,4.2-6.2c3.3-3.1,6.9-4.2,10.9-1.6
	s2.8,6.2,1.6,9.9c-8.1,25.2-16.2,50.3-24,75.6c-0.8,2.7-1.7,2.7-3.7,2.1c-5.5-1.5-10.9-0.7-16.1,1.3c-4.8,1.9-9.6,3.8-14.5,5.3
	c-3.9,1.2-7.1,2.8-7.9,7.3c-0.9,4.8,0.8,8.5,4.6,11.3c5.1,3.8,11.3,5.9,17.6,6.2c3.5,0.3,6.9,0.8,10.4,1.5c3.1,0.7,2.9,3.7,2.8,5.7
	c-0.2,2.7-2.5,1.1-4,1c-5.1-0.3-10.3-1.1-15.4-1C160.6,210.8,150.9,220.7,151.2,233.2L151.2,233.2z"/>
<path class="st0" d="M151.2,233.2c-0.3-12.5,9.4-22.5,22.6-22.8c5.1-0.1,10.3,0.7,15.4,1c1.4,0.1,3.8,1.7,4-1
	c0.2-2.1,0.3-5.1-2.8-5.7c-3.4-0.7-6.9-1.2-10.4-1.5c-6.4-0.3-12.5-2.4-17.6-6.2c-3.8-2.9-5.4-6.6-4.6-11.3c0.8-4.5,4-6,7.9-7.3
	c4.9-1.5,9.7-3.5,14.5-5.3c5.3-2,10.6-2.8,16.1-1.3c2,0.5,2.9,0.5,3.7-2.1c7.8-25.2,16-50.4,24-75.6c1.2-3.6,2.3-7.3-1.6-9.9
	c-3.9-2.6-7.6-1.5-10.9,1.6c-1.8,1.8-3.2,3.9-4.2,6.2c-9.8,20.4-19.6,40.8-29.5,61.2c-1.2,2.5-2.6,5-4.2,7.3c-1.4,2-3.4,3.3-6,2.7
	c-2.4-0.6-3.3-2.8-3.7-4.9c-1.4-9.2-2.7-18.5-3.9-27.7c-2.2-17.5-4.2-35-6.2-52.5c-0.8-6.4-3.4-9.5-8.1-9.5
	c-5.3-0.1-9.4,3.9-9.6,10.1c-0.3,8.6-0.1,17.3-0.1,26c0.3,28.3,3,56.5,8.1,84.3c0.7,4.1,1,8.3-0.1,12.4c-1.6,5.7-5.5,8-11.2,6.5
	c-1.8-0.5-2.1-0.3-2.7,1.4c-3.6,10.3-13.2,13.4-22.2,7.1c-2.4-1.7-4.5-3.9-7.6-6.6c-0.1,11.2-2.6,21.8,4.3,31.3
	c5.3,7.1,11.5,13.5,18.5,18.8c2.9,2.2,4.2,4.5,4.1,8.3c-0.2,9.2-0.1,18.3,0.5,27.5c0.4,5.1-1.4,4.4-4.8,3.1
	c-26.9-10-49-26.4-65.2-50c-29.7-43.4-34.9-90.1-13-137.9C66.6,63,105.2,35.6,157.9,30.3c72.6-7.5,137.5,42.8,150.1,114.6
	c12.2,70.2-32.7,139.8-101.6,157.7c-4,1-4.4-0.1-4.4-3.5c0.1-11.3,0.3-22.6,1-34c0.2-4.8,1.8-9.5,4.6-13.5
	c6.2-8.8,12.3-17.8,17-27.6c3.7-7.1,3.6-15.5-0.3-22.5c-6.7-12.9-15.3-23.4-30.8-25.8c-3.3-0.5-6.6-0.2-9.8,1
	c-5.7,2-11.2,4.2-16.9,6.1c-2.2,0.7-4.2,1.4-4.7,3.9c-0.6,2.8,0.6,4.9,2.7,6.5c4.7,3.8,10.2,5.4,16.2,5.9c2.5,0.1,5,0.4,7.4,0.8
	c8.6,1.5,8.8,2,9.7,10.8c0.4,3.9-1.1,5.8-5,5.6c-4.6-0.3-9.3-0.9-13.9-1.2c-14.7-1-20.3,2.4-26.1,16.2c-0.4,0.9-1.1,1.6-2,2
	L151.2,233.2z M170,149.4l1.4,0.2l7.8-16c7.9-16.3,15.6-32.8,23.9-49c4-8,14-11.5,21.3-8.2c7.6,3.4,10.3,10.6,7.4,19.2
	c-7.8,24-15.6,48.1-23.5,72.1c-1,2.9-0.5,4.4,2.1,6c11.6,7.3,18.7,18.2,23.4,30.8c2.3,6.2,1.7,12.4-0.6,18.5
	c-3.3,8.9-7.9,17.3-13.8,24.8c-6.9,8.7-10.3,18-9.3,29c0.1,1.2,0,2.3,0,3.5c0,6.5,0.2,6.7,6.3,4.3c21.7-8.5,40-21.6,54.2-40.2
	c21.5-28.2,30.3-60,25.4-95.2c-4.2-30.2-18-55.7-40.9-76c-28.9-25.5-62.6-35.5-100.3-30.8c-34.3,4.2-62.2,20.7-83.3,48.1
	c-20.8,27-29.1,58.1-25.1,91.9c3.8,32.2,18.7,59,43,80.4c8,7,17,12.9,26.7,17.4c1.4,0.7,3.8,2.5,4-0.9c0.4-6.6,0.6-12.4-6.1-17.5
	c-16-12.2-25.2-28.1-21-49.4c0.8-4.4,0.1-9-2-13c-5-9.9-7.8-20.2-6-31.7s6.5-18.2,17.6-21.5c1.3-0.4,2.3-1.4,2.6-2.6
	c3.9-9.4,11-14.8,21-16.2c2.5-0.3,3-1.4,3-3.5c-0.1-5.7-0.3-11.3,0-17c0.5-10.5-2.1-20.8-0.1-31.3c1.6-8.1,7.4-13.9,15.6-14.2
	s15.1,4.3,16.2,11.2c1.3,8.7,2.1,17.4,3.2,26.2L170,149.4z M140,195.1c-3.1-18.7-5.3-37.5-7.5-56.3c-0.5-4.3-2.7-4.7-6.1-4.1
	c-8,1.4-14.1,7.8-15.1,15.8c-0.6,4.3-0.3,8.8,0.9,13c3.6,14.1,9.4,27,19.8,37.5c1.2,1.2,2.5,3.1,4.6,2.4c2.3-0.8,3-3,3.4-5.2
	C140.1,197.1,140.1,196.1,140,195.1L140,195.1z M91.7,174.8c1.5,14.7,7.1,27.5,18.9,37.1c4.3,3.5,10.2,3.2,13.2,0
	c3.2-3.5,2.9-8.7-0.4-13c-9-11.9-14.9-25.2-16.7-40.1c-0.8-6.2-2.8-7-8-3.2c-1.6,1.2-2.8,2.8-3.7,4.6
	C92.5,164.7,92,169.6,91.7,174.8L91.7,174.8z"/>
<path class="st0" d="M151.2,233.1l-0.3,0.1L151.2,233.1L151.2,233.1z"/>
<path class="st2" d="M170,149.4l-6-50.9c-1-8.7-1.8-17.5-3.2-26.2c-1-6.9-8.1-11.5-16.2-11.2s-14,6.1-15.6,14.2
	c-2,10.5,0.6,20.9,0.1,31.3c-0.3,5.7,0,11.3,0,17c0,2.2-0.5,3.2-3,3.5c-10,1.4-17.1,6.8-21,16.2c-0.4,1.3-1.4,2.3-2.6,2.6
	c-11.1,3.3-15.9,10-17.6,21.4c-1.7,11.4,1,21.8,6,31.7c2.1,4,2.8,8.6,2,13c-4.2,21.3,5,37.1,21,49.4c6.7,5.1,6.5,10.9,6.1,17.5
	c-0.2,3.4-2.6,1.6-4,0.9c-9.7-4.5-18.6-10.4-26.7-17.4C65,241,50.1,214.2,46.3,182c-4-33.8,4.3-64.8,25.1-91.9
	c21.1-27.3,49-43.8,83.3-48.1c37.7-4.7,71.4,5.4,100.1,30.9c23,20.4,36.7,45.8,40.9,76c4.9,35.1-3.9,66.9-25.4,95.2
	c-14.2,18.6-32.5,31.6-54.2,40.2c-6,2.4-6.3,2.2-6.3-4.3c0-1.2,0.1-2.3,0-3.5c-1-11,2.4-20.2,9.3-29c5.9-7.5,10.5-15.8,13.8-24.7
	c2.3-6.1,2.9-12.3,0.6-18.5c-4.6-12.7-11.8-23.5-23.4-30.8c-2.5-1.6-3-3.1-2.1-6c7.9-24,15.6-48.1,23.5-72.1
	c2.8-8.7,0.1-15.8-7.4-19.2c-7.2-3.2-17.2,0.2-21.3,8.2c-8.2,16.2-15.9,32.6-23.9,49l-7.8,16H170z"/>
<path class="st1" d="M140,195.1c0.1,1,0.1,2,0,3c-0.4,2.2-1.1,4.4-3.4,5.2c-2.1,0.7-3.4-1.2-4.6-2.4c-10.5-10.5-16.2-23.4-19.9-37.5
	c-1.1-4.2-1.4-8.7-0.9-13c1-8,7.2-14.4,15.1-15.8c3.3-0.6,5.6-0.2,6.1,4.1C134.7,157.6,136.9,176.4,140,195.1z M91.7,174.8
	c0.3-5.1,0.9-10.1,3.2-14.6c0.9-1.8,2.1-3.4,3.7-4.6c5.3-3.8,7.3-3,8,3.2c1.8,14.9,7.7,28.2,16.7,40.1c3.3,4.4,3.5,9.5,0.4,13
	c-3,3.3-8.9,3.5-13.2,0C98.8,202.3,93.2,189.5,91.7,174.8z"/>
</svg>
