<?xml version="1.0" encoding="utf-8"?>
<!-- Generator: Adobe Illustrator 21.1.0, SVG Export Plug-In . SVG Version: 6.00 Build 0)  -->
<svg version="1.1" id="scissors" xmlns="http://www.w3.org/2000/svg" xmlns:xlink="http://www.w3.org/1999/xlink" x="0px" y="0px"
	 viewBox="0 0 340.2 340.2" style="enable-background:new 0 0 340.2 340.2;" xml:space="preserve">
<style type="text/css">
	.st0{fill:#457391;}
	.st1{fill:#FBFCFC;}
	.st2{fill:#77AFBF;}
</style>
<title>scissors</title>
<path class="st0" d="M170.1,2.1c92.7,0.1,167.6,73.8,168,167c0,0.2,0,0.4,0,0.6c0.1,92.4-74.8,167.3-167.2,167.4
	C78.3,337.2,3.1,262.3,3.1,169.7C3.1,77.3,77.9,2.1,170.1,2.1z M16.9,173.1c1.5,75.2,58,144.4,143,151.1
	c47.1,3.7,88.5-12.3,121.9-46.4c29.7-30.3,44.3-67.2,44.1-109.6C325.5,84,255.4,15,171.2,15.6C84.1,15.5,15.2,87.5,16.9,173.1z"/>
<path class="st1" d="M171.2,15.6C255.4,15,325.5,84,325.9,168.2c0.2,42.4-14.4,79.3-44.1,109.6c-33.4,34.1-74.8,50.1-121.9,46.4
	c-85-6.7-141.5-75.9-143-151.1C15.1,87.5,84.1,15.6,171.2,15.6L171.2,15.6z M107,189c12.5,0.3,22.4-9.4,22.9-22.8
	c0.1-5.1-0.7-10.3-1-15.4c-0.1-1.5-1.7-3.8,1-4c2-0.1,5-0.3,5.7,2.8c0.7,3.5,1.2,6.9,1.5,10.4c0.3,6.3,2.4,12.5,6.2,17.6
	c2.8,3.8,6.5,5.5,11.3,4.6c4.5-0.8,6.1-4,7.3-7.9c1.5-4.9,3.4-9.7,5.3-14.5c2-5.2,2.8-10.6,1.3-16.1c-0.6-2-0.6-2.9,2.1-3.7
	c25.3-7.8,50.4-15.9,75.6-24c3.7-1.2,7.3-2.4,9.9,1.6c2.6,4,1.5,7.6-1.6,10.9c-1.8,1.8-3.9,3.2-6.2,4.2
	c-20.4,9.9-40.7,19.7-61.1,29.6c-2.5,1.2-5,2.6-7.3,4.2c-2,1.4-3.4,3.4-2.7,6c0.6,2.5,2.7,3.4,4.9,3.7c9.2,1.4,18.5,2.8,27.7,3.9
	c17.5,2.1,35,4.1,52.5,6.2c6.3,0.8,9.4,3.4,9.5,8.1c0.1,5.3-3.9,9.4-10.1,9.6c-8.7,0.3-17.3,0.1-26,0.1c-28.2-0.3-56.5-3-84.3-8.1
	c-4.1-0.8-8.3-1.1-12.4,0.1c-5.7,1.6-8,5.5-6.5,11.2c0.5,1.7,0.3,2.1-1.4,2.7c-10.4,3.6-13.4,13.2-7.1,22.2c1.7,2.4,3.9,4.5,6.6,7.6
	c-11.3,0.1-21.8,2.6-31.3-4.3c-7.1-5.3-13.4-11.5-18.8-18.5c-2.2-2.9-4.5-4.2-8.3-4.1c-9.2,0.2-18.4,0.1-27.5-0.5
	c-5.1-0.4-4.4,1.3-3.1,4.8c10,26.9,26.4,49,50,65.2c43.4,29.7,90.1,34.9,137.9,13c47.9-22,75.3-60.6,80.6-113.2
	c7.3-72.4-42.9-137.3-114.9-150C125.1,19.9,55.5,64.8,37.8,133.8c-1.1,4,0,4.4,3.5,4.4c11.4,0,22.7-0.2,34-1
	c4.9-0.2,9.5-1.8,13.5-4.6c8.8-6.2,17.8-12.3,27.6-17c7.1-3.7,15.5-3.6,22.5,0.3c12.9,6.7,23.4,15.3,25.8,30.8
	c0.5,3.3,0.2,6.7-1,9.8c-2,5.6-4.2,11.2-6.1,16.9c-0.8,2.2-1.4,4.1-3.9,4.7c-2.7,0.6-4.8-0.6-6.5-2.7c-3.8-4.8-5.4-10.3-5.9-16.2
	c-0.1-2.5-0.4-4.9-0.8-7.4c-1.6-8.6-2-8.9-10.8-9.7c-3.9-0.3-5.8,1.1-5.6,5c0.3,4.6,0.9,9.3,1.2,13.9c1,14.7-2.4,20.2-16.2,26.1
	C108.2,187.4,107.5,188.2,107,189v0.4V189L107,189z"/>
<path class="st0" d="M106.9,189.1c0.4-0.9,1.1-1.6,2-2c13.8-5.8,17.2-11.4,16.2-26.1c-0.3-4.6-0.9-9.3-1.2-13.9
	c-0.2-3.9,1.7-5.4,5.6-5c8.8,0.9,9.3,1.1,10.8,9.7c0.4,2.4,0.7,4.9,0.8,7.4c0.5,6,2.1,11.5,5.9,16.2c1.6,2.1,3.7,3.3,6.5,2.7
	c2.5-0.5,3.2-2.5,3.9-4.7c1.9-5.7,4.1-11.2,6.1-16.9c1.2-3.2,1.5-6.5,1-9.8c-2.4-15.5-12.9-24.1-25.8-30.8c-7-3.9-15.4-4-22.5-0.3
	c-9.8,4.7-18.8,10.8-27.6,17c-4,2.8-8.7,4.4-13.5,4.6c-11.4,0.7-22.7,0.9-34,1c-3.4,0-4.5-0.4-3.5-4.4
	C55.5,64.9,125.1,20,195.3,32.2c71.8,12.6,122.1,77.5,114.6,150.1c-5.3,52.7-32.7,91.3-80.6,113.2c-47.8,21.9-94.5,16.7-137.9-13
	c-23.6-16.2-40-38.3-50-65.2c-1.3-3.4-2-5.2,3.1-4.8c9.2,0.6,18.3,0.7,27.5,0.5c3.8-0.1,6.1,1.2,8.3,4.1c5.3,7,11.7,13.2,18.8,18.5
	c9.5,6.9,20.1,4.4,31.3,4.3c-2.7-3.1-4.9-5.2-6.6-7.6c-6.3-9-3.2-18.6,7.1-22.2c1.7-0.6,1.9-0.9,1.4-2.7c-1.5-5.7,0.8-9.6,6.5-11.2
	c4.1-1.1,8.3-0.8,12.4-0.1c27.8,5.1,56,7.8,84.3,8.1c8.7,0,17.4,0.2,26-0.1c6.2-0.2,10.2-4.3,10.1-9.6c0-4.7-3.1-7.3-9.5-8.1
	c-17.5-2-35-4-52.5-6.2c-9.2-1.2-18.5-2.5-27.7-3.9c-2.1-0.4-4.3-1.3-4.9-3.7c-0.6-2.6,0.7-4.6,2.7-6c2.3-1.6,4.8-3,7.3-4.2
	c20.4-9.9,40.8-19.7,61.2-29.5c2.3-1,4.4-2.4,6.2-4.2c3.1-3.3,4.2-7,1.6-10.9c-2.6-3.9-6.3-2.8-9.9-1.6c-25.2,8-50.4,16.2-75.6,24
	c-2.6,0.8-2.6,1.7-2.1,3.7c1.5,5.5,0.7,10.8-1.3,16.1c-1.8,4.8-3.8,9.6-5.3,14.5c-1.3,3.9-2.8,7.1-7.3,7.9
	c-4.7,0.8-8.4-0.8-11.3-4.6c-3.8-5.1-5.9-11.2-6.2-17.6c-0.3-3.5-0.8-7-1.5-10.4c-0.6-3.1-3.6-3-5.7-2.8c-2.7,0.2-1.1,2.6-1,4
	c0.3,5.1,1.1,10.3,1,15.4c-0.3,13.2-10.3,22.9-22.8,22.6L106.9,189.1z M241.4,176.1c8.8,1.1,17.5,1.9,26.2,3.2
	c6.9,1.1,11.5,8,11.2,16.2c-0.3,8.2-6.1,14-14.2,15.6c-10.5,2-20.8-0.6-31.3-0.1c-5.7,0.3-11.3,0.1-17,0c-2.1,0-3.2,0.5-3.5,3
	c-1.4,10-6.8,17.1-16.2,21c-1.2,0.3-2.2,1.3-2.6,2.6c-3.3,11.1-10,15.8-21.5,17.6s-21.8-1-31.7-6c-4-2.1-8.6-2.8-13-2
	c-21.3,4.2-37.2-5-49.4-21c-5.1-6.7-10.9-6.5-17.5-6.1c-3.4,0.2-1.6,2.6-0.9,4c4.5,9.7,10.4,18.7,17.4,26.7
	c21.4,24.3,48.2,39.2,80.4,43c33.8,4,64.9-4.3,91.9-25.1c27.4-21.1,43.9-49,48.1-83.3c4.7-37.7-5.3-71.4-30.8-100.3
	c-20.3-22.9-45.8-36.7-76-40.9c-35.2-4.9-67,3.9-95.2,25.4c-18.6,14.2-31.7,32.5-40.2,54.2c-2.4,6.1-2.2,6.3,4.3,6.3
	c1.2,0,2.3-0.1,3.5,0c11,1,20.3-2.4,29-9.3c7.5-5.9,15.9-10.5,24.8-13.8c6.1-2.3,12.3-2.9,18.5-0.6c12.6,4.7,23.5,11.8,30.8,23.4
	c1.6,2.6,3.1,3.1,6,2.1c24-7.9,48.1-15.7,72.1-23.5c8.6-2.9,15.8-0.2,19.2,7.4c3.3,7.3-0.2,17.3-8.2,21.3c-16.2,8.3-32.7,16-49,23.9
	l-16,7.8l0.2,1.4L241.4,176.1z M145.1,200.2c-1-0.1-2-0.1-3.1,0c-2.2,0.4-4.4,1.1-5.2,3.4c-0.7,2.1,1.2,3.4,2.4,4.6
	c10.5,10.4,23.4,16.2,37.5,19.8c4.2,1.2,8.7,1.5,13,0.9c8-1,14.4-7.1,15.8-15.1c0.6-3.4,0.2-5.6-4.1-6.1
	C182.6,205.5,163.8,203.3,145.1,200.2L145.1,200.2z M165.4,248.5c5.2-0.3,10.1-0.8,14.6-3.3c1.8-0.9,3.4-2.1,4.6-3.7
	c3.8-5.2,3-7.2-3.2-8c-14.9-1.8-28.2-7.7-40.1-16.7c-4.3-3.3-9.5-3.6-13-0.4c-3.2,3-3.5,8.9,0,13.2
	C137.9,241.4,150.7,247,165.4,248.5L165.4,248.5z"/>
<path class="st0" d="M107.1,189l-0.1,0.3L107.1,189L107.1,189z"/>
<path class="st2" d="M190.8,169.1l16-7.8c16.4-8,32.8-15.7,49-23.9c8-4.1,11.4-14.1,8.2-21.3c-3.4-7.5-10.5-10.2-19.2-7.4
	c-24,7.9-48.1,15.6-72.1,23.5c-2.9,0.9-4.4,0.4-6-2.1c-7.3-11.6-18.1-18.8-30.8-23.4c-6.2-2.3-12.4-1.7-18.5,0.6
	c-8.9,3.3-17.2,7.9-24.7,13.8c-8.8,6.9-18,10.3-29,9.3c-1.2-0.1-2.3,0-3.5,0c-6.5,0-6.7-0.3-4.3-6.3c8.6-21.7,21.6-40,40.2-54.2
	c28.3-21.5,60.1-30.3,95.2-25.4c30.2,4.2,55.6,17.9,76,40.9c25.5,28.7,35.6,62.4,30.9,100.1c-4.3,34.3-20.8,62.2-48.1,83.3
	c-27.1,20.8-58.1,29.1-91.9,25.1c-32.2-3.8-59-18.7-80.4-43c-7-8.1-12.9-17-17.4-26.7c-0.7-1.4-2.5-3.8,0.9-4
	c6.6-0.4,12.4-0.6,17.5,6.1c12.3,16,28.1,25.2,49.4,21c4.4-0.8,9-0.1,13,2c9.9,5,20.3,7.7,31.7,6c11.4-1.7,18.1-6.5,21.4-17.6
	c0.3-1.2,1.3-2.2,2.6-2.6c9.4-3.9,14.8-11,16.2-21c0.3-2.5,1.3-3,3.5-3c5.7,0,11.3,0.3,17,0c10.4-0.5,20.8,2.1,31.3,0.1
	c8.1-1.6,13.9-7.5,14.2-15.6c0.3-8.1-4.3-15.2-11.2-16.2c-8.7-1.4-17.5-2.2-26.2-3.2l-50.9-6V169.1z"/>
<path class="st1" d="M201.5,207.8c4.3,0.5,4.7,2.8,4.1,6.1c-1.4,7.9-7.8,14.1-15.8,15.1c-4.3,0.5-8.8,0.2-13-0.9
	c-14.1-3.7-27-9.4-37.5-19.9c-1.2-1.2-3.1-2.5-2.4-4.6c0.8-2.3,3-3,5.2-3.4c1-0.1,2-0.1,3,0C163.8,203.3,182.6,205.5,201.5,207.8z
	 M128.3,229.7c-3.5-4.3-3.3-10.2,0-13.2c3.5-3.1,8.6-2.9,13,0.4c11.9,9,25.2,14.9,40.1,16.7c6.2,0.7,7,2.7,3.2,8
	c-1.2,1.6-2.8,2.8-4.6,3.7c-4.5,2.3-9.5,2.9-14.6,3.2C150.7,247,137.9,241.4,128.3,229.7z"/>
</svg>
