<?xml version="1.0" encoding="utf-8"?>
<!-- Generator: Adobe Illustrator 21.1.0, SVG Export Plug-In . SVG Version: 6.00 Build 0)  -->
<svg version="1.1" id="spock" xmlns="http://www.w3.org/2000/svg" xmlns:xlink="http://www.w3.org/1999/xlink" x="0px" y="0px"
	 viewBox="0 0 170 170" style="enable-background:new 0 0 170 170;" xml:space="preserve">
<style type="text/css">
	.st0{fill:#447391;}
	.st1{fill:#FBFCFC;}
	.st2{fill:#77AFBF;}
</style>
<title>spock</title>
<path class="st0" d="M84.6,168.5c-44.7,0-82.5-35.4-83.6-81.3C-0.2,40.4,36.5,1.8,82.3,1c46.8-0.8,85.3,35.6,86.1,81.5
	C169.2,130.1,132.6,167.7,84.6,168.5L84.6,168.5z M86.1,7.8C42,7.9,7.3,42.5,7.5,85c0,0.4,0,0.8,0,1.2c0.5,42.5,35.4,76.6,77.9,76.1
	c40.5-0.3,74.2-30.7,76.7-73.9c1.2-22.3-6.9-42.1-23-58.1C124,15.4,105.8,8.1,86.1,7.8L86.1,7.8z"/>
<path class="st1" d="M86.1,7.8c19.7,0.3,37.9,7.6,52.9,22.5c16.2,16,24.3,35.8,23,58.1c-2.4,43.2-36.2,73.5-76.7,73.9
	c-0.4,0-0.8,0-1.2,0C41.6,162.1,7.2,127.5,7.4,85C7.3,42.4,42,7.9,86.1,7.8L86.1,7.8z M124.9,88.4c0.9,0,1.7-0.3,2.4-0.8
	c-0.7-0.4-1.5-0.4-2.2,0c-9.3,0.9-16.4-2.3-20.7-11c-0.7,2.6-0.1,4.9,1.9,7.3c3.6,4.4,8.5,5.9,14,5.3
	C121.8,89,123.4,88.8,124.9,88.4L124.9,88.4z M83.5,77.6c0.3-0.2,0.5-0.6,0.4-0.8c-0.4-0.3-0.5,0.3-0.7,0.4
	c-2.4,3.1-5.5,2.1-8.6,1.7c-9.7-1.3-19.5-2.7-29.2-3.9c-1.8-0.3-2-1.2-1.8-2.6c0.5-3.7,3.5-6.1,7.7-5.9c6.8,0.3,13.6,0.9,20.4,1.2
	c9.2,0.4,18.5,0.9,27.7-0.2c3.4-0.4,4.1-1.5,3.6-4.8c-0.5-2.6-2-4.7-3.5-6.8c-2.8-3.8-5.9-7.4-7.5-12c-1-3-1-5.9,1-8.5
	c1.4-1.9,2.5-1.9,4.1-0.4c0.3,0.2,0.5,0.4,0.7,0.7c5.3,8.3,13,14.2,20.8,19.9c3.9,3,7.4,6.4,10.6,10.2c1.7,2,4.1,3.2,6.7,3.2
	c4.7,0.2,9.3,0.6,14,0.6c1.8,0,2-0.4,1.6-2.1c-2.9-11-8.4-21.1-16.1-29.5c-24.7-27.2-66.3-30.3-94.8-7.1c-15,12-23.5,27.8-25.4,47
	c-3.4,32.5,16.5,63,47.6,73.1c36.5,11.8,75.6-8.2,87.4-44.6c0.9-2.9,0.9-2.9-2.1-2.9c-4.4,0-8.8,0.1-13.2-0.1
	c-2.8-0.3-5.5,0.6-7.6,2.4c-7,6.2-15.4,7.9-24.4,7.7c-10-0.2-19.4,2.7-29,4.7c-3.7,0.8-7.5,1.7-11.2,2.5c-2.1,0.4-3.9-0.1-4.7-2.3
	c-0.4-1.3-0.3-2.4,1.3-3c8-3.1,15.9-6.2,23.7-9.4c1.8-0.8,2.7,1.2,4.4,0.8c-1.8-1.8-3.2-4.1-4-6.5c0.7,3.4-1.7,3.9-3.8,4.7
	c-7.3,2.9-14.5,5.7-21.8,8.6c-2.3,0.9-4.8,1.4-7.3,1.5c-2.4,0-4.5-1.7-5.1-4s0.3-3.9,2.8-4.8c8.9-3.3,17.8-6.5,26.7-9.8
	c1.6-0.6,3.2-1.3,4.8-2.1c0.8-0.4,1.9-0.6,1.7-1.8s-1.1-1.6-2.2-1.7c-4.7-0.7-9.4-1.4-14.1-2c-7.5-1-15-2-22.5-3.1
	c-3.8-0.5-5.3-3.7-3.5-7c0.7-1.2,1.6-2.1,3.2-1.9c12.1,1.6,24.3,3.2,36.4,4.7c2,0.3,1.5,2.5,3.1,3.3C81.8,82.4,82.4,79.9,83.5,77.6
	L83.5,77.6z"/>
<path class="st0" d="M83.1,77.2c0.1,0.1,0.3,0.3,0.3,0.4c-1.2,2.3-1.7,4.8-1.7,7.3c-1.6-0.8-1.1-3-3.1-3.3
	c-12.2-1.5-24.3-3.1-36.4-4.7c-1.4-0.2-2.7,0.6-3.2,1.9c-1.7,3.3-0.2,6.5,3.5,7c7.5,1.1,15,2.1,22.5,3.1c4.7,0.7,9.4,1.4,14.1,2
	c1.1,0.2,2,0.4,2.2,1.7s-0.9,1.4-1.7,1.8c-1.6,0.8-3.2,1.5-4.8,2.1c-8.9,3.3-17.8,6.5-26.7,9.8c-2.5,1-3.4,2.5-2.8,4.8s2.7,4,5.1,4
	c2.5,0,5-0.6,7.3-1.5c7.2-2.9,14.5-5.8,21.8-8.6c2.1-0.8,4.5-1.3,3.8-4.7c0.9,2.4,2.2,4.6,4,6.5c-1.8,0.5-2.6-1.5-4.4-0.8
	c-7.9,3.3-15.8,6.4-23.7,9.4c-1.7,0.7-1.8,1.7-1.3,3c0.8,2.2,2.6,2.7,4.7,2.3c3.7-0.8,7.5-1.7,11.2-2.5c9.6-2,19.1-4.9,29-4.7
	c9,0.1,17.4-1.5,24.4-7.7c2.1-1.8,4.8-2.7,7.6-2.4c4.4,0.1,8.8,0.1,13.2,0.1c3,0.1,3,0.1,2.1,2.9c-10.1,31.1-40.5,51-73.1,47.6
	c-38.1-3.9-65.8-38-61.9-76.1c1.6-18.5,10.8-35.5,25.4-47C69,7.7,110.6,10.8,135.3,38c7.8,8.3,13.3,18.5,16.1,29.5
	c0.5,1.7,0.2,2.1-1.6,2.1c-4.7,0-9.3-0.4-14-0.6c-2.6-0.1-5-1.2-6.7-3.2c-3.2-3.8-6.7-7.2-10.6-10.2C110.7,49.9,103,44,97.7,35.7
	c-0.2-0.3-0.4-0.5-0.7-0.7c-1.6-1.5-2.7-1.4-4.1,0.4c-2,2.6-2,5.5-1,8.5c1.6,4.6,4.7,8.2,7.5,12c1.6,2,3.1,4.1,3.5,6.8
	c0.5,3.3-0.2,4.4-3.6,4.8c-9.2,1-18.5,0.6-27.7,0.2c-6.8-0.3-13.6-0.9-20.4-1.2c-4.2-0.2-7.1,2.2-7.7,5.9c-0.2,1.5,0,2.4,1.8,2.6
	c9.8,1.3,19.5,2.6,29.2,3.9C77.6,79.3,80.8,80.3,83.1,77.2L83.1,77.2z M68.3,94c-4.1-0.6-7.4-1.1-10.8-1.7
	c-5.4-0.8-10.8-1.4-16.2-2.3c-3.7-0.6-6.4-2.6-7.1-6.6c-0.9-3.6,0.5-7.5,3.4-9.8c0.6-0.4,1.2-0.7,1.4-1.6c1.6-8.7,8.4-10.8,15.5-9.9
	c3.3,0.4,6.6,0.5,9.9,0.7c9.9,0.5,19.8,0.9,29.7,0.6c1.4,0,3.3,0.2,3.8-0.9c0.5-0.9-0.8-2.3-1.6-3.4c-3.2-4.2-6.6-8.2-8.4-13.2
	c-1.7-4.6-1.6-9.1,1.4-13.3s7.2-4.6,11-1c2.5,2.5,4.1,5.6,6.5,8.2c4.5,4.8,9.9,8.4,15,12.4c3.7,2.9,7.1,6.1,10.1,9.7
	c3.1,3.5,7,2.6,10.7,2.5c1.5,0,0.8-1.7,0.4-2.6c-2.1-5.7-5.2-11-8.9-15.8c-10.6-13.6-24.3-21.8-41.4-24C73.5,19.6,56.5,24.6,42,37.6
	C30.2,47.9,22.9,62.4,21.6,78c-1.8,19,3.9,35.8,17.2,49.8c9.5,10,21.1,16.4,34.6,18.5c20.4,3.2,38.6-1.9,53.9-16.2
	c5.8-5.5,10.6-12,14-19.2c1.3-2.9,1.3-2.9-1.7-2.9h-0.2c-5.3-1-9.5,1.2-13.5,4.3c-4.2,3.3-9.4,5.1-14.8,5.1
	c-13,0.3-25.7,2.6-38.3,5.7c-3,0.8-6.1,1.4-9.2,2.1c-3.6,0.9-7.3-0.8-9-4.1c-0.7-1.3-1.2-1.6-2.7-1.3c-4.3,0.7-8.6-2.1-10.5-6.5
	c-1.6-3.5-0.5-7.7,2.6-10c2.5-1.8,5.6-2.2,8.5-3.3c4.5-1.8,9.2-3.3,13.8-5C66.7,94.8,67.2,94.6,68.3,94L68.3,94z"/>
<path class="st0" d="M124.8,88.5c-1.5,0.2-3,0.6-4.6,0.8c-5.5,0.6-10.3-0.9-14-5.3c-2-2.4-2.6-4.7-1.9-7.3c4.3,8.7,11.4,12,20.7,11
	C124.9,87.9,124.9,88.2,124.8,88.5z"/>
<path class="st2" d="M125,87.7c0.7-0.4,1.5-0.3,2.2,0.1c-0.7,0.4-1.5,0.7-2.3,0.7C124.9,88.2,125,88,125,87.7L125,87.7z"/>
<path class="st0" d="M83.1,77.2c0.3-0.2,0.5-0.6,0.7-0.4s0,0.6-0.3,0.8L83.1,77.2z"/>
<path class="st2" d="M66.4,95.2c-4.6,1.7-9.2,3.2-13.8,5c-2.8,1.1-6,1.5-8.5,3.3c-3.1,2.3-4.2,6.5-2.6,10c1.9,4.4,6.3,7.2,10.5,6.5
	c1.5-0.2,2.1,0.1,2.7,1.3c1.7,3.3,5.4,5,9,4.1c3.1-0.7,6.1-1.3,9.2-2.1c12.5-3.3,25.4-5.3,38.3-5.7c5.4,0,10.6-1.8,14.8-5.1
	c4-3.1,8.2-5.2,13.5-4.3h0.2c3,0.1,3.1,0.1,1.7,2.9c-3.4,7.2-8.2,13.7-14,19.2c-15.3,14.3-33.6,19.4-53.9,16.2
	C60,144.4,48.4,138,38.9,128C25.6,114,20,97.2,21.7,78.2c1.2-15.6,8.6-30.1,20.4-40.4c14.5-13,31.5-18.1,50.7-15.6
	c17.1,2.2,30.8,10.5,41.4,24c3.7,4.8,6.8,10.1,8.9,15.8c0.4,0.9,1.2,2.5-0.4,2.6c-3.7,0.1-7.6,1-10.7-2.5c-3.1-3.5-6.4-6.8-10.1-9.7
	c-5.2-4-10.6-7.6-15-12.4c-2.4-2.6-3.9-5.8-6.5-8.2c-3.7-3.6-8-3.2-11,1s-3.1,8.7-1.4,13.3c1.8,5,5.3,9,8.4,13.2
	c0.8,1,2.1,2.3,1.6,3.4s-2.4,0.9-3.8,0.9c-9.9,0.3-19.8,0-29.7-0.6c-3.3-0.2-6.6-0.3-9.9-0.7c-7.1-0.9-13.9,1.2-15.5,9.9
	c-0.2,0.8-0.8,1.1-1.4,1.6c-3.2,2.5-4.1,5.8-3.4,9.8s3.4,6,7.1,6.6c5.3,0.9,10.8,1.5,16.2,2.3c3.3,0.5,6.6,0.9,10.7,1.5
	C67.6,94.3,66.9,94.7,66.4,95.2z"/>
</svg>
