<?xml version="1.0" encoding="utf-8"?>
<!-- Generator: Adobe Illustrator 21.1.0, SVG Export Plug-In . SVG Version: 6.00 Build 0)  -->
<svg version="1.1" id="Layer_1" xmlns="http://www.w3.org/2000/svg" xmlns:xlink="http://www.w3.org/1999/xlink" x="0px" y="0px"
	 viewBox="0 0 67.2 87.8" style="enable-background:new 0 0 67.2 87.8;" xml:space="preserve">
<path d="M61.2,10.8c-0.3,0-0.7-0.1-1-0.1c-1.1,0-2.1,0.3-3.1,0.7l0.3-1.9c0-0.3,0.1-0.7,0.1-1c0-3.4-2.5-6.4-6-6.9
	c-0.3,0-0.7-0.1-1-0.1c-3.4,0-6.4,2.5-6.9,6L39,37.7L29.8,5.2C29,2.1,26.2,0,23.1,0c-0.6,0-1.2,0.1-1.8,0.2
	c-3.1,0.8-5.2,3.7-5.2,6.8c0,0.2,0,0.4,0,0.6C15.2,7.3,14.3,7,13.3,7c-0.6,0-1.2,0.1-1.8,0.2C8.4,8.1,6.3,10.9,6.3,14
	c0,0.6,0.1,1.2,0.2,1.8l4.2,17.2c-0.8,0.1-1.7,0.4-2.6,0.8c-0.5,0.2-0.8,0.7-0.8,1.2c0,0,0,0,0,0.2c-0.2,1.2-1.2,7.1-7,14.4
	C0.1,50,0,50.4,0,50.8c0,0.1,0.7,9.1,3.7,18.2c1.5,4.6,3.5,9.2,6.4,12.7c2.9,3.6,6.8,6.1,11.6,6.1h0c0.1,0,0.1,0,0.2,0h24.9
	c8.9,0,16.1-7.2,16.1-16.1V51.5l4.2-32.8c0-0.3,0.1-0.6,0.1-1C67.2,14.3,64.7,11.3,61.2,10.8z M64.2,18.3l-3.5,27.2l-0.7,5.7v1
	l0,19.4c0,7.3-5.9,13.1-13.2,13.2l-24.9,0c-0.1,0-0.2,0-0.2,0c-3.8,0-6.8-1.9-9.4-5c-3.8-4.7-6.3-12.1-7.7-18.2
	c-0.7-3.1-1.2-5.9-1.4-7.9c-0.2-1.2-0.3-2.1-0.3-2.7c5.3-6.9,6.7-12.7,7.1-14.8c0.5-0.2,1-0.3,1.4-0.4c0.2,0,0.4-0.1,0.6,0
	c0.3,0,0.6,0,0.9,0.1c0.5,0.2,0.9,0.5,1.3,1c1,1.3,1.3,4.2,1.2,5.4c0,0.1,0,0.3,0,0.4c-0.2,0.5-0.5,1-0.7,1.4
	c-0.3,0.7-0.6,1.3-0.8,1.9c-1.5,3.6-2,6.2-2,8.1c-0.1,3.2,1.8,4.5,2.2,4.6l0.1,0l3.2,1c0,0,0.1,0,0.1,0c0,0,0.1,0,0.1,0
	c0.1,0,0.1,0,0.2,0c0.1,0,0.2,0,0.2,0c0.4,0,2.6,0.1,5,0.8c2.6,0.8,5.3,2.4,6.6,5.3c0.2,0.5,0.8,0.8,1.3,0.8c0.2,0,0.4,0,0.6-0.1
	c0.7-0.3,1-1.2,0.7-1.9c-1.8-4-5.4-5.9-8.4-6.8c-2-0.6-3.7-0.8-4.8-0.9l-0.9-5l-0.4-2.1L17.2,46c0-0.1,0-0.1,0-0.2
	c0.1-0.2,0.2-0.3,0.2-0.5c0.2-0.5,0.5-1.1,0.8-1.6c0.1-0.2,0.1-0.4,0.1-0.5c0,0,0-0.3,0-0.8c0-1.5-0.1-4.6-1.8-7.1
	c-0.6-0.9-1.6-1.7-2.8-2.1c0,0,0,0,0,0L9.4,15.1c-0.1-0.4-0.2-0.7-0.2-1.1c0-1.8,1.2-3.5,3-4c0.4-0.1,0.7-0.1,1.1-0.1
	c1.8,0,3.5,1.2,4,3l6.3,22.4l2.7,9.7c0.2,0.6,0.8,1.1,1.4,1.1c0.1,0,0.3,0,0.4-0.1c0.8-0.2,1.2-1,1-1.8l-0.4-1.5c0-0.1,0-0.3,0-0.4
	h0l-2.2-7.7L19.1,8C19,7.7,19,7.3,19,7c0-1.8,1.2-3.5,3-4c0.4-0.1,0.7-0.1,1.1-0.1c1.8,0,3.5,1.2,4,3l10.7,37.8
	c0.2,0.7,0.9,1.2,1.7,1c0,0,0,0,0.1,0c0.1,0,0.1,0,0.2,0c0.7,0,1.3-0.5,1.4-1.2l0,0L46.4,8c0.3-2.1,2-3.5,4-3.5c0.2,0,0.4,0,0.6,0
	c2,0.3,3.5,2,3.5,4c0,0.2,0,0.4,0,0.6l-0.9,6.3c-0.2,0.4-0.3,0.9-0.3,1.4l-2.7,19.8L50,40.3c0,0.1,0,0.2,0,0.3l-0.4,2.9
	c-0.1,0.8,0.4,1.5,1.2,1.6c0.8,0.1,1.5-0.4,1.6-1.2l0.9-6.8l3-20.9c0.6-1.5,2.1-2.5,3.8-2.5c0.2,0,0.4,0,0.6,0c2,0.3,3.5,2,3.5,4.1
	C64.3,18,64.3,18.2,64.2,18.3z M15.2,51.4l0.9,4.9l-0.8-0.2c-0.1-0.1-0.5-0.5-0.5-2C14.9,53.4,15,52.5,15.2,51.4z"/>
</svg>
