<?xml version="1.0" encoding="utf-8"?>
<!-- Generator: Adobe Illustrator 21.1.0, SVG Export Plug-In . SVG Version: 6.00 Build 0)  -->
<svg version="1.1" id="spock" xmlns="http://www.w3.org/2000/svg" xmlns:xlink="http://www.w3.org/1999/xlink" x="0px" y="0px"
	 viewBox="0 0 170 170" style="enable-background:new 0 0 170 170;" xml:space="preserve">
<style type="text/css">
	.st0{fill:#447391;}
	.st1{fill:#FBFCFC;}
	.st2{fill:#77AFBF;}
</style>
<title>spock</title>
<path class="st0" d="M84.8,168.5c-48-0.8-84.6-38.4-83.8-86C1.8,36.6,40.3,0.2,87.1,1c45.8,0.8,82.5,39.4,81.3,86.2
	C167.3,133.1,129.5,168.5,84.8,168.5L84.8,168.5z M83.3,7.8c-19.7,0.3-37.9,7.6-53,22.5c-16.1,16-24.2,35.8-23,58.1
	C9.8,131.6,43.5,162,84,162.3c42.5,0.5,77.4-33.6,77.9-76.1c0-0.4,0-0.8,0-1.2C162.1,42.5,127.4,7.9,83.3,7.8L83.3,7.8z"/>
<path class="st1" d="M83.3,7.8C127.4,7.9,162.1,42.4,162,85c0.2,42.5-34.2,77.1-76.7,77.3c-0.4,0-0.8,0-1.2,0
	c-40.5-0.4-74.3-30.7-76.7-73.9c-1.3-22.3,6.8-42.1,23-58.1C45.4,15.4,63.6,8.1,83.3,7.8L83.3,7.8z M44.5,88.4
	c1.5,0.4,3.1,0.6,4.6,0.8c5.5,0.6,10.4-0.9,14-5.3c2-2.4,2.6-4.7,1.9-7.3c-4.3,8.7-11.4,11.9-20.7,11c-0.7-0.4-1.5-0.4-2.2,0
	C42.8,88.1,43.6,88.4,44.5,88.4L44.5,88.4z M85.9,77.6c1.1,2.3,1.7,4.8,1.7,7.3c1.6-0.8,1.1-3,3.1-3.3c12.1-1.5,24.3-3.1,36.4-4.7
	c1.6-0.2,2.5,0.7,3.2,1.9c1.8,3.3,0.3,6.5-3.5,7c-7.5,1.1-15,2.1-22.5,3.1c-4.7,0.6-9.4,1.3-14.1,2c-1.1,0.1-2,0.5-2.2,1.7
	s0.9,1.4,1.7,1.8c1.6,0.8,3.2,1.5,4.8,2.1c8.9,3.3,17.8,6.5,26.7,9.8c2.5,0.9,3.4,2.5,2.8,4.8s-2.7,4-5.1,4c-2.5-0.1-5-0.6-7.3-1.5
	c-7.3-2.9-14.5-5.7-21.8-8.6c-2.1-0.8-4.5-1.3-3.8-4.7c-0.8,2.4-2.2,4.7-4,6.5c1.7,0.4,2.6-1.6,4.4-0.8c7.8,3.2,15.7,6.3,23.7,9.4
	c1.6,0.6,1.7,1.7,1.3,3c-0.8,2.2-2.6,2.7-4.7,2.3c-3.7-0.8-7.5-1.7-11.2-2.5c-9.6-2-19-4.9-29-4.7c-9,0.2-17.4-1.5-24.4-7.7
	c-2.1-1.8-4.8-2.7-7.6-2.4c-4.4,0.2-8.8,0.1-13.2,0.1c-3,0-3,0-2.1,2.9c11.8,36.4,50.9,56.4,87.4,44.6c31.1-10.1,51-40.6,47.6-73.1
	c-1.9-19.2-10.4-35-25.4-47C100.3,7.7,58.7,10.8,34,38c-7.7,8.4-13.2,18.5-16.1,29.5c-0.4,1.7-0.2,2.1,1.6,2.1c4.7,0,9.3-0.4,14-0.6
	c2.6,0,5-1.2,6.7-3.2c3.2-3.8,6.7-7.2,10.6-10.2c7.8-5.7,15.5-11.6,20.8-19.9c0.2-0.3,0.4-0.5,0.7-0.7c1.6-1.5,2.7-1.5,4.1,0.4
	c2,2.6,2,5.5,1,8.5c-1.6,4.6-4.7,8.2-7.5,12c-1.5,2.1-3,4.2-3.5,6.8c-0.5,3.3,0.2,4.4,3.6,4.8c9.2,1.1,18.5,0.6,27.7,0.2
	c6.8-0.3,13.6-0.9,20.4-1.2c4.2-0.2,7.2,2.2,7.7,5.9c0.2,1.4,0,2.3-1.8,2.6c-9.7,1.2-19.5,2.6-29.2,3.9c-3.1,0.4-6.2,1.4-8.6-1.7
	c-0.2-0.1-0.3-0.7-0.7-0.4C85.4,77,85.6,77.4,85.9,77.6L85.9,77.6z"/>
<path class="st0" d="M86.3,77.2c2.3,3.1,5.5,2.1,8.6,1.7c9.7-1.3,19.4-2.6,29.2-3.9c1.8-0.2,2-1.1,1.8-2.6c-0.6-3.7-3.5-6.1-7.7-5.9
	c-6.8,0.3-13.6,0.9-20.4,1.2c-9.2,0.4-18.5,0.8-27.7-0.2c-3.4-0.4-4.1-1.5-3.6-4.8c0.4-2.7,1.9-4.8,3.5-6.8c2.8-3.8,5.9-7.4,7.5-12
	c1-3,1-5.9-1-8.5c-1.4-1.8-2.5-1.9-4.1-0.4c-0.3,0.2-0.5,0.4-0.7,0.7c-5.3,8.3-13,14.2-20.8,19.9c-3.9,3-7.4,6.4-10.6,10.2
	c-1.7,2-4.1,3.1-6.7,3.2c-4.7,0.2-9.3,0.6-14,0.6c-1.8,0-2.1-0.4-1.6-2.1c2.8-11,8.3-21.2,16.1-29.5c24.7-27.2,66.3-30.3,94.8-7.1
	c14.6,11.5,23.8,28.5,25.4,47c3.9,38.1-23.8,72.2-61.9,76.1c-32.6,3.4-63-16.5-73.1-47.6c-0.9-2.8-0.9-2.8,2.1-2.9
	c4.4,0,8.8,0,13.2-0.1c2.8-0.3,5.5,0.6,7.6,2.4c7,6.2,15.4,7.8,24.4,7.7c9.9-0.2,19.4,2.7,29,4.7c3.7,0.8,7.5,1.7,11.2,2.5
	c2.1,0.4,3.9-0.1,4.7-2.3c0.5-1.3,0.4-2.3-1.3-3c-7.9-3-15.8-6.1-23.7-9.4c-1.8-0.7-2.6,1.3-4.4,0.8c1.8-1.9,3.1-4.1,4-6.5
	c-0.7,3.4,1.7,3.9,3.8,4.7c7.3,2.8,14.6,5.7,21.8,8.6c2.3,0.9,4.8,1.5,7.3,1.5c2.4,0,4.5-1.7,5.1-4s-0.3-3.8-2.8-4.8
	c-8.9-3.3-17.8-6.5-26.7-9.8c-1.6-0.6-3.2-1.3-4.8-2.1c-0.8-0.4-1.9-0.5-1.7-1.8s1.1-1.5,2.2-1.7c4.7-0.6,9.4-1.3,14.1-2
	c7.5-1,15-2,22.5-3.1c3.7-0.5,5.2-3.7,3.5-7c-0.5-1.3-1.8-2.1-3.2-1.9c-12.1,1.6-24.2,3.2-36.4,4.7c-2,0.3-1.5,2.5-3.1,3.3
	c0-2.5-0.5-5-1.7-7.3C86,77.5,86.2,77.3,86.3,77.2L86.3,77.2z M101.1,94c1.1,0.6,1.6,0.8,2,1c4.6,1.7,9.3,3.2,13.8,5
	c2.9,1.1,6,1.5,8.5,3.3c3.1,2.3,4.2,6.5,2.6,10c-1.9,4.4-6.2,7.2-10.5,6.5c-1.5-0.3-2,0-2.7,1.3c-1.7,3.3-5.4,5-9,4.1
	c-3.1-0.7-6.2-1.3-9.2-2.1c-12.6-3.1-25.3-5.4-38.3-5.7c-5.4,0-10.6-1.8-14.8-5.1c-4-3.1-8.2-5.3-13.5-4.3h-0.2c-3,0-3,0-1.7,2.9
	c3.4,7.2,8.2,13.7,14,19.2c15.3,14.3,33.5,19.4,53.9,16.2c13.5-2.1,25.1-8.5,34.6-18.5c13.3-14,19-30.8,17.2-49.8
	c-1.3-15.6-8.6-30.1-20.4-40.4c-14.5-13-31.5-18-50.7-15.6c-17.1,2.2-30.8,10.4-41.4,24c-3.7,4.8-6.8,10.1-8.9,15.8
	c-0.4,0.9-1.1,2.6,0.4,2.6c3.7,0.1,7.6,1,10.7-2.5c3-3.6,6.4-6.8,10.1-9.7c5.1-4,10.5-7.6,15-12.4c2.4-2.6,4-5.7,6.5-8.2
	c3.8-3.6,8-3.2,11,1s3.1,8.7,1.4,13.3c-1.8,5-5.2,9-8.4,13.2c-0.8,1.1-2.1,2.5-1.6,3.4c0.5,1.1,2.4,0.9,3.8,0.9
	c9.9,0.3,19.8-0.1,29.7-0.6c3.3-0.2,6.6-0.3,9.9-0.7c7.1-0.9,13.9,1.2,15.5,9.9c0.2,0.9,0.8,1.2,1.4,1.6c2.9,2.3,4.3,6.2,3.4,9.8
	c-0.7,4-3.4,6-7.1,6.6c-5.4,0.9-10.8,1.5-16.2,2.3C108.5,92.9,105.2,93.4,101.1,94L101.1,94z"/>
<path class="st0" d="M44.4,87.7c9.3,1,16.4-2.3,20.7-11c0.7,2.6,0.1,4.9-1.9,7.3c-3.7,4.4-8.5,5.9-14,5.3c-1.6-0.2-3.1-0.6-4.6-0.8
	C44.5,88.2,44.5,87.9,44.4,87.7z"/>
<path class="st2" d="M44.4,87.7c0,0.3,0.1,0.5,0.1,0.8c-0.8,0-1.6-0.3-2.3-0.7C42.9,87.4,43.7,87.3,44.4,87.7L44.4,87.7z"/>
<path class="st0" d="M85.9,77.6c-0.3-0.2-0.5-0.6-0.3-0.8s0.4,0.2,0.7,0.4L85.9,77.6z"/>
<path class="st2" d="M101.1,94c4.1-0.6,7.4-1,10.7-1.5c5.4-0.8,10.9-1.4,16.2-2.3c3.7-0.6,6.4-2.6,7.1-6.6s-0.2-7.3-3.4-9.8
	c-0.6-0.5-1.2-0.8-1.4-1.6c-1.6-8.7-8.4-10.8-15.5-9.9c-3.3,0.4-6.6,0.5-9.9,0.7c-9.9,0.6-19.8,0.9-29.7,0.6c-1.4,0-3.3,0.2-3.8-0.9
	s0.8-2.4,1.6-3.4c3.1-4.2,6.6-8.2,8.4-13.2C83.1,41.5,83,37,80,32.8s-7.3-4.6-11-1c-2.6,2.4-4.1,5.6-6.5,8.2
	c-4.4,4.8-9.8,8.4-15,12.4c-3.7,2.9-7,6.2-10.1,9.7s-7,2.6-10.7,2.5c-1.6-0.1-0.8-1.7-0.4-2.6c2.1-5.7,5.2-11,8.9-15.8
	c10.6-13.5,24.3-21.8,41.4-24c19.2-2.5,36.2,2.6,50.7,15.6c11.8,10.3,19.2,24.8,20.4,40.4c1.7,19-3.9,35.8-17.2,49.8
	c-9.5,10-21.1,16.4-34.6,18.5c-20.3,3.2-38.6-1.9-53.9-16.2c-5.8-5.5-10.6-12-14-19.2c-1.4-2.8-1.3-2.8,1.7-2.9h0.2
	c5.3-0.9,9.5,1.2,13.5,4.3c4.2,3.3,9.4,5.1,14.8,5.1c12.9,0.4,25.8,2.4,38.3,5.7c3.1,0.8,6.1,1.4,9.2,2.1c3.6,0.9,7.3-0.8,9-4.1
	c0.6-1.2,1.2-1.5,2.7-1.3c4.2,0.7,8.6-2.1,10.5-6.5c1.6-3.5,0.5-7.7-2.6-10c-2.5-1.8-5.7-2.2-8.5-3.3c-4.6-1.8-9.2-3.3-13.8-5
	C102.5,94.7,101.8,94.3,101.1,94z"/>
</svg>
